<svg width="45" height="45" viewBox="0 0 45 45" fill="none" xmlns="http://www.w3.org/2000/svg">
<path d="M45 40C45 42.7613 42.7612 45 40 45H5C2.23875 45 0 42.7613 0 40V5C0 2.23875 2.23875 0 5 0H40C42.7612 0 45 2.23875 45 5V40Z" fill="#FDD105"/>
<path d="M18.8593 25.476H26.223L22.6193 14.2359H22.5418L18.8593 25.476ZM18.433 11.4058C19.093 9.62333 20.6043 8.18956 22.5805 8.18956C24.6343 8.18956 26.0693 9.54583 26.7268 11.4058L34.3243 32.4898C34.5555 33.1098 34.6343 33.6535 34.6343 33.9248C34.6343 35.436 33.393 36.4823 31.9605 36.4823C30.3318 36.4823 29.518 35.6298 29.1305 34.4673L27.968 30.8235H17.193L16.0305 34.4285C15.643 35.6298 14.828 36.4823 13.2393 36.4823C11.6893 36.4823 10.3718 35.3198 10.3718 33.7698C10.3718 33.1498 10.5655 32.6848 10.643 32.4898L18.433 11.4058Z" fill="white"/>
</svg>
