<svg width="45" height="46" viewBox="0 0 45 46" fill="none" xmlns="http://www.w3.org/2000/svg">
<path d="M45 40.3531C45 43.1144 42.7612 45.3531 40 45.3531H5C2.23875 45.3531 0 43.1144 0 40.3531V5.35315C0 2.5919 2.23875 0.353149 5 0.353149H40C42.7612 0.353149 45 2.5919 45 5.35315V40.3531Z" fill="#FDD105"/>
<path d="M18.9361 31.4875H23.5099C25.6024 31.4875 27.1536 30.2862 27.1536 28.1162C27.1536 26.2937 25.7574 25.0537 23.0449 25.0537H18.9361V31.4875ZM18.9361 19.9374H21.9599C23.8586 19.9374 25.0986 18.8137 25.0986 16.8762C25.0986 15.0549 23.6649 14.1236 21.9599 14.1236H18.9361V19.9374ZM13.1236 11.9149C13.1236 10.0549 14.4024 9.00861 16.1849 9.00861H23.6261C27.6561 9.00861 30.9136 11.7211 30.9136 15.8299C30.9136 18.5424 29.7874 20.3649 27.3074 21.5262V21.6049C30.6024 22.0699 33.1986 24.8212 33.1986 28.1925C33.1986 33.6575 29.5561 36.6038 24.2061 36.6038H16.2236C14.4399 36.6038 13.1236 35.4788 13.1236 33.6575V11.9149Z" fill="white"/>
</svg>
