<?xml version="1.0" encoding="utf-8"?>
<!-- Generator: Adobe Illustrator 16.0.3, SVG Export Plug-In . SVG Version: 6.00 Build 0)  -->
<!DOCTYPE svg PUBLIC "-//W3C//DTD SVG 1.1//EN" "http://www.w3.org/Graphics/SVG/1.1/DTD/svg11.dtd">
<svg version="1.1" id="Layer_1" xmlns="http://www.w3.org/2000/svg" xmlns:xlink="http://www.w3.org/1999/xlink" x="0px" y="0px"
	 width="45px" height="45px" viewBox="0 0 45 45" enable-background="new 0 0 45 45" xml:space="preserve">
<path fill="#FDD105" d="M45,40c0,2.762-2.238,5-5,5H5c-2.761,0-5-2.238-5-5V5c0-2.761,2.239-5,5-5h35c2.762,0,5,2.239,5,5V40z"/>
<g>
	<path fill="#FFFFFF" stroke="#FFFFFF" stroke-width="3" stroke-miterlimit="10" d="M19.031,34.219l-0.094-0.063
		c-1.419-0.55-2.62-1.175-3.632-2.144c-1.166-1.126-2.128-2.579-2.888-4.359c-0.76-1.78-1.14-3.744-1.14-5.892
		c0-2.016,0.342-3.888,1.026-5.616c0.684-1.728,1.621-3.207,2.812-4.438c1.089-1.073,2.343-1.924,3.762-2.553
		c1.444-0.628,2.938-0.942,4.484-0.942c1.799,0,3.508,0.393,5.13,1.178c1.621,0.786,2.989,1.925,4.104,3.417
		c0.253,0.341,0.443,0.642,0.57,0.903c0.127,0.262,0.19,0.511,0.19,0.746c0,0.419-0.152,0.786-0.456,1.1
		c-0.305,0.314-0.685,0.472-1.141,0.472c-0.253,0-0.481-0.065-0.684-0.196c-0.152-0.104-0.394-0.301-0.722-0.589
		c-0.836-0.811-1.584-1.479-2.242-2.003c-0.634-0.472-1.33-0.864-2.09-1.179c-0.786-0.313-1.697-0.471-2.736-0.471
		c-2.28,0-4.142,0.746-5.586,2.239c-0.887,0.917-1.571,2.029-2.052,3.338c-0.481,1.31-0.722,2.776-0.722,4.398
		c0,1.676,0.24,3.169,0.722,4.477c0.506,1.363,1.203,2.462,2.09,3.3c1.494,1.414,3.432,2.12,5.813,2.12
		c2.179,0,4.396-0.653,6.65-1.964c0.507-0.313,0.912-0.549,1.216-0.706c0.202-0.104,0.431-0.158,0.685-0.158
		c0.48,0,0.848,0.158,1.102,0.473c0.278,0.34,0.418,0.707,0.418,1.1c0,0.366-0.114,0.707-0.342,1.021
		c-0.254,0.341-0.634,0.682-1.141,1.021c-1.089,0.761-2.394,1.401-3.914,1.925c-1.469,0.498-3.039,0.746-4.711,0.746
		C21.968,34.918,20.45,34.768,19.031,34.219z"/>
</g>
</svg>
