<?xml version="1.0" standalone="no"?>
<!DOCTYPE svg PUBLIC "-//W3C//DTD SVG 20010904//EN"
 "http://www.w3.org/TR/2001/REC-SVG-20010904/DTD/svg10.dtd">
<svg version="1.0" xmlns="http://www.w3.org/2000/svg"
 width="818.000000pt" height="1280.000000pt" viewBox="0 0 818.000000 1280.000000"
 preserveAspectRatio="xMidYMid meet">
<metadata>
Created by potrace 1.15, written by Peter Selinger 2001-2017
</metadata>
<g transform="translate(0.000000,1280.000000) scale(0.100000,-0.100000)"
fill="#000000" stroke="none">
<path d="M3074 12785 c-4 -8 -14 -15 -23 -15 -48 0 -56 -62 -11 -88 31 -18 44
-38 34 -53 -9 -15 -30 -10 -49 11 -21 23 -45 26 -45 7 0 -7 9 -23 20 -35 11
-12 20 -28 20 -37 0 -28 20 -20 76 32 34 31 32 69 -6 88 -16 9 -30 20 -30 25
0 15 26 12 40 -5 7 -8 16 -15 21 -15 15 0 10 37 -6 50 -9 7 -14 19 -11 26 3 7
-2 15 -10 18 -8 3 -17 -1 -20 -9z"/>
<path d="M4120 12375 c0 -31 -3 -35 -26 -35 -39 0 -62 -17 -85 -62 -27 -52
-19 -96 24 -141 24 -26 44 -36 79 -41 35 -5 54 -15 73 -37 29 -35 31 -51 9
-73 -32 -32 -108 -12 -171 46 -16 15 -25 17 -40 9 -46 -24 -45 -35 12 -94 31
-33 62 -57 74 -57 18 0 21 -6 21 -39 0 -37 2 -39 35 -43 34 -4 35 -3 35 33 0
34 3 37 33 43 66 12 114 97 104 183 -6 56 -25 76 -87 92 -103 26 -137 91 -47
91 34 0 87 -37 87 -60 0 -27 12 -25 39 4 l23 25 -24 43 c-18 33 -31 45 -59 52
-36 9 -36 9 -31 52 l5 44 -42 0 c-40 0 -41 -1 -41 -35z"/>
<path d="M2790 12278 c0 -8 -15 -18 -32 -23 -67 -20 -70 -96 -6 -134 48 -29
59 -41 56 -59 -5 -29 -44 -25 -81 8 -22 19 -41 28 -51 24 -9 -3 -16 -9 -16
-13 0 -14 41 -72 55 -77 8 -4 15 -17 15 -30 0 -17 6 -24 20 -24 13 0 20 7 20
20 0 14 7 20 23 20 29 0 55 27 67 70 12 42 0 65 -50 90 -22 11 -40 27 -40 35
0 24 38 17 67 -11 17 -17 29 -22 35 -16 16 16 0 63 -23 69 -15 4 -19 13 -17
32 2 20 -2 27 -19 29 -14 2 -23 -2 -23 -10z"/>
<path d="M3310 12185 c-38 -29 -39 -39 -8 -72 l21 -23 -21 -23 c-69 -74 -30
-210 67 -237 57 -16 80 -12 146 21 50 26 69 31 98 25 145 -27 37 -164 -122
-155 l-46 3 -9 -42 c-5 -23 -7 -45 -4 -47 3 -3 42 -11 86 -17 71 -11 86 -10
116 5 l35 16 27 -34 26 -34 39 26 40 26 -30 31 -30 31 25 40 c42 70 28 155
-38 231 -18 20 -48 43 -66 51 -31 13 -38 12 -100 -16 -84 -37 -124 -44 -148
-27 -16 12 -17 17 -5 38 26 49 111 75 161 48 17 -9 20 -6 26 17 3 16 7 34 10
41 5 16 -70 51 -109 52 -15 0 -42 -7 -60 -16 -30 -16 -32 -16 -47 7 -41 62
-41 63 -80 34z"/>
<path d="M4726 12011 c-3 -9 -10 -41 -16 -72 l-11 -56 -64 -1 c-72 -1 -115
-20 -160 -74 -80 -94 -91 -192 -34 -298 41 -77 84 -113 163 -135 94 -27 134
-51 167 -102 54 -86 34 -164 -48 -179 -82 -16 -197 45 -280 148 l-55 68 -67
-37 c-36 -20 -68 -38 -70 -39 -7 -6 76 -137 124 -197 34 -43 62 -66 102 -84
l55 -26 -5 -41 c-4 -22 -9 -55 -12 -72 l-7 -30 76 -20 75 -21 6 56 c3 31 7 65
8 76 2 17 12 21 66 28 34 4 80 16 101 27 84 43 156 176 167 311 11 125 -26
182 -150 229 -45 18 -93 38 -107 45 -44 23 -100 84 -100 110 0 57 91 72 176
30 72 -36 105 -74 111 -129 l5 -45 57 36 c31 19 60 38 64 42 4 4 -4 44 -18 89
-31 97 -61 132 -139 156 -63 20 -60 8 -30 126 7 30 11 57 8 60 -3 3 -39 12
-80 21 -67 14 -74 14 -78 0z"/>
<path d="M2943 11734 c-30 -13 -31 -16 -22 -42 9 -26 6 -33 -26 -65 -30 -30
-35 -42 -35 -80 0 -34 6 -53 25 -75 38 -45 75 -57 140 -44 30 6 63 9 73 5 53
-19 69 -70 30 -97 -28 -20 -98 -21 -143 -2 -36 15 -41 13 -64 -31 -11 -21 -8
-24 41 -49 29 -15 72 -28 97 -29 38 -1 45 -5 56 -33 13 -29 15 -30 49 -20 l35
11 -15 30 c-15 28 -15 30 16 62 55 57 51 164 -9 228 -26 28 -27 29 -106 22
-63 -5 -84 -3 -100 9 -20 15 -20 15 3 38 30 30 106 33 128 4 15 -21 16 -21 33
11 17 33 14 38 -29 68 -32 22 -47 26 -75 22 -33 -5 -35 -4 -46 34 -14 43 -12
43 -56 23z"/>
<path d="M3690 11253 c-30 -8 -56 -16 -58 -18 -2 -2 5 -33 16 -69 l20 -67 -48
-24 c-86 -44 -124 -112 -123 -225 0 -70 28 -127 85 -173 87 -70 135 -81 269
-57 61 11 71 10 117 -10 118 -51 139 -143 47 -200 -32 -20 -51 -23 -116 -23
-64 1 -92 7 -165 37 -49 19 -91 32 -94 27 -26 -37 -68 -98 -74 -108 -8 -14 76
-70 174 -117 46 -22 85 -32 134 -36 l70 -5 19 -63 18 -64 37 7 c54 9 112 25
112 30 0 3 -13 32 -29 65 l-29 60 64 45 c83 60 106 102 112 212 7 134 -40 258
-118 311 -34 23 -40 24 -155 17 -181 -10 -262 18 -239 82 22 64 151 90 242 49
23 -10 42 -22 42 -25 0 -3 9 -17 19 -30 l18 -24 38 63 38 62 -54 55 c-76 77
-98 86 -185 81 l-71 -5 -18 79 c-21 88 -19 87 -115 61z"/>
<path d="M5236 10959 c-3 -17 -6 -42 -6 -55 0 -17 -7 -25 -25 -29 -14 -3 -36
-7 -48 -10 -38 -8 -73 -42 -101 -97 -45 -90 -28 -175 51 -251 34 -33 49 -39
121 -52 96 -16 113 -25 146 -68 39 -51 42 -82 13 -111 -14 -14 -38 -28 -53
-32 -55 -14 -151 26 -236 97 -41 35 -41 35 -111 -23 l-29 -23 79 -84 c65 -69
87 -86 133 -101 l55 -19 -3 -54 c-4 -61 3 -67 85 -67 l43 0 -6 58 -6 58 55 17
c30 9 66 26 80 37 41 32 77 118 84 196 11 136 -29 203 -133 223 -111 22 -204
70 -204 105 0 26 38 47 86 48 79 2 164 -53 164 -104 0 -26 10 -22 53 18 l39
36 -16 42 c-9 23 -29 58 -46 78 -25 30 -41 39 -87 48 l-56 12 7 69 6 69 -64 0
c-63 0 -64 0 -70 -31z"/>
<path d="M4450 10308 c-24 -10 -46 -21 -48 -22 -2 -2 4 -21 12 -41 21 -49 21
-48 -14 -68 -40 -24 -62 -69 -62 -126 1 -63 13 -91 56 -129 55 -48 102 -58
174 -38 32 9 69 16 83 16 30 0 84 -32 99 -59 14 -27 -9 -73 -45 -89 -36 -17
-149 -15 -192 3 -19 8 -37 15 -39 15 -2 0 -15 -22 -29 -49 l-24 -49 77 -33
c57 -25 92 -34 136 -34 l59 0 18 -42 18 -42 43 16 c24 9 45 18 47 20 3 2 -6
21 -18 43 l-23 41 41 39 c51 49 66 100 52 175 -16 88 -51 144 -104 172 -25 13
-38 13 -105 -1 -147 -30 -225 15 -130 74 44 28 127 23 161 -9 l24 -21 18 40
18 40 -28 30 c-45 47 -90 64 -138 52 -43 -11 -57 -9 -58 11 0 7 -8 28 -17 48
l-17 36 -45 -19z"/>
<path d="M5072 9753 c-21 -4 -23 -8 -17 -43 6 -33 4 -39 -15 -45 -30 -10 -60
-63 -60 -109 0 -32 7 -45 40 -79 l41 -40 68 6 c81 7 131 -15 131 -57 0 -54
-87 -73 -166 -37 l-40 18 -22 -33 -21 -33 42 -24 c63 -36 103 -50 125 -43 15
5 21 0 29 -26 8 -30 13 -33 43 -30 43 3 44 5 27 38 -14 27 -14 29 25 64 31 27
41 44 45 77 7 55 -13 125 -44 155 -21 20 -35 23 -103 23 -92 0 -121 16 -96 50
22 31 113 28 134 -3 l15 -23 20 33 19 32 -37 34 c-31 29 -43 33 -75 30 -37 -3
-39 -2 -47 32 -9 35 -19 41 -61 33z"/>
<path d="M5525 9356 c6 -32 5 -35 -28 -45 -25 -9 -41 -23 -57 -54 -30 -56 -22
-101 25 -147 30 -29 43 -34 95 -38 52 -4 64 -9 85 -34 31 -36 31 -52 3 -72
-33 -24 -69 -20 -134 14 l-58 31 -25 -26 -26 -26 45 -40 c25 -21 64 -45 88
-51 38 -11 42 -15 42 -45 0 -32 1 -33 40 -33 22 0 40 1 40 3 0 1 -4 17 -9 35
-9 31 -8 33 29 52 61 31 89 102 71 181 -13 58 -49 89 -103 89 -75 0 -143 54
-92 74 40 15 86 6 114 -24 l27 -29 23 24 22 24 -21 30 c-30 41 -60 61 -93 61
-26 0 -28 3 -28 40 l0 40 -40 0 -41 0 6 -34z"/>
<path d="M5047 9018 c-28 -10 -29 -15 -10 -64 2 -5 -8 -17 -23 -25 -56 -30
-70 -118 -27 -170 40 -47 77 -59 139 -47 41 8 57 7 80 -5 27 -14 24 -15 -81
-21 -61 -4 -147 -9 -192 -12 l-83 -6 -2 -370 -3 -370 -394 336 c-334 284 -397
334 -410 323 -15 -12 -1264 -1088 -3066 -2642 -479 -412 -894 -770 -923 -795
l-53 -45 241 -275 c133 -151 247 -275 254 -274 10 1 497 354 719 521 33 25 60
43 62 41 1 -2 7 -545 14 -1208 6 -663 16 -1664 21 -2225 5 -561 13 -1164 16
-1341 l6 -321 532 -6 c292 -4 1061 -7 1709 -7 l1177 0 -1 513 c-1 281 -4 565
-8 631 l-6 118 -41 14 c-142 48 -408 231 -709 488 -140 120 -825 796 -825 814
0 9 687 637 731 670 15 11 31 1 120 -78 228 -202 476 -391 644 -492 205 -124
604 -272 870 -325 126 -25 382 -25 485 0 249 60 474 215 557 384 26 55 28 65
28 188 -1 121 -3 136 -32 213 -58 152 -172 313 -317 449 -295 276 -446 328
-1034 358 -468 24 -620 52 -798 151 -71 39 -214 148 -303 229 l-61 57 0 -421
0 -421 -370 0 -370 0 -4 23 c-4 18 -57 882 -56 911 0 6 144 7 356 3 l355 -6
-31 37 c-17 20 -51 63 -76 95 l-45 57 118 0 118 0 -3 517 c-2 285 -7 521 -10
524 -7 5 -189 -2 -431 -16 l-114 -7 6 -162 c4 -126 11 -182 30 -261 45 -175
118 -342 223 -503 30 -45 54 -85 54 -89 0 -8 -550 4 -558 12 -6 6 -60 837 -61
941 l-1 51 152 6 c83 4 153 9 155 11 2 2 10 44 18 92 38 251 133 495 283 724
136 208 276 358 399 426 125 70 364 149 575 190 l88 17 2 388 3 388 1337
-1137 c735 -625 1337 -1142 1337 -1147 1 -6 -120 -131 -268 -279 -263 -263
-270 -269 -276 -240 -22 101 -83 283 -122 364 -54 111 -107 168 -244 260 -454
303 -1062 377 -1409 170 -191 -113 -264 -270 -196 -417 52 -110 150 -187 430
-337 284 -151 407 -184 872 -236 435 -48 579 -74 722 -131 l52 -21 0 -147 c0
-80 -4 -423 -10 -761 -22 -1478 -32 -2321 -27 -2326 7 -7 47 18 112 70 229
182 435 566 529 988 107 479 91 1074 -41 1482 -98 303 -272 537 -490 658 l-73
40 1 96 c0 54 4 119 7 146 l7 49 292 -241 291 -240 139 141 c76 78 187 192
246 253 l108 111 -320 272 -321 273 51 58 51 59 -71 143 c-199 403 -439 755
-608 891 -127 102 -255 148 -523 186 -92 13 -323 31 -406 31 l-62 0 -6 223
c-4 122 -11 416 -16 652 -5 237 -12 524 -16 639 l-7 208 -171 -7 c-94 -4 -227
-10 -295 -14 l-124 -6 -17 40 c-29 67 -45 75 -137 73 -82 -3 -117 9 -107 37
14 36 127 44 141 9 8 -22 21 -17 38 15 15 29 14 30 -23 61 -30 25 -45 30 -77
28 -39 -3 -40 -1 -49 35 -10 39 -15 41 -59 25z m-1977 -3374 c0 -46 29 -756
35 -861 l6 -103 -424 0 -424 0 -6 198 c-4 108 -10 322 -13 475 l-7 277 39 1
c21 0 188 9 369 18 465 25 425 26 425 -5z m8 -1150 l42 -5 0 -72 c0 -40 7
-225 15 -412 8 -187 15 -366 15 -397 l0 -58 -428 0 -429 0 -6 153 c-4 83 -10
299 -13 478 l-7 327 384 -5 c211 -2 403 -6 427 -9z"/>
<path d="M4005 4440 c21 -22 40 -40 42 -40 2 0 3 18 3 40 l0 40 -42 0 -42 0
39 -40z"/>
<path d="M4740 1722 l0 -449 83 -17 c222 -44 742 -72 1162 -64 l241 5 34 -596
35 -596 366 -3 366 -2 7 572 c3 315 9 658 13 762 l6 190 -46 -27 c-124 -73
-360 -181 -487 -224 -41 -14 -79 -29 -85 -33 -11 -9 -109 -27 -170 -32 l-40
-3 -27 445 c-14 245 -27 457 -27 471 l-1 27 -417 6 c-230 3 -552 8 -715 11
l-298 6 0 -449z"/>
</g>
</svg>
