<svg width="40" height="42" viewBox="0 0 40 42" fill="none" xmlns="http://www.w3.org/2000/svg">
<path d="M1.77241 27.3039L0.448883 39.0161L5.21453 39.5236L6.53805 27.8114L1.77241 27.3039Z" fill="#FDD105"/>
<path d="M25.553 21.5719L26.2885 21.6015V25.4242H27.554V21.6015L28.2467 21.5721C32.874 21.4172 36.7131 17.5974 36.8192 13.0553L36.8622 11.9176C36.8653 11.8307 36.8503 11.744 36.818 11.6631C36.7858 11.5822 36.7371 11.5088 36.6749 11.4474C36.6128 11.3861 36.5385 11.3381 36.4568 11.3066C36.3751 11.2751 36.2877 11.2606 36.2001 11.2642L35.0708 11.3116C31.859 11.4203 29.0003 13.3333 27.554 16.0317V13.7822L28.1325 13.1374C31.2944 9.78119 31.2844 4.37981 28.1227 1.09361L27.341 0.25565C27.2814 0.191698 27.2091 0.140669 27.1287 0.10577C27.0482 0.0708716 26.9614 0.0528564 26.8736 0.0528564C26.7858 0.0528564 26.699 0.0708716 26.6185 0.10577C26.5381 0.140669 26.4658 0.191698 26.4062 0.25565L25.6279 1.09442C22.5013 4.41587 22.52 9.81842 25.6432 13.1338L26.2885 13.8096V16.0327C24.7518 13.3328 21.9475 11.4203 18.7392 11.3118L17.5774 11.2642C17.4893 11.2608 17.4014 11.2753 17.3191 11.3068C17.2368 11.3383 17.1618 11.3862 17.0989 11.4475C17.0367 11.5088 16.9879 11.5822 16.9557 11.6631C16.9235 11.7441 16.9086 11.8307 16.9118 11.9176L16.9678 13.0553C17.0738 17.5974 20.9307 21.4172 25.553 21.5719ZM36.1881 32.9972L36.1728 33.0031L29.7618 35.3947C29.8029 35.7435 29.8043 36.0957 29.766 36.4448C29.757 36.5268 29.7317 36.6062 29.6917 36.6785C29.6517 36.7507 29.5978 36.8145 29.533 36.8661C29.4681 36.9177 29.3937 36.9561 29.3139 36.9791C29.2341 37.0022 29.1505 37.0094 29.0679 37.0004L20.0894 36.0227C20.0063 36.0143 19.9257 35.9897 19.8522 35.9503C19.7787 35.9108 19.7139 35.8574 19.6613 35.7929C19.6088 35.7285 19.5696 35.6544 19.5461 35.5748C19.5226 35.4953 19.5152 35.4119 19.5243 35.3295C19.5334 35.2471 19.5588 35.1673 19.5992 35.0948C19.6395 35.0222 19.6939 34.9582 19.7593 34.9066C19.8247 34.855 19.8997 34.8168 19.9801 34.7941C20.0604 34.7714 20.1445 34.7647 20.2274 34.7744L28.5192 35.6773C28.4577 34.8801 28.1176 34.1293 27.5578 33.5544C26.9979 32.9795 26.2533 32.6166 25.4525 32.5283L19.9903 31.9335C18.9631 31.8201 17.9725 31.4888 17.0857 30.9621C17.0773 30.9571 17.0688 30.9523 17.0605 30.9469C17.0295 30.9283 16.9982 30.91 16.9674 30.8909L16.4341 30.559C15.1413 29.7509 13.6524 29.3047 12.1249 29.2676C10.5975 29.2304 9.08831 29.6037 7.75713 30.3479L6.87741 38.3028L7.90972 37.8578C8.87836 37.4381 9.9735 37.4086 10.9637 37.7754L20.0417 41.1192C21.8099 41.6314 23.696 41.5759 25.4305 40.9608L39.0203 33.7266C38.6905 33.3184 38.2366 33.0268 37.7262 32.8954C37.2159 32.7639 36.6764 32.7996 36.1881 32.9972Z" fill="#FDD105"/>
<path d="M32.449 28.0525C31.6787 27.8869 30.8753 27.5029 30.0249 27.0961C28.9075 26.5617 27.641 25.9561 26.2785 25.787C24.6797 25.5888 23.1525 26.0533 21.6748 26.5023C20.9935 26.7093 20.2899 26.9232 19.5939 27.0665C18.7459 27.2414 18.2805 28.8669 18.1274 29.9251C18.7686 30.2577 19.464 30.4697 20.1798 30.551L25.6688 31.1614C26.5184 31.2564 27.3269 31.5822 28.0089 32.1043C28.6908 32.6264 29.2209 33.3255 29.5432 34.1276L35.806 31.742C35.7773 31.4002 35.61 30.9649 35.322 30.4965C34.6084 29.336 33.3194 28.2397 32.449 28.0525Z" fill="#FDD105"/>
</svg>
