<?xml version="1.0" encoding="utf-8"?>
<!-- Generator: Adobe Illustrator 16.0.3, SVG Export Plug-In . SVG Version: 6.00 Build 0)  -->
<!DOCTYPE svg PUBLIC "-//W3C//DTD SVG 1.1//EN" "http://www.w3.org/Graphics/SVG/1.1/DTD/svg11.dtd">
<svg version="1.1" id="Layer_1" xmlns="http://www.w3.org/2000/svg" xmlns:xlink="http://www.w3.org/1999/xlink" x="0px" y="0px"
	 width="629px" height="465px" viewBox="0 0 629 465" enable-background="new 0 0 629 465" xml:space="preserve">
<g>
	<rect x="1" y="3" fill="none" width="609" height="447"/>
	<g>
		<path fill="#FFFFFF" d="M350.348,129.84L10.27,308.137l237.542,124.54L587.891,254.38L350.348,129.84z"/>
		
			<path fill="none" stroke="#000000" stroke-width="0.589" stroke-linecap="round" stroke-linejoin="round" stroke-miterlimit="10" d="
			M350.348,129.84L10.27,308.137l237.542,124.54L587.891,254.38L350.348,129.84z"/>
		<path fill="#FFFFFF" d="M392.463,175.399l-9.792,5.136l158.003,82.836l9.792-5.135L392.463,175.399z"/>
		
			<path fill="none" stroke="#000000" stroke-width="0.589" stroke-linecap="round" stroke-linejoin="round" stroke-miterlimit="10" d="
			M392.463,175.399l-9.792,5.136l158.003,82.836l9.792-5.135L392.463,175.399z"/>
		<path fill="#FFFFFF" d="M582.889,70.415c0,0-38.637-7.852-46.914-12.988c-16.881-10.477-33.894-32.432-33.894-32.432
			S523.646,79.805,582.889,70.415C643.889,60.748,582.889,70.415,582.889,70.415z"/>
		
			<path fill="none" stroke="#000000" stroke-width="0.589" stroke-linecap="round" stroke-linejoin="round" stroke-miterlimit="10" d="
			M582.889,70.415c0,0-38.637-7.852-46.914-12.988c-16.881-10.477-33.894-32.432-33.894-32.432S523.646,79.805,582.889,70.415z
			 M582.889,70.415C643.889,60.748,582.889,70.415,582.889,70.415z"/>
		<path fill="#FFFFFF" d="M587.891,254.38L247.962,432.598v12.374l339.929-178.218V254.38z"/>
		
			<path fill="none" stroke="#000000" stroke-width="0.589" stroke-linecap="round" stroke-linejoin="round" stroke-miterlimit="10" d="
			M587.891,254.38L247.962,432.598v12.374l339.929-178.218V254.38z"/>
		<path fill="#FFFFFF" d="M540.674,82.615l-9.473-4.966v180.758l9.473,4.965V82.615z"/>
		
			<path fill="none" stroke="#000000" stroke-width="0.589" stroke-linecap="round" stroke-linejoin="round" stroke-miterlimit="10" d="
			M540.674,82.615l-9.473-4.966v180.758l9.473,4.965V82.615z"/>
		<path fill="#FFFFFF" d="M550.147,87.582l-9.474,4.967v170.823l9.474-4.965V87.582z"/>
		
			<path fill="none" stroke="#000000" stroke-width="0.589" stroke-linecap="round" stroke-linejoin="round" stroke-miterlimit="10" d="
			M550.147,87.582l-9.474,4.967v170.823l9.474-4.965V87.582z"/>
		<path fill="#FFFFFF" d="M511.555,57.416l-9.474,4.966l70.567,36.997l9.472-4.966L511.555,57.416z"/>
		
			<path fill="none" stroke="#000000" stroke-width="0.589" stroke-linecap="round" stroke-linejoin="round" stroke-miterlimit="10" d="
			M511.555,57.416l-9.474,4.966l70.567,36.997l9.472-4.966L511.555,57.416z"/>
		<path fill="#FFFFFF" d="M582.12,52.51l-9.472,4.967l11.008,5.772l9.472-4.967L582.12,52.51z"/>
		
			<path fill="none" stroke="#000000" stroke-width="0.589" stroke-linecap="round" stroke-linejoin="round" stroke-miterlimit="10" d="
			M582.12,52.51l-9.472,4.967l11.008,5.772l9.472-4.967L582.12,52.51z"/>
		<path fill="#FFFFFF" d="M502.081,62.381v9.933l70.567,36.996v-9.932L502.081,62.381z"/>
		
			<path fill="none" stroke="#000000" stroke-width="0.589" stroke-linecap="round" stroke-linejoin="round" stroke-miterlimit="10" d="
			M502.081,62.381v9.933l70.567,36.996v-9.932L502.081,62.381z"/>
		<path fill="#FFFFFF" d="M501.313,10.146l-9.472,4.966l11.008,5.771l9.474-4.965L501.313,10.146z"/>
		
			<path fill="none" stroke="#000000" stroke-width="0.589" stroke-linecap="round" stroke-linejoin="round" stroke-miterlimit="10" d="
			M501.313,10.146l-9.472,4.966l11.008,5.771l9.474-4.965L501.313,10.146z"/>
		<path fill="#FFFFFF" d="M593.129,58.284l-9.471,4.966v51.834l9.471-4.966V58.284z"/>
		
			<path fill="none" stroke="#000000" stroke-width="0.589" stroke-linecap="round" stroke-linejoin="round" stroke-miterlimit="10" d="
			M593.129,58.284l-9.471,4.966v51.834l9.471-4.966V58.284z"/>
		<path fill="#FFFFFF" d="M583.658,63.25l-11.01-5.772v51.833l11.01,5.774V63.25z"/>
		
			<path fill="none" stroke="#000000" stroke-width="0.589" stroke-linecap="round" stroke-linejoin="round" stroke-miterlimit="10" d="
			M583.658,63.25l-11.01-5.772v51.833l11.01,5.774V63.25z"/>
		<path fill="#FFFFFF" d="M512.323,15.918l-9.474,4.965v41.901l9.474-4.965V15.918z"/>
		
			<path fill="none" stroke="#000000" stroke-width="0.589" stroke-linecap="round" stroke-linejoin="round" stroke-miterlimit="10" d="
			M512.323,15.918l-9.474,4.965v41.901l9.474-4.965V15.918z"/>
		<path fill="#FFFFFF" d="M502.85,20.883l-11.008-5.771v51.834l11.008,5.772V20.883z"/>
		
			<path fill="none" stroke="#000000" stroke-width="0.589" stroke-linecap="round" stroke-linejoin="round" stroke-miterlimit="10" d="
			M502.85,20.883l-11.008-5.771v51.834l11.008,5.772V20.883z"/>
		<path fill="#FFFFFF" d="M240.17,238.589l-73.446-79.818l-52.784,13.523l-1.285,0.673v113.891l127.515,71.665V238.589z"/>
		
			<path fill="none" stroke="#000000" stroke-width="0.589" stroke-linecap="round" stroke-linejoin="round" stroke-miterlimit="10" d="
			M240.17,238.589l-73.446-79.818l-52.784,13.523l-1.285,0.673v113.891l127.515,71.665V238.589z"/>
		<path fill="#FFFFFF" d="M184.754,276.794c0-11.587-6.807-22.294-17.858-28.088c0,0,0,0-0.001,0c-3.66-1.92-8.169-1.92-11.83,0
			c-3.66,1.919-5.915,5.465-5.915,9.304c0,17.818,0,42.013,0,42.013l35.604,18.665V276.794z"/>
		
			<path fill="none" stroke="#000000" stroke-width="0.589" stroke-linecap="round" stroke-linejoin="round" stroke-miterlimit="10" d="
			M184.754,276.794c0-11.587-6.807-22.294-17.858-28.088c0,0,0,0-0.001,0c-3.66-1.92-8.169-1.92-11.83,0
			c-3.66,1.919-5.915,5.465-5.915,9.304c0,17.818,0,42.013,0,42.013l35.604,18.665V276.794z"/>
		<path fill="#FFFFFF" d="M185.653,273.377c0-9.182-5.394-17.666-14.151-22.257c-0.001,0-0.001,0-0.002,0
			c-2.918-1.531-6.514-1.531-9.433,0c-2.918,1.528-4.716,4.356-4.716,7.417c0,17.945,0,45.783,0,45.783l28.302,14.838V273.377z"/>
		
			<path fill="none" stroke="#000000" stroke-width="0.589" stroke-linecap="round" stroke-linejoin="round" stroke-miterlimit="10" d="
			M185.653,273.377c0-9.182-5.394-17.666-14.151-22.257c-0.001,0-0.001,0-0.002,0c-2.918-1.531-6.514-1.531-9.433,0
			c-2.918,1.528-4.716,4.356-4.716,7.417c0,17.945,0,45.783,0,45.783l28.302,14.838V273.377z"/>
		<path fill="#FFFFFF" d="M327.609,95.151c4.664,2.445,8.451,4.572,8.451,4.746c0,0.175-3.787-1.669-8.451-4.115
			c-4.663-2.444-8.45-4.571-8.45-4.747C319.16,90.862,322.947,92.707,327.609,95.151z"/>
		
			<path fill="none" stroke="#000000" stroke-width="0.589" stroke-linecap="round" stroke-linejoin="round" stroke-miterlimit="10" d="
			M327.609,95.151c4.664,2.445,8.451,4.572,8.451,4.746c0,0.175-3.787-1.669-8.451-4.115c-4.663-2.444-8.45-4.571-8.45-4.747
			C319.16,90.862,322.947,92.707,327.609,95.151z"/>
		<path fill="#FFFFFF" d="M455.419,159.378l-140.071,73.437v119.302l140.071-73.438V159.378z"/>
		
			<path fill="none" stroke="#000000" stroke-width="0.589" stroke-linecap="round" stroke-linejoin="round" stroke-miterlimit="10" d="
			M455.419,159.378l-140.071,73.437v119.302l140.071-73.438V159.378z"/>
		<path fill="#FFFFFF" d="M327.425,269.165l-65.407,34.293l73.07,38.309l65.408-34.292L327.425,269.165z"/>
		
			<path fill="none" stroke="#000000" stroke-width="0.589" stroke-linecap="round" stroke-linejoin="round" stroke-miterlimit="10" d="
			M327.425,269.165l-65.407,34.293l73.07,38.309l65.408-34.292L327.425,269.165z"/>
		<path fill="#FFFFFF" d="M309.163,259.59l91.333,47.885v-95.768l-91.333-47.884V259.59z"/>
		
			<path fill="none" stroke="#000000" stroke-width="0.589" stroke-linecap="round" stroke-linejoin="round" stroke-miterlimit="10" d="
			M309.163,259.59l91.333,47.885v-95.768l-91.333-47.884V259.59z"/>
		<path fill="#FFFFFF" d="M335.395,222.303l-20.047,10.512v119.302l20.047-10.511V222.303z"/>
		
			<path fill="none" stroke="#000000" stroke-width="0.589" stroke-linecap="round" stroke-linejoin="round" stroke-miterlimit="10" d="
			M335.395,222.303l-20.047,10.512v119.302l20.047-10.511V222.303z"/>
		<path fill="#FFFFFF" d="M283.867,216.309l-43.697,22.912v119.302l43.697-22.91V216.309z"/>
		
			<path fill="none" stroke="#000000" stroke-width="0.589" stroke-linecap="round" stroke-linejoin="round" stroke-miterlimit="10" d="
			M283.867,216.309l-43.697,22.912v119.302l43.697-22.91V216.309z"/>
		<path fill="#FFFFFF" d="M531.223,59.43c0,0-50.559,181.144-80.879,176.393c-15.643-2.453-7.41-3.886-7.41-3.886
			c26.608,24.551,90.282-170.51,85.592-173.921L531.223,59.43z"/>
		
			<path fill="none" stroke="#000000" stroke-width="0.589" stroke-linecap="round" stroke-linejoin="round" stroke-miterlimit="10" d="
			M531.223,59.43c0,0-50.559,181.144-80.879,176.393c-15.643-2.453-7.41-3.886-7.41-3.886
			c26.608,24.551,90.282-170.51,85.592-173.921L531.223,59.43z"/>
		<path fill="#FFFFFF" d="M315.348,232.815l-32.363-16.968v119.302l32.363,16.968V232.815z"/>
		
			<path fill="none" stroke="#000000" stroke-width="0.589" stroke-linecap="round" stroke-linejoin="round" stroke-miterlimit="10" d="
			M315.348,232.815l-32.363-16.968v119.302l32.363,16.968V232.815z"/>
		<path fill="#FFFFFF" d="M185.649,323.616v-4.46l-12.696,6.654v4.462l-12.506,6.556v4.473l25.206-13.216v-4.472L185.649,323.616z"
			/>
		
			<path fill="none" stroke="#000000" stroke-width="0.589" stroke-linecap="round" stroke-linejoin="round" stroke-miterlimit="10" d="
			M185.649,323.616v-4.46l-12.696,6.654v4.462l-12.506,6.556v4.473l25.206-13.216v-4.472L185.649,323.616z"/>
		<path fill="#FFFFFF" d="M136.644,311.149l-12.292,6.444l36.39,19.078l12.295-6.444L136.644,311.149z"/>
		
			<path fill="none" stroke="#000000" stroke-width="0.589" stroke-linecap="round" stroke-linejoin="round" stroke-miterlimit="10" d="
			M136.644,311.149l-12.292,6.444l36.39,19.078l12.295-6.444L136.644,311.149z"/>
		<path fill="#FFFFFF" d="M149.145,300.012l-12.501,6.555l36.508,19.141l12.501-6.553L149.145,300.012z"/>
		
			<path fill="none" stroke="#000000" stroke-width="0.589" stroke-linecap="round" stroke-linejoin="round" stroke-miterlimit="10" d="
			M149.145,300.012l-12.501,6.555l36.508,19.141l12.501-6.553L149.145,300.012z"/>
		<path fill="#FFFFFF" d="M160.736,336.669l-36.384-19.075v4.689l36.384,19.076V336.669z"/>
		
			<path fill="none" stroke="#000000" stroke-width="0.589" stroke-linecap="round" stroke-linejoin="round" stroke-miterlimit="10" d="
			M160.736,336.669l-36.384-19.075v4.689l36.384,19.076V336.669z"/>
		<path fill="#FFFFFF" d="M173.242,325.754l-36.598-19.188v4.583l36.598,19.186V325.754z"/>
		
			<path fill="none" stroke="#000000" stroke-width="0.589" stroke-linecap="round" stroke-linejoin="round" stroke-miterlimit="10" d="
			M173.242,325.754l-36.598-19.188v4.583l36.598,19.186V325.754z"/>
		<path fill="#FFFFFF" d="M165.548,152.357l116.826,123.192c0.353,2.715,0.383,5.473,0,8.281L163.142,159.655l-68.238,18.406v-2.455
			L165.548,152.357z"/>
		
			<path fill="none" stroke="#000000" stroke-width="0.589" stroke-linecap="round" stroke-linejoin="round" stroke-miterlimit="10" d="
			M165.548,152.357l116.826,123.192c0.353,2.715,0.383,5.473,0,8.281L163.142,159.655l-68.238,18.406v-2.455L165.548,152.357z"/>
		<path fill="#FFFFFF" d="M473.203,175.502l-190.83,100.047v8.281l190.83-100.047V175.502z"/>
		
			<path fill="none" stroke="#000000" stroke-width="0.589" stroke-linecap="round" stroke-linejoin="round" stroke-miterlimit="10" d="
			M473.203,175.502l-190.83,100.047v8.281l190.83-100.047V175.502z"/>
		<path fill="#FFFFFF" d="M247.962,432.755L10.27,308.137v12.375L247.962,445.13V432.755z"/>
		
			<path fill="none" stroke="#000000" stroke-width="0.589" stroke-linecap="round" stroke-linejoin="round" stroke-miterlimit="10" d="
			M247.962,432.755L10.27,308.137v12.375L247.962,445.13V432.755z"/>
		<path fill="#FFFFFF" d="M357.288,51.83l-192.14,100.736l117.225,122.983l190.83-100.048L357.288,51.83z"/>
		
			<path fill="none" stroke="#000000" stroke-width="0.589" stroke-linecap="round" stroke-linejoin="round" stroke-miterlimit="10" d="
			M357.288,51.83l-192.14,100.736l117.225,122.983l190.83-100.048L357.288,51.83z"/>
		<path fill="#FFFFFF" d="M293.66,243.059l147.088-77.117v1.856L293.66,244.914V243.059z"/>
		
			<path fill="none" stroke="#000000" stroke-width="0.589" stroke-linecap="round" stroke-linejoin="round" stroke-miterlimit="10" d="
			M293.66,243.059l147.088-77.117v1.856L293.66,244.914V243.059z"/>
		<path fill="#FFFFFF" d="M282.373,77.318L94.904,175.606l70.461-23.155l190.83-100.049L282.373,77.318z"/>
		
			<path fill="none" stroke="#000000" stroke-width="0.589" stroke-linecap="round" stroke-linejoin="round" stroke-miterlimit="10" d="
			M282.373,77.318L94.904,175.606l70.461-23.155l190.83-100.049L282.373,77.318z"/>
		<path fill="#FFFFFF" d="M395.064,118.082l0.642,0.701l-146.804,77.398l-0.91-0.99L395.064,118.082z"/>
		
			<path fill="none" stroke="#000000" stroke-width="0.589" stroke-linecap="round" stroke-linejoin="round" stroke-miterlimit="10" d="
			M395.064,118.082l0.642,0.701l-146.804,77.398l-0.91-0.99L395.064,118.082z"/>
		<path fill="#FFFFFF" d="M350.059,70.949l45.043,47.158L248,195.23l-45.05-47.121L350.059,70.949z"/>
		
			<path fill="none" stroke="#000000" stroke-width="0.589" stroke-linecap="round" stroke-linejoin="round" stroke-miterlimit="10" d="
			M350.059,70.949l45.043,47.158L248,195.23l-45.05-47.121L350.059,70.949z"/>
		<path fill="#FFFFFF" d="M395.706,118.77l45.042,47.158L293.646,243.05l-45.05-47.118L395.706,118.77z"/>
		
			<path fill="none" stroke="#000000" stroke-width="0.589" stroke-linecap="round" stroke-linejoin="round" stroke-miterlimit="10" d="
			M395.706,118.77l45.042,47.158L293.646,243.05l-45.05-47.118L395.706,118.77z"/>
		<path fill="#FFFFFF" d="M284.613,177.029l-36.017,18.881l45.064,47.148l35.996-18.873L284.613,177.029z"/>
		
			<path fill="none" stroke="#000000" stroke-width="0.589" stroke-linecap="round" stroke-linejoin="round" stroke-miterlimit="10" d="
			M284.613,177.029l-36.017,18.881l45.064,47.148l35.996-18.873L284.613,177.029z"/>
		<path fill="#FFFFFF" d="M261.336,192.451l-7.751,4.063l9.712,10.218l7.664-3.962L261.336,192.451z"/>
		
			<path fill="none" stroke="#000000" stroke-width="0.589" stroke-linecap="round" stroke-linejoin="round" stroke-miterlimit="10" d="
			M261.336,192.451l-7.751,4.063l9.712,10.218l7.664-3.962L261.336,192.451z"/>
		<path fill="#FFFFFF" d="M271.557,203.483l-7.75,4.063l9.712,10.218l7.662-3.961L271.557,203.483z"/>
		
			<path fill="none" stroke="#000000" stroke-width="0.589" stroke-linecap="round" stroke-linejoin="round" stroke-miterlimit="10" d="
			M271.557,203.483l-7.75,4.063l9.712,10.218l7.662-3.961L271.557,203.483z"/>
		<path fill="#FFFFFF" d="M282.116,214.528l-7.751,4.063l9.712,10.218l7.663-3.962L282.116,214.528z"/>
		
			<path fill="none" stroke="#000000" stroke-width="0.589" stroke-linecap="round" stroke-linejoin="round" stroke-miterlimit="10" d="
			M282.116,214.528l-7.751,4.063l9.712,10.218l7.663-3.962L282.116,214.528z"/>
		<path fill="#FFFFFF" d="M292.096,225.724l-7.751,4.064l9.712,10.217l7.663-3.962L292.096,225.724z"/>
		
			<path fill="none" stroke="#000000" stroke-width="0.589" stroke-linecap="round" stroke-linejoin="round" stroke-miterlimit="10" d="
			M292.096,225.724l-7.751,4.064l9.712,10.217l7.663-3.962L292.096,225.724z"/>
		<path fill="#FFFFFF" d="M269.395,188.226l-7.749,4.063l9.712,10.218l7.662-3.963L269.395,188.226z"/>
		
			<path fill="none" stroke="#000000" stroke-width="0.589" stroke-linecap="round" stroke-linejoin="round" stroke-miterlimit="10" d="
			M269.395,188.226l-7.749,4.063l9.712,10.218l7.662-3.963L269.395,188.226z"/>
		<path fill="#FFFFFF" d="M279.617,199.259l-7.75,4.063l9.711,10.218l7.664-3.964L279.617,199.259z"/>
		
			<path fill="none" stroke="#000000" stroke-width="0.589" stroke-linecap="round" stroke-linejoin="round" stroke-miterlimit="10" d="
			M279.617,199.259l-7.75,4.063l9.711,10.218l7.664-3.964L279.617,199.259z"/>
		<path fill="#FFFFFF" d="M290.175,210.303l-7.749,4.064l9.712,10.217l7.662-3.962L290.175,210.303z"/>
		
			<path fill="none" stroke="#000000" stroke-width="0.589" stroke-linecap="round" stroke-linejoin="round" stroke-miterlimit="10" d="
			M290.175,210.303l-7.749,4.064l9.712,10.217l7.662-3.962L290.175,210.303z"/>
		<path fill="#FFFFFF" d="M300.155,221.499l-7.749,4.063l9.712,10.219l7.662-3.963L300.155,221.499z"/>
		
			<path fill="none" stroke="#000000" stroke-width="0.589" stroke-linecap="round" stroke-linejoin="round" stroke-miterlimit="10" d="
			M300.155,221.499l-7.749,4.063l9.712,10.219l7.662-3.963L300.155,221.499z"/>
		<path fill="#FFFFFF" d="M277.363,184.049l-7.749,4.062l9.712,10.219l7.662-3.963L277.363,184.049z"/>
		
			<path fill="none" stroke="#000000" stroke-width="0.589" stroke-linecap="round" stroke-linejoin="round" stroke-miterlimit="10" d="
			M277.363,184.049l-7.749,4.062l9.712,10.219l7.662-3.963L277.363,184.049z"/>
		<path fill="#FFFFFF" d="M287.585,195.081l-7.75,4.063l9.712,10.218l7.663-3.963L287.585,195.081z"/>
		
			<path fill="none" stroke="#000000" stroke-width="0.589" stroke-linecap="round" stroke-linejoin="round" stroke-miterlimit="10" d="
			M287.585,195.081l-7.75,4.063l9.712,10.218l7.663-3.963L287.585,195.081z"/>
		<path fill="#FFFFFF" d="M298.143,206.126l-7.749,4.063l9.712,10.218l7.663-3.963L298.143,206.126z"/>
		
			<path fill="none" stroke="#000000" stroke-width="0.589" stroke-linecap="round" stroke-linejoin="round" stroke-miterlimit="10" d="
			M298.143,206.126l-7.749,4.063l9.712,10.218l7.663-3.963L298.143,206.126z"/>
		<path fill="#FFFFFF" d="M308.123,217.321l-7.749,4.064l9.712,10.217l7.663-3.961L308.123,217.321z"/>
		
			<path fill="none" stroke="#000000" stroke-width="0.589" stroke-linecap="round" stroke-linejoin="round" stroke-miterlimit="10" d="
			M308.123,217.321l-7.749,4.064l9.712,10.217l7.663-3.961L308.123,217.321z"/>
		<path fill="#FFFFFF" d="M285.35,179.86l-7.749,4.064l9.712,10.218l7.663-3.964L285.35,179.86z"/>
		
			<path fill="none" stroke="#000000" stroke-width="0.589" stroke-linecap="round" stroke-linejoin="round" stroke-miterlimit="10" d="
			M285.35,179.86l-7.749,4.064l9.712,10.218l7.663-3.964L285.35,179.86z"/>
		<path fill="#FFFFFF" d="M295.573,190.892l-7.751,4.064l9.712,10.218l7.663-3.963L295.573,190.892z"/>
		
			<path fill="none" stroke="#000000" stroke-width="0.589" stroke-linecap="round" stroke-linejoin="round" stroke-miterlimit="10" d="
			M295.573,190.892l-7.751,4.064l9.712,10.218l7.663-3.963L295.573,190.892z"/>
		<path fill="#FFFFFF" d="M306.13,201.939l-7.749,4.062l9.712,10.219l7.663-3.965L306.13,201.939z"/>
		
			<path fill="none" stroke="#000000" stroke-width="0.589" stroke-linecap="round" stroke-linejoin="round" stroke-miterlimit="10" d="
			M306.13,201.939l-7.749,4.062l9.712,10.219l7.663-3.965L306.13,201.939z"/>
		<path fill="#FFFFFF" d="M316.109,213.135l-7.749,4.063l9.712,10.218l7.663-3.963L316.109,213.135z"/>
		
			<path fill="none" stroke="#000000" stroke-width="0.589" stroke-linecap="round" stroke-linejoin="round" stroke-miterlimit="10" d="
			M316.109,213.135l-7.749,4.063l9.712,10.218l7.663-3.963L316.109,213.135z"/>
		<path fill="#FFFFFF" d="M358.589,138.245l-36.017,18.881l45.062,47.148l35.996-18.872L358.589,138.245z"/>
		
			<path fill="none" stroke="#000000" stroke-width="0.589" stroke-linecap="round" stroke-linejoin="round" stroke-miterlimit="10" d="
			M358.589,138.245l-36.017,18.881l45.062,47.148l35.996-18.872L358.589,138.245z"/>
		<path fill="#FFFFFF" d="M335.311,153.667l-7.75,4.063l9.711,10.218l7.664-3.963L335.311,153.667z"/>
		
			<path fill="none" stroke="#000000" stroke-width="0.589" stroke-linecap="round" stroke-linejoin="round" stroke-miterlimit="10" d="
			M335.311,153.667l-7.75,4.063l9.711,10.218l7.664-3.963L335.311,153.667z"/>
		<path fill="#FFFFFF" d="M345.531,164.7l-7.748,4.063l9.709,10.218l7.665-3.962L345.531,164.7z"/>
		
			<path fill="none" stroke="#000000" stroke-width="0.589" stroke-linecap="round" stroke-linejoin="round" stroke-miterlimit="10" d="
			M345.531,164.7l-7.748,4.063l9.709,10.218l7.665-3.962L345.531,164.7z"/>
		<path fill="#FFFFFF" d="M356.091,175.744l-7.75,4.064l9.711,10.218l7.664-3.963L356.091,175.744z"/>
		
			<path fill="none" stroke="#000000" stroke-width="0.589" stroke-linecap="round" stroke-linejoin="round" stroke-miterlimit="10" d="
			M356.091,175.744l-7.75,4.064l9.711,10.218l7.664-3.963L356.091,175.744z"/>
		<path fill="#FFFFFF" d="M366.071,186.942l-7.75,4.062l9.711,10.219l7.664-3.964L366.071,186.942z"/>
		
			<path fill="none" stroke="#000000" stroke-width="0.589" stroke-linecap="round" stroke-linejoin="round" stroke-miterlimit="10" d="
			M366.071,186.942l-7.75,4.062l9.711,10.219l7.664-3.964L366.071,186.942z"/>
		<path fill="#FFFFFF" d="M343.37,149.441l-7.75,4.064l9.713,10.218l7.662-3.962L343.37,149.441z"/>
		
			<path fill="none" stroke="#000000" stroke-width="0.589" stroke-linecap="round" stroke-linejoin="round" stroke-miterlimit="10" d="
			M343.37,149.441l-7.75,4.064l9.713,10.218l7.662-3.962L343.37,149.441z"/>
		<path fill="#FFFFFF" d="M353.592,160.475l-7.751,4.064l9.712,10.218l7.664-3.964L353.592,160.475z"/>
		
			<path fill="none" stroke="#000000" stroke-width="0.589" stroke-linecap="round" stroke-linejoin="round" stroke-miterlimit="10" d="
			M353.592,160.475l-7.751,4.064l9.712,10.218l7.664-3.964L353.592,160.475z"/>
		<path fill="#FFFFFF" d="M364.15,171.518l-7.75,4.065l9.711,10.218l7.664-3.963L364.15,171.518z"/>
		
			<path fill="none" stroke="#000000" stroke-width="0.589" stroke-linecap="round" stroke-linejoin="round" stroke-miterlimit="10" d="
			M364.15,171.518l-7.75,4.065l9.711,10.218l7.664-3.963L364.15,171.518z"/>
		<path fill="#FFFFFF" d="M374.131,182.715l-7.751,4.064l9.711,10.218l7.664-3.963L374.131,182.715z"/>
		
			<path fill="none" stroke="#000000" stroke-width="0.589" stroke-linecap="round" stroke-linejoin="round" stroke-miterlimit="10" d="
			M374.131,182.715l-7.751,4.064l9.711,10.218l7.664-3.963L374.131,182.715z"/>
		<path fill="#FFFFFF" d="M351.339,145.264l-7.752,4.063l9.712,10.219l7.664-3.963L351.339,145.264z"/>
		
			<path fill="none" stroke="#000000" stroke-width="0.589" stroke-linecap="round" stroke-linejoin="round" stroke-miterlimit="10" d="
			M351.339,145.264l-7.752,4.063l9.712,10.219l7.664-3.963L351.339,145.264z"/>
		<path fill="#FFFFFF" d="M361.561,156.298l-7.75,4.063l9.711,10.218l7.662-3.963L361.561,156.298z"/>
		
			<path fill="none" stroke="#000000" stroke-width="0.589" stroke-linecap="round" stroke-linejoin="round" stroke-miterlimit="10" d="
			M361.561,156.298l-7.75,4.063l9.711,10.218l7.662-3.963L361.561,156.298z"/>
		<path fill="#FFFFFF" d="M372.119,167.341l-7.752,4.065l9.712,10.218l7.663-3.964L372.119,167.341z"/>
		
			<path fill="none" stroke="#000000" stroke-width="0.589" stroke-linecap="round" stroke-linejoin="round" stroke-miterlimit="10" d="
			M372.119,167.341l-7.752,4.065l9.712,10.218l7.663-3.964L372.119,167.341z"/>
		<path fill="#FFFFFF" d="M382.1,178.538l-7.752,4.063l9.711,10.218l7.664-3.962L382.1,178.538z"/>
		
			<path fill="none" stroke="#000000" stroke-width="0.589" stroke-linecap="round" stroke-linejoin="round" stroke-miterlimit="10" d="
			M382.1,178.538l-7.752,4.063l9.711,10.218l7.664-3.962L382.1,178.538z"/>
		<path fill="#FFFFFF" d="M359.325,141.077l-7.749,4.063l9.711,10.219l7.664-3.965L359.325,141.077z"/>
		
			<path fill="none" stroke="#000000" stroke-width="0.589" stroke-linecap="round" stroke-linejoin="round" stroke-miterlimit="10" d="
			M359.325,141.077l-7.749,4.063l9.711,10.219l7.664-3.965L359.325,141.077z"/>
		<path fill="#FFFFFF" d="M369.546,152.11l-7.749,4.063l9.712,10.218l7.662-3.964L369.546,152.11z"/>
		
			<path fill="none" stroke="#000000" stroke-width="0.589" stroke-linecap="round" stroke-linejoin="round" stroke-miterlimit="10" d="
			M369.546,152.11l-7.749,4.063l9.712,10.218l7.662-3.964L369.546,152.11z"/>
		<path fill="#FFFFFF" d="M380.105,163.155l-7.75,4.063l9.713,10.218l7.662-3.964L380.105,163.155z"/>
		
			<path fill="none" stroke="#000000" stroke-width="0.589" stroke-linecap="round" stroke-linejoin="round" stroke-miterlimit="10" d="
			M380.105,163.155l-7.75,4.063l9.713,10.218l7.662-3.964L380.105,163.155z"/>
		<path fill="#FFFFFF" d="M390.085,174.351l-7.749,4.063l9.712,10.218l7.663-3.962L390.085,174.351z"/>
		
			<path fill="none" stroke="#000000" stroke-width="0.589" stroke-linecap="round" stroke-linejoin="round" stroke-miterlimit="10" d="
			M390.085,174.351l-7.749,4.063l9.712,10.218l7.663-3.962L390.085,174.351z"/>
		<path fill="#FFFFFF" d="M321.732,157.568l-36.018,18.882l45.063,47.147l35.996-18.872L321.732,157.568z"/>
		
			<path fill="none" stroke="#000000" stroke-width="0.589" stroke-linecap="round" stroke-linejoin="round" stroke-miterlimit="10" d="
			M321.732,157.568l-36.018,18.882l45.063,47.147l35.996-18.872L321.732,157.568z"/>
		<path fill="#FFFFFF" d="M298.453,172.99l-7.749,4.064l9.712,10.218l7.663-3.964L298.453,172.99z"/>
		
			<path fill="none" stroke="#000000" stroke-width="0.589" stroke-linecap="round" stroke-linejoin="round" stroke-miterlimit="10" d="
			M298.453,172.99l-7.749,4.064l9.712,10.218l7.663-3.964L298.453,172.99z"/>
		<path fill="#FFFFFF" d="M308.675,184.024l-7.75,4.062l9.712,10.219l7.664-3.963L308.675,184.024z"/>
		
			<path fill="none" stroke="#000000" stroke-width="0.589" stroke-linecap="round" stroke-linejoin="round" stroke-miterlimit="10" d="
			M308.675,184.024l-7.75,4.062l9.712,10.219l7.664-3.963L308.675,184.024z"/>
		<path fill="#FFFFFF" d="M319.232,195.068l-7.748,4.063l9.711,10.218l7.663-3.963L319.232,195.068z"/>
		
			<path fill="none" stroke="#000000" stroke-width="0.589" stroke-linecap="round" stroke-linejoin="round" stroke-miterlimit="10" d="
			M319.232,195.068l-7.748,4.063l9.711,10.218l7.663-3.963L319.232,195.068z"/>
		<path fill="#FFFFFF" d="M329.213,206.265l-7.748,4.063l9.712,10.218l7.662-3.963L329.213,206.265z"/>
		
			<path fill="none" stroke="#000000" stroke-width="0.589" stroke-linecap="round" stroke-linejoin="round" stroke-miterlimit="10" d="
			M329.213,206.265l-7.748,4.063l9.712,10.218l7.662-3.963L329.213,206.265z"/>
		<path fill="#FFFFFF" d="M306.514,168.764l-7.752,4.064l9.712,10.218l7.665-3.962L306.514,168.764z"/>
		
			<path fill="none" stroke="#000000" stroke-width="0.589" stroke-linecap="round" stroke-linejoin="round" stroke-miterlimit="10" d="
			M306.514,168.764l-7.752,4.064l9.712,10.218l7.665-3.962L306.514,168.764z"/>
		<path fill="#FFFFFF" d="M316.734,179.798l-7.75,4.064l9.713,10.218l7.66-3.963L316.734,179.798z"/>
		
			<path fill="none" stroke="#000000" stroke-width="0.589" stroke-linecap="round" stroke-linejoin="round" stroke-miterlimit="10" d="
			M316.734,179.798l-7.75,4.064l9.713,10.218l7.66-3.963L316.734,179.798z"/>
		<path fill="#FFFFFF" d="M327.294,190.842l-7.751,4.063l9.711,10.218l7.664-3.961L327.294,190.842z"/>
		
			<path fill="none" stroke="#000000" stroke-width="0.589" stroke-linecap="round" stroke-linejoin="round" stroke-miterlimit="10" d="
			M327.294,190.842l-7.751,4.063l9.711,10.218l7.664-3.961L327.294,190.842z"/>
		<path fill="#FFFFFF" d="M337.273,202.039l-7.75,4.063l9.711,10.218l7.664-3.963L337.273,202.039z"/>
		
			<path fill="none" stroke="#000000" stroke-width="0.589" stroke-linecap="round" stroke-linejoin="round" stroke-miterlimit="10" d="
			M337.273,202.039l-7.75,4.063l9.711,10.218l7.664-3.963L337.273,202.039z"/>
		<path fill="#FFFFFF" d="M314.482,164.587l-7.751,4.064l9.712,10.218l7.662-3.963L314.482,164.587z"/>
		
			<path fill="none" stroke="#000000" stroke-width="0.589" stroke-linecap="round" stroke-linejoin="round" stroke-miterlimit="10" d="
			M314.482,164.587l-7.751,4.064l9.712,10.218l7.662-3.963L314.482,164.587z"/>
		<path fill="#FFFFFF" d="M324.704,175.621l-7.752,4.063l9.713,10.218l7.662-3.963L324.704,175.621z"/>
		
			<path fill="none" stroke="#000000" stroke-width="0.589" stroke-linecap="round" stroke-linejoin="round" stroke-miterlimit="10" d="
			M324.704,175.621l-7.752,4.063l9.713,10.218l7.662-3.963L324.704,175.621z"/>
		<path fill="#FFFFFF" d="M335.262,186.665l-7.75,4.063l9.711,10.218l7.663-3.963L335.262,186.665z"/>
		
			<path fill="none" stroke="#000000" stroke-width="0.589" stroke-linecap="round" stroke-linejoin="round" stroke-miterlimit="10" d="
			M335.262,186.665l-7.75,4.063l9.711,10.218l7.663-3.963L335.262,186.665z"/>
		<path fill="#FFFFFF" d="M345.242,197.862l-7.75,4.062l9.711,10.218l7.663-3.962L345.242,197.862z"/>
		
			<path fill="none" stroke="#000000" stroke-width="0.589" stroke-linecap="round" stroke-linejoin="round" stroke-miterlimit="10" d="
			M345.242,197.862l-7.75,4.062l9.711,10.218l7.663-3.962L345.242,197.862z"/>
		<path fill="#FFFFFF" d="M322.469,160.401l-7.75,4.062l9.711,10.219l7.663-3.963L322.469,160.401z"/>
		
			<path fill="none" stroke="#000000" stroke-width="0.589" stroke-linecap="round" stroke-linejoin="round" stroke-miterlimit="10" d="
			M322.469,160.401l-7.75,4.062l9.711,10.219l7.663-3.963L322.469,160.401z"/>
		<path fill="#FFFFFF" d="M332.689,171.433l-7.75,4.064l9.713,10.217l7.662-3.963L332.689,171.433z"/>
		
			<path fill="none" stroke="#000000" stroke-width="0.589" stroke-linecap="round" stroke-linejoin="round" stroke-miterlimit="10" d="
			M332.689,171.433l-7.75,4.064l9.713,10.217l7.662-3.963L332.689,171.433z"/>
		<path fill="#FFFFFF" d="M343.249,182.478l-7.751,4.063l9.712,10.218l7.663-3.963L343.249,182.478z"/>
		
			<path fill="none" stroke="#000000" stroke-width="0.589" stroke-linecap="round" stroke-linejoin="round" stroke-miterlimit="10" d="
			M343.249,182.478l-7.751,4.063l9.712,10.218l7.663-3.963L343.249,182.478z"/>
		<path fill="#FFFFFF" d="M353.229,193.673l-7.75,4.064l9.711,10.217l7.664-3.961L353.229,193.673z"/>
		
			<path fill="none" stroke="#000000" stroke-width="0.589" stroke-linecap="round" stroke-linejoin="round" stroke-miterlimit="10" d="
			M353.229,193.673l-7.75,4.064l9.711,10.217l7.664-3.961L353.229,193.673z"/>
		<path fill="#FFFFFF" d="M395.706,118.783l-36.019,18.884l45.065,47.147l35.995-18.872L395.706,118.783z"/>
		
			<path fill="none" stroke="#000000" stroke-width="0.589" stroke-linecap="round" stroke-linejoin="round" stroke-miterlimit="10" d="
			M395.706,118.783l-36.019,18.884l45.065,47.147l35.995-18.872L395.706,118.783z"/>
		<path fill="#FFFFFF" d="M372.429,134.207l-7.75,4.063l9.712,10.218l7.662-3.963L372.429,134.207z"/>
		
			<path fill="none" stroke="#000000" stroke-width="0.589" stroke-linecap="round" stroke-linejoin="round" stroke-miterlimit="10" d="
			M372.429,134.207l-7.75,4.063l9.712,10.218l7.662-3.963L372.429,134.207z"/>
		<path fill="#FFFFFF" d="M382.648,145.24l-7.75,4.063l9.713,10.218l7.662-3.963L382.648,145.24z"/>
		
			<path fill="none" stroke="#000000" stroke-width="0.589" stroke-linecap="round" stroke-linejoin="round" stroke-miterlimit="10" d="
			M382.648,145.24l-7.75,4.063l9.713,10.218l7.662-3.963L382.648,145.24z"/>
		<path fill="#FFFFFF" d="M393.209,156.285l-7.75,4.062l9.711,10.218l7.664-3.962L393.209,156.285z"/>
		
			<path fill="none" stroke="#000000" stroke-width="0.589" stroke-linecap="round" stroke-linejoin="round" stroke-miterlimit="10" d="
			M393.209,156.285l-7.75,4.062l9.711,10.218l7.664-3.962L393.209,156.285z"/>
		<path fill="#FFFFFF" d="M403.189,167.482l-7.75,4.062l9.711,10.219l7.664-3.964L403.189,167.482z"/>
		
			<path fill="none" stroke="#000000" stroke-width="0.589" stroke-linecap="round" stroke-linejoin="round" stroke-miterlimit="10" d="
			M403.189,167.482l-7.75,4.062l9.711,10.219l7.664-3.964L403.189,167.482z"/>
		<path fill="#FFFFFF" d="M380.488,129.981l-7.749,4.063l9.711,10.218l7.663-3.962L380.488,129.981z"/>
		
			<path fill="none" stroke="#000000" stroke-width="0.589" stroke-linecap="round" stroke-linejoin="round" stroke-miterlimit="10" d="
			M380.488,129.981l-7.749,4.063l9.711,10.218l7.663-3.962L380.488,129.981z"/>
		<path fill="#FFFFFF" d="M390.709,141.014l-7.749,4.063l9.71,10.218l7.665-3.962L390.709,141.014z"/>
		
			<path fill="none" stroke="#000000" stroke-width="0.589" stroke-linecap="round" stroke-linejoin="round" stroke-miterlimit="10" d="
			M390.709,141.014l-7.749,4.063l9.71,10.218l7.665-3.962L390.709,141.014z"/>
		<path fill="#FFFFFF" d="M401.268,152.058l-7.748,4.063l9.711,10.218l7.662-3.961L401.268,152.058z"/>
		
			<path fill="none" stroke="#000000" stroke-width="0.589" stroke-linecap="round" stroke-linejoin="round" stroke-miterlimit="10" d="
			M401.268,152.058l-7.748,4.063l9.711,10.218l7.662-3.961L401.268,152.058z"/>
		<path fill="#FFFFFF" d="M411.248,163.255l-7.749,4.064l9.711,10.217l7.664-3.963L411.248,163.255z"/>
		
			<path fill="none" stroke="#000000" stroke-width="0.589" stroke-linecap="round" stroke-linejoin="round" stroke-miterlimit="10" d="
			M411.248,163.255l-7.749,4.064l9.711,10.217l7.664-3.963L411.248,163.255z"/>
		<path fill="#FFFFFF" d="M388.456,125.803l-7.749,4.064l9.711,10.218l7.664-3.963L388.456,125.803z"/>
		
			<path fill="none" stroke="#000000" stroke-width="0.589" stroke-linecap="round" stroke-linejoin="round" stroke-miterlimit="10" d="
			M388.456,125.803l-7.749,4.064l9.711,10.218l7.664-3.963L388.456,125.803z"/>
		<path fill="#FFFFFF" d="M398.677,136.837l-7.75,4.063l9.712,10.218l7.663-3.962L398.677,136.837z"/>
		
			<path fill="none" stroke="#000000" stroke-width="0.589" stroke-linecap="round" stroke-linejoin="round" stroke-miterlimit="10" d="
			M398.677,136.837l-7.75,4.063l9.712,10.218l7.663-3.962L398.677,136.837z"/>
		<path fill="#FFFFFF" d="M409.236,147.881l-7.75,4.063l9.712,10.218l7.663-3.962L409.236,147.881z"/>
		
			<path fill="none" stroke="#000000" stroke-width="0.589" stroke-linecap="round" stroke-linejoin="round" stroke-miterlimit="10" d="
			M409.236,147.881l-7.75,4.063l9.712,10.218l7.663-3.962L409.236,147.881z"/>
		<path fill="#FFFFFF" d="M419.217,159.078l-7.751,4.062l9.712,10.219l7.664-3.963L419.217,159.078z"/>
		
			<path fill="none" stroke="#000000" stroke-width="0.589" stroke-linecap="round" stroke-linejoin="round" stroke-miterlimit="10" d="
			M419.217,159.078l-7.751,4.062l9.712,10.219l7.664-3.963L419.217,159.078z"/>
		<path fill="#FFFFFF" d="M396.443,121.617l-7.75,4.063l9.713,10.218l7.662-3.963L396.443,121.617z"/>
		
			<path fill="none" stroke="#000000" stroke-width="0.589" stroke-linecap="round" stroke-linejoin="round" stroke-miterlimit="10" d="
			M396.443,121.617l-7.75,4.063l9.713,10.218l7.662-3.963L396.443,121.617z"/>
		<path fill="#FFFFFF" d="M406.665,132.65l-7.751,4.063l9.712,10.218l7.664-3.964L406.665,132.65z"/>
		
			<path fill="none" stroke="#000000" stroke-width="0.589" stroke-linecap="round" stroke-linejoin="round" stroke-miterlimit="10" d="
			M406.665,132.65l-7.751,4.063l9.712,10.218l7.664-3.964L406.665,132.65z"/>
		<path fill="#FFFFFF" d="M417.225,143.694l-7.752,4.064l9.713,10.218l7.662-3.964L417.225,143.694z"/>
		
			<path fill="none" stroke="#000000" stroke-width="0.589" stroke-linecap="round" stroke-linejoin="round" stroke-miterlimit="10" d="
			M417.225,143.694l-7.752,4.064l9.713,10.218l7.662-3.964L417.225,143.694z"/>
		<path fill="#FFFFFF" d="M427.204,154.89l-7.751,4.063l9.713,10.219l7.662-3.963L427.204,154.89z"/>
		
			<path fill="none" stroke="#000000" stroke-width="0.589" stroke-linecap="round" stroke-linejoin="round" stroke-miterlimit="10" d="
			M427.204,154.89l-7.751,4.063l9.713,10.219l7.662-3.963L427.204,154.89z"/>
		<path fill="#FFFFFF" d="M238.968,129.192l-36.018,18.883l45.064,47.148l35.995-18.872L238.968,129.192z"/>
		
			<path fill="none" stroke="#000000" stroke-width="0.589" stroke-linecap="round" stroke-linejoin="round" stroke-miterlimit="10" d="
			M238.968,129.192l-36.018,18.883l45.064,47.148l35.995-18.872L238.968,129.192z"/>
		<path fill="#FFFFFF" d="M215.69,144.616l-7.751,4.064l9.712,10.217l7.663-3.964L215.69,144.616z"/>
		
			<path fill="none" stroke="#000000" stroke-width="0.589" stroke-linecap="round" stroke-linejoin="round" stroke-miterlimit="10" d="
			M215.69,144.616l-7.751,4.064l9.712,10.217l7.663-3.964L215.69,144.616z"/>
		<path fill="#FFFFFF" d="M225.911,155.648l-7.751,4.063l9.712,10.219l7.663-3.964L225.911,155.648z"/>
		
			<path fill="none" stroke="#000000" stroke-width="0.589" stroke-linecap="round" stroke-linejoin="round" stroke-miterlimit="10" d="
			M225.911,155.648l-7.751,4.063l9.712,10.219l7.663-3.964L225.911,155.648z"/>
		<path fill="#FFFFFF" d="M236.47,166.693l-7.751,4.064l9.712,10.218l7.663-3.964L236.47,166.693z"/>
		
			<path fill="none" stroke="#000000" stroke-width="0.589" stroke-linecap="round" stroke-linejoin="round" stroke-miterlimit="10" d="
			M236.47,166.693l-7.751,4.064l9.712,10.218l7.663-3.964L236.47,166.693z"/>
		<path fill="#FFFFFF" d="M246.45,177.89l-7.751,4.063l9.712,10.218l7.664-3.964L246.45,177.89z"/>
		
			<path fill="none" stroke="#000000" stroke-width="0.589" stroke-linecap="round" stroke-linejoin="round" stroke-miterlimit="10" d="
			M246.45,177.89l-7.751,4.063l9.712,10.218l7.664-3.964L246.45,177.89z"/>
		<path fill="#FFFFFF" d="M223.748,140.389L216,144.453l9.712,10.218l7.662-3.963L223.748,140.389z"/>
		
			<path fill="none" stroke="#000000" stroke-width="0.589" stroke-linecap="round" stroke-linejoin="round" stroke-miterlimit="10" d="
			M223.748,140.389L216,144.453l9.712,10.218l7.662-3.963L223.748,140.389z"/>
		<path fill="#FFFFFF" d="M233.97,151.422l-7.75,4.064l9.712,10.218l7.664-3.963L233.97,151.422z"/>
		
			<path fill="none" stroke="#000000" stroke-width="0.589" stroke-linecap="round" stroke-linejoin="round" stroke-miterlimit="10" d="
			M233.97,151.422l-7.75,4.064l9.712,10.218l7.664-3.963L233.97,151.422z"/>
		<path fill="#FFFFFF" d="M244.528,162.467l-7.748,4.063l9.712,10.218l7.662-3.962L244.528,162.467z"/>
		
			<path fill="none" stroke="#000000" stroke-width="0.589" stroke-linecap="round" stroke-linejoin="round" stroke-miterlimit="10" d="
			M244.528,162.467l-7.748,4.063l9.712,10.218l7.662-3.962L244.528,162.467z"/>
		<path fill="#FFFFFF" d="M254.508,173.665l-7.748,4.062l9.712,10.218l7.662-3.964L254.508,173.665z"/>
		
			<path fill="none" stroke="#000000" stroke-width="0.589" stroke-linecap="round" stroke-linejoin="round" stroke-miterlimit="10" d="
			M254.508,173.665l-7.748,4.062l9.712,10.218l7.662-3.964L254.508,173.665z"/>
		<path fill="#FFFFFF" d="M231.716,136.212l-7.748,4.064l9.711,10.217l7.663-3.963L231.716,136.212z"/>
		
			<path fill="none" stroke="#000000" stroke-width="0.589" stroke-linecap="round" stroke-linejoin="round" stroke-miterlimit="10" d="
			M231.716,136.212l-7.748,4.064l9.711,10.217l7.663-3.963L231.716,136.212z"/>
		<path fill="#FFFFFF" d="M241.938,147.245l-7.75,4.063l9.712,10.219l7.663-3.963L241.938,147.245z"/>
		
			<path fill="none" stroke="#000000" stroke-width="0.589" stroke-linecap="round" stroke-linejoin="round" stroke-miterlimit="10" d="
			M241.938,147.245l-7.75,4.063l9.712,10.219l7.663-3.963L241.938,147.245z"/>
		<path fill="#FFFFFF" d="M252.496,158.289l-7.749,4.064l9.712,10.218l7.664-3.963L252.496,158.289z"/>
		
			<path fill="none" stroke="#000000" stroke-width="0.589" stroke-linecap="round" stroke-linejoin="round" stroke-miterlimit="10" d="
			M252.496,158.289l-7.749,4.064l9.712,10.218l7.664-3.963L252.496,158.289z"/>
		<path fill="#FFFFFF" d="M262.476,169.486l-7.749,4.063l9.712,10.219l7.664-3.964L262.476,169.486z"/>
		
			<path fill="none" stroke="#000000" stroke-width="0.589" stroke-linecap="round" stroke-linejoin="round" stroke-miterlimit="10" d="
			M262.476,169.486l-7.749,4.063l9.712,10.219l7.664-3.964L262.476,169.486z"/>
		<path fill="#FFFFFF" d="M239.704,132.025l-7.749,4.063l9.712,10.218l7.662-3.963L239.704,132.025z"/>
		
			<path fill="none" stroke="#000000" stroke-width="0.589" stroke-linecap="round" stroke-linejoin="round" stroke-miterlimit="10" d="
			M239.704,132.025l-7.749,4.063l9.712,10.218l7.662-3.963L239.704,132.025z"/>
		<path fill="#FFFFFF" d="M249.926,143.058l-7.75,4.063l9.712,10.218l7.663-3.962L249.926,143.058z"/>
		
			<path fill="none" stroke="#000000" stroke-width="0.589" stroke-linecap="round" stroke-linejoin="round" stroke-miterlimit="10" d="
			M249.926,143.058l-7.75,4.063l9.712,10.218l7.663-3.962L249.926,143.058z"/>
		<path fill="#FFFFFF" d="M260.484,154.102l-7.749,4.064l9.712,10.218l7.663-3.963L260.484,154.102z"/>
		
			<path fill="none" stroke="#000000" stroke-width="0.589" stroke-linecap="round" stroke-linejoin="round" stroke-miterlimit="10" d="
			M260.484,154.102l-7.749,4.064l9.712,10.218l7.663-3.963L260.484,154.102z"/>
		<path fill="#FFFFFF" d="M270.464,165.298l-7.749,4.063l9.712,10.218l7.663-3.961L270.464,165.298z"/>
		
			<path fill="none" stroke="#000000" stroke-width="0.589" stroke-linecap="round" stroke-linejoin="round" stroke-miterlimit="10" d="
			M270.464,165.298l-7.749,4.063l9.712,10.218l7.663-3.961L270.464,165.298z"/>
		<path fill="#FFFFFF" d="M312.942,90.408l-36.016,18.884l45.061,47.147l35.996-18.872L312.942,90.408z"/>
		
			<path fill="none" stroke="#000000" stroke-width="0.589" stroke-linecap="round" stroke-linejoin="round" stroke-miterlimit="10" d="
			M312.942,90.408l-36.016,18.884l45.061,47.147l35.996-18.872L312.942,90.408z"/>
		<path fill="#FFFFFF" d="M289.664,105.832l-7.75,4.064l9.712,10.218l7.664-3.964L289.664,105.832z"/>
		
			<path fill="none" stroke="#000000" stroke-width="0.589" stroke-linecap="round" stroke-linejoin="round" stroke-miterlimit="10" d="
			M289.664,105.832l-7.75,4.064l9.712,10.218l7.664-3.964L289.664,105.832z"/>
		<path fill="#FFFFFF" d="M299.886,116.866l-7.75,4.062l9.712,10.218l7.662-3.964L299.886,116.866z"/>
		
			<path fill="none" stroke="#000000" stroke-width="0.589" stroke-linecap="round" stroke-linejoin="round" stroke-miterlimit="10" d="
			M299.886,116.866l-7.75,4.062l9.712,10.218l7.662-3.964L299.886,116.866z"/>
		<path fill="#FFFFFF" d="M310.444,127.91l-7.75,4.063l9.712,10.218l7.664-3.964L310.444,127.91z"/>
		
			<path fill="none" stroke="#000000" stroke-width="0.589" stroke-linecap="round" stroke-linejoin="round" stroke-miterlimit="10" d="
			M310.444,127.91l-7.75,4.063l9.712,10.218l7.664-3.964L310.444,127.91z"/>
		<path fill="#FFFFFF" d="M320.424,139.107l-7.75,4.062l9.712,10.219l7.663-3.964L320.424,139.107z"/>
		
			<path fill="none" stroke="#000000" stroke-width="0.589" stroke-linecap="round" stroke-linejoin="round" stroke-miterlimit="10" d="
			M320.424,139.107l-7.75,4.062l9.712,10.219l7.663-3.964L320.424,139.107z"/>
		<path fill="#FFFFFF" d="M297.724,101.606l-7.751,4.063l9.712,10.218l7.663-3.963L297.724,101.606z"/>
		
			<path fill="none" stroke="#000000" stroke-width="0.589" stroke-linecap="round" stroke-linejoin="round" stroke-miterlimit="10" d="
			M297.724,101.606l-7.751,4.063l9.712,10.218l7.663-3.963L297.724,101.606z"/>
		<path fill="#FFFFFF" d="M307.945,112.639l-7.749,4.063l9.711,10.218l7.661-3.962L307.945,112.639z"/>
		
			<path fill="none" stroke="#000000" stroke-width="0.589" stroke-linecap="round" stroke-linejoin="round" stroke-miterlimit="10" d="
			M307.945,112.639l-7.749,4.063l9.711,10.218l7.661-3.962L307.945,112.639z"/>
		<path fill="#FFFFFF" d="M318.505,123.684l-7.752,4.062l9.712,10.219l7.663-3.963L318.505,123.684z"/>
		
			<path fill="none" stroke="#000000" stroke-width="0.589" stroke-linecap="round" stroke-linejoin="round" stroke-miterlimit="10" d="
			M318.505,123.684l-7.752,4.062l9.712,10.219l7.663-3.963L318.505,123.684z"/>
		<path fill="#FFFFFF" d="M328.484,134.881l-7.752,4.063l9.713,10.218l7.662-3.963L328.484,134.881z"/>
		
			<path fill="none" stroke="#000000" stroke-width="0.589" stroke-linecap="round" stroke-linejoin="round" stroke-miterlimit="10" d="
			M328.484,134.881l-7.752,4.063l9.713,10.218l7.662-3.963L328.484,134.881z"/>
		<path fill="#FFFFFF" d="M305.693,97.428l-7.752,4.064l9.712,10.218l7.664-3.963L305.693,97.428z"/>
		
			<path fill="none" stroke="#000000" stroke-width="0.589" stroke-linecap="round" stroke-linejoin="round" stroke-miterlimit="10" d="
			M305.693,97.428l-7.752,4.064l9.712,10.218l7.664-3.963L305.693,97.428z"/>
		<path fill="#FFFFFF" d="M315.912,108.462l-7.749,4.063l9.713,10.218l7.661-3.963L315.912,108.462z"/>
		
			<path fill="none" stroke="#000000" stroke-width="0.589" stroke-linecap="round" stroke-linejoin="round" stroke-miterlimit="10" d="
			M315.912,108.462l-7.749,4.063l9.713,10.218l7.661-3.963L315.912,108.462z"/>
		<path fill="#FFFFFF" d="M326.473,119.506l-7.752,4.063l9.713,10.218l7.662-3.963L326.473,119.506z"/>
		
			<path fill="none" stroke="#000000" stroke-width="0.589" stroke-linecap="round" stroke-linejoin="round" stroke-miterlimit="10" d="
			M326.473,119.506l-7.752,4.063l9.713,10.218l7.662-3.963L326.473,119.506z"/>
		<path fill="#FFFFFF" d="M336.452,130.704l-7.751,4.062l9.712,10.219l7.663-3.965L336.452,130.704z"/>
		
			<path fill="none" stroke="#000000" stroke-width="0.589" stroke-linecap="round" stroke-linejoin="round" stroke-miterlimit="10" d="
			M336.452,130.704l-7.751,4.062l9.712,10.219l7.663-3.965L336.452,130.704z"/>
		<path fill="#FFFFFF" d="M313.68,93.241l-7.752,4.063l9.713,10.218l7.663-3.962L313.68,93.241z"/>
		
			<path fill="none" stroke="#000000" stroke-width="0.589" stroke-linecap="round" stroke-linejoin="round" stroke-miterlimit="10" d="
			M313.68,93.241l-7.752,4.063l9.713,10.218l7.663-3.962L313.68,93.241z"/>
		<path fill="#FFFFFF" d="M323.9,104.275l-7.75,4.063l9.713,10.218l7.66-3.963L323.9,104.275z"/>
		
			<path fill="none" stroke="#000000" stroke-width="0.589" stroke-linecap="round" stroke-linejoin="round" stroke-miterlimit="10" d="
			M323.9,104.275l-7.75,4.063l9.713,10.218l7.66-3.963L323.9,104.275z"/>
		<path fill="#FFFFFF" d="M334.46,115.318l-7.752,4.064l9.713,10.217l7.662-3.962L334.46,115.318z"/>
		
			<path fill="none" stroke="#000000" stroke-width="0.589" stroke-linecap="round" stroke-linejoin="round" stroke-miterlimit="10" d="
			M334.46,115.318l-7.752,4.064l9.713,10.217l7.662-3.962L334.46,115.318z"/>
		<path fill="#FFFFFF" d="M344.439,126.515l-7.752,4.063l9.713,10.218l7.662-3.963L344.439,126.515z"/>
		
			<path fill="none" stroke="#000000" stroke-width="0.589" stroke-linecap="round" stroke-linejoin="round" stroke-miterlimit="10" d="
			M344.439,126.515l-7.752,4.063l9.713,10.218l7.662-3.963L344.439,126.515z"/>
		<path fill="#FFFFFF" d="M276.086,109.732l-36.017,18.883l45.062,47.148l35.996-18.872L276.086,109.732z"/>
		
			<path fill="none" stroke="#000000" stroke-width="0.589" stroke-linecap="round" stroke-linejoin="round" stroke-miterlimit="10" d="
			M276.086,109.732l-36.017,18.883l45.062,47.148l35.996-18.872L276.086,109.732z"/>
		<path fill="#FFFFFF" d="M252.807,125.156l-7.749,4.063l9.711,10.218l7.662-3.964L252.807,125.156z"/>
		
			<path fill="none" stroke="#000000" stroke-width="0.589" stroke-linecap="round" stroke-linejoin="round" stroke-miterlimit="10" d="
			M252.807,125.156l-7.749,4.063l9.711,10.218l7.662-3.964L252.807,125.156z"/>
		<path fill="#FFFFFF" d="M263.028,136.189l-7.749,4.062l9.712,10.219l7.663-3.964L263.028,136.189z"/>
		
			<path fill="none" stroke="#000000" stroke-width="0.589" stroke-linecap="round" stroke-linejoin="round" stroke-miterlimit="10" d="
			M263.028,136.189l-7.749,4.062l9.712,10.219l7.663-3.964L263.028,136.189z"/>
		<path fill="#FFFFFF" d="M273.587,147.233l-7.749,4.064l9.712,10.217l7.662-3.963L273.587,147.233z"/>
		
			<path fill="none" stroke="#000000" stroke-width="0.589" stroke-linecap="round" stroke-linejoin="round" stroke-miterlimit="10" d="
			M273.587,147.233l-7.749,4.064l9.712,10.217l7.662-3.963L273.587,147.233z"/>
		<path fill="#FFFFFF" d="M283.567,158.429l-7.749,4.063l9.712,10.219l7.662-3.963L283.567,158.429z"/>
		
			<path fill="none" stroke="#000000" stroke-width="0.589" stroke-linecap="round" stroke-linejoin="round" stroke-miterlimit="10" d="
			M283.567,158.429l-7.749,4.063l9.712,10.219l7.662-3.963L283.567,158.429z"/>
		<path fill="#FFFFFF" d="M260.868,120.93l-7.751,4.062l9.712,10.218l7.663-3.962L260.868,120.93z"/>
		
			<path fill="none" stroke="#000000" stroke-width="0.589" stroke-linecap="round" stroke-linejoin="round" stroke-miterlimit="10" d="
			M260.868,120.93l-7.751,4.062l9.712,10.218l7.663-3.962L260.868,120.93z"/>
		<path fill="#FFFFFF" d="M271.088,131.962l-7.75,4.064l9.712,10.217l7.663-3.962L271.088,131.962z"/>
		
			<path fill="none" stroke="#000000" stroke-width="0.589" stroke-linecap="round" stroke-linejoin="round" stroke-miterlimit="10" d="
			M271.088,131.962l-7.75,4.064l9.712,10.217l7.663-3.962L271.088,131.962z"/>
		<path fill="#FFFFFF" d="M281.648,143.007l-7.751,4.063l9.712,10.218l7.663-3.963L281.648,143.007z"/>
		
			<path fill="none" stroke="#000000" stroke-width="0.589" stroke-linecap="round" stroke-linejoin="round" stroke-miterlimit="10" d="
			M281.648,143.007l-7.751,4.063l9.712,10.218l7.663-3.963L281.648,143.007z"/>
		<path fill="#FFFFFF" d="M291.628,154.204l-7.751,4.064l9.712,10.217l7.663-3.963L291.628,154.204z"/>
		
			<path fill="none" stroke="#000000" stroke-width="0.589" stroke-linecap="round" stroke-linejoin="round" stroke-miterlimit="10" d="
			M291.628,154.204l-7.751,4.064l9.712,10.217l7.663-3.963L291.628,154.204z"/>
		<path fill="#FFFFFF" d="M268.835,116.753l-7.749,4.062l9.712,10.218l7.662-3.963L268.835,116.753z"/>
		
			<path fill="none" stroke="#000000" stroke-width="0.589" stroke-linecap="round" stroke-linejoin="round" stroke-miterlimit="10" d="
			M268.835,116.753l-7.749,4.062l9.712,10.218l7.662-3.963L268.835,116.753z"/>
		<path fill="#FFFFFF" d="M279.057,127.785l-7.752,4.063l9.712,10.218l7.664-3.963L279.057,127.785z"/>
		
			<path fill="none" stroke="#000000" stroke-width="0.589" stroke-linecap="round" stroke-linejoin="round" stroke-miterlimit="10" d="
			M279.057,127.785l-7.752,4.063l9.712,10.218l7.664-3.963L279.057,127.785z"/>
		<path fill="#FFFFFF" d="M289.615,138.829l-7.75,4.064l9.712,10.217l7.663-3.962L289.615,138.829z"/>
		
			<path fill="none" stroke="#000000" stroke-width="0.589" stroke-linecap="round" stroke-linejoin="round" stroke-miterlimit="10" d="
			M289.615,138.829l-7.75,4.064l9.712,10.217l7.663-3.962L289.615,138.829z"/>
		<path fill="#FFFFFF" d="M299.595,150.027l-7.75,4.063l9.712,10.218l7.663-3.964L299.595,150.027z"/>
		
			<path fill="none" stroke="#000000" stroke-width="0.589" stroke-linecap="round" stroke-linejoin="round" stroke-miterlimit="10" d="
			M299.595,150.027l-7.75,4.063l9.712,10.218l7.663-3.964L299.595,150.027z"/>
		<path fill="#FFFFFF" d="M276.823,112.564l-7.75,4.064l9.711,10.217l7.663-3.962L276.823,112.564z"/>
		
			<path fill="none" stroke="#000000" stroke-width="0.589" stroke-linecap="round" stroke-linejoin="round" stroke-miterlimit="10" d="
			M276.823,112.564l-7.75,4.064l9.711,10.217l7.663-3.962L276.823,112.564z"/>
		<path fill="#FFFFFF" d="M287.045,123.597l-7.752,4.063l9.712,10.219l7.663-3.963L287.045,123.597z"/>
		
			<path fill="none" stroke="#000000" stroke-width="0.589" stroke-linecap="round" stroke-linejoin="round" stroke-miterlimit="10" d="
			M287.045,123.597l-7.752,4.063l9.712,10.219l7.663-3.963L287.045,123.597z"/>
		<path fill="#FFFFFF" d="M297.603,134.641l-7.751,4.064l9.712,10.218l7.663-3.963L297.603,134.641z"/>
		
			<path fill="none" stroke="#000000" stroke-width="0.589" stroke-linecap="round" stroke-linejoin="round" stroke-miterlimit="10" d="
			M297.603,134.641l-7.751,4.064l9.712,10.218l7.663-3.963L297.603,134.641z"/>
		<path fill="#FFFFFF" d="M307.583,145.839l-7.751,4.062l9.712,10.219l7.663-3.964L307.583,145.839z"/>
		
			<path fill="none" stroke="#000000" stroke-width="0.589" stroke-linecap="round" stroke-linejoin="round" stroke-miterlimit="10" d="
			M307.583,145.839l-7.751,4.062l9.712,10.219l7.663-3.964L307.583,145.839z"/>
		<path fill="#FFFFFF" d="M350.059,70.949l-36.017,18.882l45.065,47.147l35.994-18.872L350.059,70.949z"/>
		
			<path fill="none" stroke="#000000" stroke-width="0.589" stroke-linecap="round" stroke-linejoin="round" stroke-miterlimit="10" d="
			M350.059,70.949l-36.017,18.882l45.065,47.147l35.994-18.872L350.059,70.949z"/>
		<path fill="#FFFFFF" d="M326.782,86.372l-7.75,4.063l9.712,10.218l7.663-3.962L326.782,86.372z"/>
		
			<path fill="none" stroke="#000000" stroke-width="0.589" stroke-linecap="round" stroke-linejoin="round" stroke-miterlimit="10" d="
			M326.782,86.372l-7.75,4.063l9.712,10.218l7.663-3.962L326.782,86.372z"/>
		<path fill="#FFFFFF" d="M337.004,97.405l-7.752,4.064l9.712,10.217l7.664-3.964L337.004,97.405z"/>
		
			<path fill="none" stroke="#000000" stroke-width="0.589" stroke-linecap="round" stroke-linejoin="round" stroke-miterlimit="10" d="
			M337.004,97.405l-7.752,4.064l9.712,10.217l7.664-3.964L337.004,97.405z"/>
		<path fill="#FFFFFF" d="M347.563,108.449l-7.75,4.064l9.711,10.217l7.664-3.962L347.563,108.449z"/>
		
			<path fill="none" stroke="#000000" stroke-width="0.589" stroke-linecap="round" stroke-linejoin="round" stroke-miterlimit="10" d="
			M347.563,108.449l-7.75,4.064l9.711,10.217l7.664-3.962L347.563,108.449z"/>
		<path fill="#FFFFFF" d="M357.542,119.645l-7.75,4.064l9.712,10.218l7.663-3.963L357.542,119.645z"/>
		
			<path fill="none" stroke="#000000" stroke-width="0.589" stroke-linecap="round" stroke-linejoin="round" stroke-miterlimit="10" d="
			M357.542,119.645l-7.75,4.064l9.712,10.218l7.663-3.963L357.542,119.645z"/>
		<path fill="#FFFFFF" d="M334.841,82.146l-7.749,4.064l9.712,10.218l7.662-3.964L334.841,82.146z"/>
		
			<path fill="none" stroke="#000000" stroke-width="0.589" stroke-linecap="round" stroke-linejoin="round" stroke-miterlimit="10" d="
			M334.841,82.146l-7.749,4.064l9.712,10.218l7.662-3.964L334.841,82.146z"/>
		<path fill="#FFFFFF" d="M345.064,93.178l-7.752,4.064l9.713,10.218l7.662-3.963L345.064,93.178z"/>
		
			<path fill="none" stroke="#000000" stroke-width="0.589" stroke-linecap="round" stroke-linejoin="round" stroke-miterlimit="10" d="
			M345.064,93.178l-7.752,4.064l9.713,10.218l7.662-3.963L345.064,93.178z"/>
		<path fill="#FFFFFF" d="M355.621,104.224l-7.749,4.063l9.712,10.219l7.663-3.965L355.621,104.224z"/>
		
			<path fill="none" stroke="#000000" stroke-width="0.589" stroke-linecap="round" stroke-linejoin="round" stroke-miterlimit="10" d="
			M355.621,104.224l-7.749,4.063l9.712,10.219l7.663-3.965L355.621,104.224z"/>
		<path fill="#FFFFFF" d="M365.602,115.42l-7.75,4.064l9.713,10.218l7.662-3.964L365.602,115.42z"/>
		
			<path fill="none" stroke="#000000" stroke-width="0.589" stroke-linecap="round" stroke-linejoin="round" stroke-miterlimit="10" d="
			M365.602,115.42l-7.75,4.064l9.713,10.218l7.662-3.964L365.602,115.42z"/>
		<path fill="#FFFFFF" d="M342.809,77.968l-7.748,4.063l9.711,10.219l7.664-3.963L342.809,77.968z"/>
		
			<path fill="none" stroke="#000000" stroke-width="0.589" stroke-linecap="round" stroke-linejoin="round" stroke-miterlimit="10" d="
			M342.809,77.968l-7.748,4.063l9.711,10.219l7.664-3.963L342.809,77.968z"/>
		<path fill="#FFFFFF" d="M353.032,89.001l-7.751,4.063l9.713,10.218l7.661-3.963L353.032,89.001z"/>
		
			<path fill="none" stroke="#000000" stroke-width="0.589" stroke-linecap="round" stroke-linejoin="round" stroke-miterlimit="10" d="
			M353.032,89.001l-7.751,4.063l9.713,10.218l7.661-3.963L353.032,89.001z"/>
		<path fill="#FFFFFF" d="M363.59,100.046l-7.75,4.064l9.712,10.216l7.663-3.962L363.59,100.046z"/>
		
			<path fill="none" stroke="#000000" stroke-width="0.589" stroke-linecap="round" stroke-linejoin="round" stroke-miterlimit="10" d="
			M363.59,100.046l-7.75,4.064l9.712,10.216l7.663-3.962L363.59,100.046z"/>
		<path fill="#FFFFFF" d="M373.57,111.243l-7.75,4.064l9.712,10.218l7.663-3.965L373.57,111.243z"/>
		
			<path fill="none" stroke="#000000" stroke-width="0.589" stroke-linecap="round" stroke-linejoin="round" stroke-miterlimit="10" d="
			M373.57,111.243l-7.75,4.064l9.712,10.218l7.663-3.965L373.57,111.243z"/>
		<path fill="#FFFFFF" d="M350.797,73.781l-7.749,4.063l9.712,10.217l7.663-3.963L350.797,73.781z"/>
		
			<path fill="none" stroke="#000000" stroke-width="0.589" stroke-linecap="round" stroke-linejoin="round" stroke-miterlimit="10" d="
			M350.797,73.781l-7.749,4.063l9.712,10.217l7.663-3.963L350.797,73.781z"/>
		<path fill="#FFFFFF" d="M361.02,84.814l-7.75,4.063l9.711,10.218l7.662-3.962L361.02,84.814z"/>
		
			<path fill="none" stroke="#000000" stroke-width="0.589" stroke-linecap="round" stroke-linejoin="round" stroke-miterlimit="10" d="
			M361.02,84.814l-7.75,4.063l9.711,10.218l7.662-3.962L361.02,84.814z"/>
		<path fill="#FFFFFF" d="M371.577,95.858l-7.75,4.063l9.711,10.218l7.665-3.962L371.577,95.858z"/>
		
			<path fill="none" stroke="#000000" stroke-width="0.589" stroke-linecap="round" stroke-linejoin="round" stroke-miterlimit="10" d="
			M371.577,95.858l-7.75,4.063l9.711,10.218l7.665-3.962L371.577,95.858z"/>
		<path fill="#FFFFFF" d="M381.557,107.056l-7.75,4.062l9.711,10.218l7.666-3.963L381.557,107.056z"/>
		
			<path fill="none" stroke="#000000" stroke-width="0.589" stroke-linecap="round" stroke-linejoin="round" stroke-miterlimit="10" d="
			M381.557,107.056l-7.75,4.062l9.711,10.218l7.666-3.963L381.557,107.056z"/>
		<path fill="#FFFFFF" d="M202.95,148.075l90.71,94.983v1.855l-90.71-94.948V148.075z"/>
		
			<path fill="none" stroke="#000000" stroke-width="0.589" stroke-linecap="round" stroke-linejoin="round" stroke-miterlimit="10" d="
			M202.95,148.075l90.71,94.983v1.855l-90.71-94.948V148.075z"/>
		<path fill="#FFFFFF" d="M384.289,238c0,0-2.221,0.777-4.862,1.706c-5.229,1.835-8.675,6.399-8.675,11.489v13.395
			c0,1.618,0.879,3.133,2.35,4.046c1.47,0.915,3.342,1.114,5.002,0.53c3.181-1.116,6.185-2.17,6.185-2.17L384.289,238L384.289,238z"
			/>
		
			<path fill="none" stroke="#000000" stroke-width="0.589" stroke-linecap="round" stroke-linejoin="round" stroke-miterlimit="10" d="
			M384.289,238c0,0-2.221,0.777-4.862,1.706c-5.229,1.835-8.675,6.399-8.675,11.489v13.395c0,1.618,0.879,3.133,2.35,4.046
			c1.47,0.915,3.342,1.114,5.002,0.53c3.181-1.116,6.185-2.17,6.185-2.17L384.289,238L384.289,238z"/>
		<path fill="#FFFFFF" d="M394.439,241.563l-9.989-3.344c0.3,0.154-4.812,1.157-8.939,3.491c-0.838,0.476-2.096,1.558-2.631,2.133
			c-0.871,0.931-1.376,1.798-1.485,2.824c-0.248,2.349-0.301,6.894-0.287,10.981c0.015,4.425,0.106,8.314,0.106,8.314
			s-0.108,1.111,2.839,2.984c1.497,0.949,4.994,1.441,7.336,2.121c1.256,0.365,2.26,1.248,2.26,1.248L394.439,241.563z"/>
		
			<path fill="none" stroke="#000000" stroke-width="0.589" stroke-linecap="round" stroke-linejoin="round" stroke-miterlimit="10" d="
			M394.439,241.563l-9.989-3.344c0.3,0.154-4.812,1.157-8.939,3.491c-0.838,0.476-2.096,1.558-2.631,2.133
			c-0.871,0.931-1.376,1.798-1.485,2.824c-0.248,2.349-0.301,6.894-0.287,10.981c0.015,4.425,0.106,8.314,0.106,8.314
			s-0.108,1.111,2.839,2.984c1.497,0.949,4.994,1.441,7.336,2.121c1.256,0.365,2.26,1.248,2.26,1.248L394.439,241.563z"/>
		<path fill="#FFFFFF" d="M394.439,241.563c0,0-2.22,0.779-4.862,1.707c-5.228,1.834-8.675,6.399-8.675,11.488
			c0,4.248,0,9.342,0,13.395c0,1.617,0.88,3.133,2.35,4.048c1.469,0.913,3.342,1.112,5.004,0.528c3.18-1.114,6.182-2.17,6.182-2.17
			v-28.996H394.439z"/>
		
			<path fill="none" stroke="#000000" stroke-width="0.589" stroke-linecap="round" stroke-linejoin="round" stroke-miterlimit="10" d="
			M394.439,241.563c0,0-2.22,0.779-4.862,1.707c-5.228,1.834-8.675,6.399-8.675,11.488c0,4.248,0,9.342,0,13.395
			c0,1.617,0.88,3.133,2.35,4.048c1.469,0.913,3.342,1.112,5.004,0.528c3.18-1.114,6.182-2.17,6.182-2.17v-28.996H394.439z"/>
		<path fill="#FFFFFF" d="M142.487,222.338l-23.25-12.19v57.101l23.25,12.19V222.338z"/>
		
			<path fill="none" stroke="#000000" stroke-width="0.589" stroke-linecap="round" stroke-linejoin="round" stroke-miterlimit="10" d="
			M142.487,222.338l-23.25-12.19v57.101l23.25,12.19V222.338z"/>
		<path fill="#FFFFFF" d="M140.795,225.01l-18.018-9.446v49.192l18.018,9.446V225.01z"/>
		
			<path fill="none" stroke="#000000" stroke-width="0.589" stroke-linecap="round" stroke-linejoin="round" stroke-miterlimit="10" d="
			M140.795,225.01l-18.018-9.446v49.192l18.018,9.446V225.01z"/>
		<path fill="#FFFFFF" d="M122.777,215.564l-1.503,0.788v49.193l1.503-0.789V215.564z"/>
		
			<path fill="none" stroke="#000000" stroke-width="0.589" stroke-linecap="round" stroke-linejoin="round" stroke-miterlimit="10" d="
			M122.777,215.564l-1.503,0.788v49.193l1.503-0.789V215.564z"/>
		<path fill="#FFFFFF" d="M224.232,258.372l-23.251-12.19v57.101l23.251,12.19V258.372z"/>
		
			<path fill="none" stroke="#000000" stroke-width="0.589" stroke-linecap="round" stroke-linejoin="round" stroke-miterlimit="10" d="
			M224.232,258.372l-23.251-12.19v57.101l23.251,12.19V258.372z"/>
		<path fill="#FFFFFF" d="M222.538,261.044l-18.016-9.444v49.19l18.016,9.446V261.044z"/>
		
			<path fill="none" stroke="#000000" stroke-width="0.589" stroke-linecap="round" stroke-linejoin="round" stroke-miterlimit="10" d="
			M222.538,261.044l-18.016-9.444v49.19l18.016,9.446V261.044z"/>
		<path fill="#FFFFFF" d="M204.522,251.6l-1.503,0.786v49.193l1.503-0.789V251.6z"/>
		
			<path fill="none" stroke="#000000" stroke-width="0.589" stroke-linecap="round" stroke-linejoin="round" stroke-miterlimit="10" d="
			M204.522,251.6l-1.503,0.786v49.193l1.503-0.789V251.6z"/>
		<path fill="#FFFFFF" d="M429.453,226.502l-8.115-4.253v31.825l8.115,4.255V226.502z"/>
		
			<path fill="none" stroke="#000000" stroke-width="0.589" stroke-linecap="round" stroke-linejoin="round" stroke-miterlimit="10" d="
			M429.453,226.502l-8.115-4.253v31.825l8.115,4.255V226.502z"/>
		<path fill="#FFFFFF" d="M442.231,211.296l-20.894,10.953l8.115,4.253l20.891-10.952L442.231,211.296z"/>
		
			<path fill="none" stroke="#000000" stroke-width="0.589" stroke-linecap="round" stroke-linejoin="round" stroke-miterlimit="10" d="
			M442.231,211.296l-20.894,10.953l8.115,4.253l20.891-10.952L442.231,211.296z"/>
		<path fill="#FFFFFF" d="M450.344,215.55l-20.891,10.952v31.827l20.891-10.954V215.55z"/>
		
			<path fill="none" stroke="#000000" stroke-width="0.589" stroke-linecap="round" stroke-linejoin="round" stroke-miterlimit="10" d="
			M450.344,215.55l-20.891,10.952v31.827l20.891-10.954V215.55z"/>
		<path fill="#FFFFFF" d="M441.037,226.129l7.249,11.406l-14.502,7.604L441.037,226.129z"/>
		
			<path fill="none" stroke="#000000" stroke-width="0.589" stroke-linecap="round" stroke-linejoin="round" stroke-miterlimit="10" d="
			M441.037,226.129l7.249,11.406l-14.502,7.604L441.037,226.129z"/>
		<path fill="#FFFFFF" d="M441.606,231.176c-0.406,1.106-0.999,2.135-1.302,3.277c-0.087,0.329-0.402,0.917-0.159,1.234
			c0.329,0.43,1.138-0.004,1.526,0.351c0.261,0.235-0.04,0.601-0.183,0.812c-0.466,0.698-0.84,1.439-1.242,2.168
			c-0.054,0.1-0.533,0.926-0.188,0.926c0.416,0,0.726-0.754,0.862-1.022c0.472-0.925,1.292-1.659,1.93-2.487
			c0.218-0.283,0.613-0.656,0.588-1.027c-0.041-0.559-0.844-0.641-1.317-0.66c-0.16-0.006-0.604,0.015-0.616-0.21
			c-0.016-0.296,0.222-0.616,0.282-0.909c0.142-0.673,0.21-1.36,0.351-2.033c0.045-0.212,0.067-0.907-0.351-0.838L441.606,231.176z"
			/>
		
			<path fill="none" stroke="#000000" stroke-width="0.589" stroke-linecap="round" stroke-linejoin="round" stroke-miterlimit="10" d="
			M441.606,231.176c-0.406,1.106-0.999,2.135-1.302,3.277c-0.087,0.329-0.402,0.917-0.159,1.234c0.329,0.43,1.138-0.004,1.526,0.351
			c0.261,0.235-0.04,0.601-0.183,0.812c-0.466,0.698-0.84,1.439-1.242,2.168c-0.054,0.1-0.533,0.926-0.188,0.926
			c0.416,0,0.726-0.754,0.862-1.022c0.472-0.925,1.292-1.659,1.93-2.487c0.218-0.283,0.613-0.656,0.588-1.027
			c-0.041-0.559-0.844-0.641-1.317-0.66c-0.16-0.006-0.604,0.015-0.616-0.21c-0.016-0.296,0.222-0.616,0.282-0.909
			c0.142-0.673,0.21-1.36,0.351-2.033c0.045-0.212,0.067-0.907-0.351-0.838L441.606,231.176z"/>
		<path d="M200.98,163.398c3.97,0,7.192,2.927,7.192,6.531c0,3.605-3.222,6.531-7.192,6.531c-3.969,0-7.192-2.926-7.192-6.531
			C193.789,166.326,197.013,163.398,200.98,163.398z M200.98,161.222c5.293,0,9.59,3.902,9.59,8.709c0,4.806-4.297,8.708-9.59,8.708
			c-5.292,0-9.59-3.902-9.59-8.708C191.391,165.124,195.689,161.222,200.98,161.222z"/>
		<path fill="#FFFFFF" d="M205.388,173.977h-1.902l-0.756-1.967h-3.462l-0.714,1.967h-1.855l3.373-8.66h1.849L205.388,173.977z
			 M202.168,170.551l-1.193-3.214l-1.17,3.214H202.168z"/>
	</g>
	
		<ellipse opacity="0.86" fill="#FFFFFF" stroke="#000000" stroke-width="0.4" stroke-miterlimit="10" cx="328.354" cy="106.583" rx="18.354" ry="17.583"/>
	<path fill="#FFFFFF" stroke="#000000" stroke-width="0.7" stroke-miterlimit="10" d="M336.86,101.08
		c-0.011,2.25-0.011,4.5-0.021,6.75v0.04c0,0.04-0.01,0.08-0.01,0.13c0,0.02-0.01,0.04-0.01,0.06c0,0.87,0.02,1.74-0.011,2.6
		c-0.01,0.2-0.029,0.45-0.239,0.58c-0.061,0.03-0.12,0.06-0.181,0.09c-0.069,0.32-0.34,0.23-0.55,0.25
		c-0.07,0.16-0.17,0.27-0.37,0.26c-0.13-0.01-0.14,0.08-0.14,0.18c-0.03,0.62-0.13,1.23-0.2,1.84c-0.02,0.18-0.06,0.3-0.26,0.31
		c-0.03,0-0.061,0.03-0.09,0.05c-0.09,0.58-0.261,1.13-0.45,1.68c-0.24,0.7-0.48,1.41-0.78,2.1c0,0,0,0-0.01,0
		c-0.03,0.08-0.06,0.17-0.09,0.25c0,0.08-0.04,0.14-0.08,0.21c-0.021,0.11-0.07,0.2-0.12,0.3c-0.01,0.08-0.04,0.15-0.09,0.21
		c-0.01,0.04-0.03,0.09-0.04,0.13c-0.03,0.07-0.061,0.14-0.09,0.21c-0.03,0.07-0.05,0.14-0.08,0.21c-0.01,0.07-0.04,0.12-0.08,0.17
		c-0.01,0.15-0.11,0.22-0.24,0.24c-0.25,0.03-0.51,0.1-0.77,0.03c-0.12-0.02-0.25-0.01-0.38,0c-0.25,0.04-0.311-0.02-0.23-0.27
		c0.03-0.05,0.05-0.11,0.08-0.17c0.02-0.04,0.03-0.08,0.05-0.12c0.021-0.06,0.05-0.12,0.08-0.18c0-0.08,0.03-0.15,0.08-0.21
		c0.01-0.08,0.04-0.15,0.08-0.22c0.03-0.08,0.07-0.16,0.1-0.25c-0.01-0.07,0.04-0.12,0.07-0.18c0-0.09,0.05-0.16,0.09-0.24
		c0.021-0.13,0.07-0.24,0.13-0.34c0.26-0.79,0.54-1.57,0.74-2.37c0.12-0.47,0.22-0.94,0.32-1.41c-0.21-0.03-0.261-0.13-0.21-0.33
		c0.09-0.44,0.09-0.88,0.14-1.32c0.02-0.18-0.13-0.31-0.09-0.48c0-0.02,0-0.05-0.01-0.07c-0.131-0.01-0.25,0-0.32-0.17
		c-0.061-0.15-0.26-0.13-0.34,0.03c-0.05,0.08-0.09,0.17-0.13,0.26c-0.03,0.07-0.061,0.13-0.15,0.12c-0.11-0.01-0.08-0.1-0.08-0.16
		c-0.01-0.11,0-0.23,0-0.34h-0.59c-0.08,0.15-0.13,0.32-0.25,0.46c-0.18,0.08-0.19-0.04-0.18-0.16
		c-0.021-0.03-0.021-0.07-0.021-0.11v-0.06c0-0.06-0.01-0.12-0.109-0.14c-0.29-0.06-0.421-0.01-0.551,0.2
		c-0.05,0.09-0.109,0.18-0.17,0.26c-0.05,0.03-0.109,0.03-0.16,0.01c-0.05-0.07-0.02-0.15-0.029-0.23
		c-0.021-0.08,0.04-0.22-0.101-0.23c-0.08-0.01-0.16-0.03-0.239-0.03c-0.08,0-0.16,0.02-0.23,0.11c-0.09,0.12-0.13,0.28-0.25,0.38
		c-0.12,0.03-0.18-0.01-0.17-0.14c0-0.12-0.01-0.24-0.01-0.36h-0.49c-0.12,0.16-0.23,0.31-0.34,0.47
		c-0.03,0.03-0.061,0.03-0.101,0.03c-0.109,0.01-0.08-0.08-0.09-0.14c-0.01-0.13,0.021-0.25-0.03-0.37h-0.43
		c-0.01,0-0.02,0.01-0.03,0.01c-0.1,0.17-0.21,0.33-0.35,0.47c-0.11,0.06-0.18,0.04-0.18-0.11v-0.35c-0.15-0.03-0.3-0.02-0.46-0.02
		c-0.11,0.17-0.23,0.33-0.38,0.48c-0.12,0.05-0.181,0.02-0.181-0.12v-0.35c0.01,0,0.01-0.01,0.021-0.01c0,0-0.011,0-0.011-0.01
		c0,0.01,0,0.01-0.01,0.02c-0.26-0.05-0.479-0.03-0.64,0.23c-0.061,0.09-0.09,0.18-0.09,0.29c0.01,0.56,0.01,1.12,0.01,1.67
		c0,0.15,0,0.28-0.19,0.28c-0.109,0-0.119,0.09-0.14,0.16c-0.01,0.54-0.15,1.06-0.27,1.58c-0.181,0.77-0.4,1.53-0.631,2.28
		c-0.01,0.05-0.02,0.09-0.029,0.13c-0.011,0.12-0.05,0.23-0.09,0.34c-0.021,0.06-0.03,0.11-0.04,0.17
		c-0.011,0.12-0.04,0.23-0.091,0.34c0.011,0.08-0.01,0.15-0.04,0.21c-0.02,0.07-0.029,0.14-0.05,0.22
		c-0.01,0.09-0.029,0.19-0.04,0.29c-0.05,0.31-0.33,0.46-0.62,0.33c-0.079-0.04-0.1-0.1-0.09-0.17c0.03-0.13,0.011-0.26,0.07-0.37
		c0.01-0.06,0.03-0.12,0.04-0.17c0.02-0.06,0.03-0.12,0.04-0.18c0.01-0.07,0.01-0.14,0.05-0.21c0-0.06,0-0.12,0.04-0.17
		c0-0.05,0.01-0.11,0.01-0.16c0.021-0.06,0.04-0.12,0.061-0.18c0.02-0.12,0.05-0.23,0.1-0.35c0-0.02,0.01-0.04,0.01-0.07
		c0.17-0.62,0.341-1.23,0.511-1.85c0.189-0.69,0.34-1.39,0.42-2.1c-0.11-0.05-0.221-0.09-0.29,0.05c0,0,0,0.01-0.011,0.01
		c-0.06,0.89-0.289,1.74-0.569,2.58c-0.16,0.45-0.3,0.9-0.53,1.31c-0.02,0.06-0.04,0.12-0.06,0.17c0,0.1-0.101,0.16-0.11,0.26
		c0,0.07-0.04,0.12-0.08,0.17c-0.01,0.04-0.03,0.09-0.05,0.13c-0.01,0.04-0.03,0.08-0.05,0.12c-0.021,0.11-0.07,0.2-0.13,0.3
		c-0.021,0.09-0.061,0.18-0.11,0.26c-0.03,0.07-0.061,0.14-0.09,0.21c-0.021,0.09-0.07,0.18-0.13,0.25
		c-0.051,0.15-0.141,0.22-0.301,0.19c-0.069-0.02-0.149,0-0.229,0.01c-0.07,0.01-0.15,0.03-0.2-0.05c-0.04-0.08,0-0.13,0.05-0.19
		c0.04-0.1,0.08-0.2,0.13-0.3c0.021-0.06,0.051-0.11,0.08-0.17c0.03-0.1,0.061-0.2,0.13-0.29c0.03-0.06,0.051-0.12,0.08-0.18
		c0.011-0.06,0.03-0.12,0.08-0.17c0.011-0.11,0.07-0.21,0.13-0.31c0-0.04,0.011-0.08,0.051-0.11c0.01-0.07,0.029-0.13,0.08-0.18
		c0.01-0.08,0.04-0.15,0.09-0.21c0.109-0.29,0.22-0.58,0.33-0.87c0.33-0.83,0.56-1.68,0.72-2.56c0.01-0.09,0.01-0.17,0.02-0.26
		c0.021-0.13,0.04-0.24-0.149-0.26c-0.11-0.02-0.09-0.14-0.09-0.23c0.01-0.59,0.02-1.17-0.03-1.76c-0.14-0.01-0.08-0.12-0.08-0.2
		c-0.05-0.06-0.12-0.06-0.19-0.05c-0.13,0-0.22,0.08-0.31-0.01c-0.09,0.1-0.19,0.08-0.28,0.17c-0.05,0.06-0.109,0.1-0.18,0.07
		c-0.08-0.03-0.07-0.1-0.07-0.16v-0.27c-0.109-0.11-0.22-0.21-0.33-0.32c-0.04-0.04-0.09-0.08-0.14-0.12
		c-0.08-0.24-0.04-0.49-0.05-0.73c-0.061-2.54-0.11-5.08-0.16-7.62c-0.01-0.52-0.05-1.03-0.021-1.55
		c0.021-0.01,0.051-0.04,0.07-0.03c0.19,0.03,0.22-0.08,0.22-0.23c0.061-0.23,0.25-0.24,0.431-0.22c0.13,0.01,0.27,0.01,0.399,0.01
		c0.011,0.01,0.011,0,0.021,0c0.25,0,0.5-0.02,0.75,0.04c0.02-0.02,0.05-0.02,0.07-0.02c0.02,0,0.05,0,0.069,0.02
		c0.04-0.02,0.08-0.03,0.12-0.04c0.01-0.1,0.01-0.19,0.01-0.29v-0.18c-0.06-0.06-0.22-0.05-0.18-0.2c-0.01-0.02-0.02-0.04-0.04-0.05
		c-0.06-0.11-0.03-0.23-0.04-0.35c0.021-0.92-0.07-1.84-0.04-2.76c0-0.36,0-0.73-0.01-1.09c-0.05-0.45-0.101-0.89,0.229-1.26
		c0.08-0.1,0.17-0.18,0.301-0.19c0.119-0.05,0.25-0.09,0.369-0.13c1.211,0,2.421,0,3.631-0.01c0.109,0,0.21,0.01,0.319-0.03
		c0.63,0,1.271-0.01,1.9-0.01c0.09,0,0.18,0,0.26,0.05h0.05c0.15,0.01,0.19,0.14,0.261,0.24c-0.011,0.04-0.011,0.08-0.011,0.12
		c0,0.19,0.04,0.39-0.04,0.57c-0.05,0.13-0.14,0.18-0.279,0.15c-0.07-0.02-0.15-0.02-0.21-0.01c-0.131,0.03-0.23-0.04-0.261-0.13
		c-0.1-0.33-0.34-0.33-0.609-0.3h-0.04c-0.04,0.01-0.08,0.03-0.12,0.04c-0.05,0.04-0.09,0.08-0.13,0.13c0,0.01-0.01,0.03-0.01,0.05
		c-0.051,0.27,0,0.54,0,0.82c0.01,0.67,0.01,1.34,0.01,2.01c0,0.07,0.01,0.15-0.04,0.22c0.05,0.08,0.109,0.16,0.18,0.23
		c0.24,0.26,0.48,0.23,0.79-0.08c0.07-0.5,0.03-1.01,0.05-1.51c-0.06-0.24,0.03-0.38,0.271-0.38c0.26-0.01,0.529-0.02,0.8,0
		c0.31,0.02,0.55-0.06,0.71-0.34c-0.08-0.18-0.04-0.36-0.04-0.54c-0.01-0.3-0.01-0.61,0-0.91c0-0.11,0.01-0.21,0.08-0.3
		c0.01-0.01,0.02-0.01,0.03-0.01c0.17-0.12,0.38-0.06,0.569-0.06c0.69-0.01,1.37-0.01,2.061-0.01c0.109,0,0.21,0.03,0.31,0.04
		l0.01,0.01l0.011,0.01c0.39,0.06,0.62,0.32,0.739,0.69c0.011,0.05,0.011,0.1,0.011,0.14c0.04,0.08,0.04,0.17,0.04,0.25v4.48
		c0,0.04,0,0.09-0.011,0.13c0.051,0.13,0.141,0.26,0.061,0.41c0,0.03-0.01,0.06-0.01,0.09c0.02,0.04,0.029,0.08,0.05,0.13
		c0,0.05,0,0.11-0.01,0.17c0.069,0.06,0.149,0.04,0.229,0.03c0.37-0.01,0.75,0.02,1.12-0.02
		C336.79,100.72,336.86,100.8,336.86,101.08z"/>
</g>
<g id="Layer_2">
	<path d="M358.32,256.839c3.581,0,6.487,2.928,6.487,6.531c0,3.605-2.906,6.531-6.487,6.531c-3.58,0-6.488-2.926-6.488-6.531
		C351.832,259.767,354.74,256.839,358.32,256.839z M358.32,254.663c4.775,0,8.651,3.901,8.651,8.709
		c0,4.806-3.876,8.707-8.651,8.707c-4.774,0-8.65-3.901-8.65-8.707C349.67,258.564,353.548,254.663,358.32,254.663z"/>
	<text transform="matrix(0.9996 0 0 1 353.585 268.2529)" fill="#FFFFFF" font-family="'Myriad-Bold'" font-size="13.7871">C</text>
	<path d="M310.753,82.755c3.969,0,7.192,2.928,7.192,6.53c0,3.604-3.224,6.533-7.192,6.533s-7.193-2.929-7.193-6.533
		C303.562,85.683,306.784,82.755,310.753,82.755z M310.753,80.579c5.292,0,9.59,3.901,9.59,8.708s-4.297,8.708-9.59,8.708
		s-9.59-3.901-9.59-8.708C301.164,84.48,305.46,80.579,310.753,80.579z"/>
	<path fill="#FFFFFF" d="M307.333,84.673h3.462c0.685,0,1.195,0.028,1.53,0.088c0.338,0.056,0.64,0.174,0.902,0.354
		c0.269,0.181,0.492,0.423,0.668,0.728c0.178,0.299,0.267,0.635,0.267,1.01c0,0.404-0.11,0.777-0.331,1.115
		c-0.217,0.34-0.512,0.594-0.886,0.762c0.528,0.154,0.933,0.416,1.217,0.787c0.283,0.369,0.425,0.805,0.425,1.305
		c0,0.395-0.092,0.777-0.277,1.152c-0.182,0.371-0.432,0.668-0.75,0.892c-0.315,0.221-0.705,0.356-1.17,0.408
		c-0.291,0.032-0.994,0.051-2.108,0.059h-2.948V84.673z M309.081,86.114v2.003h1.146c0.682,0,1.104-0.01,1.271-0.03
		c0.299-0.034,0.533-0.138,0.703-0.307c0.173-0.173,0.259-0.399,0.259-0.679c0-0.269-0.074-0.485-0.224-0.65
		c-0.146-0.169-0.364-0.271-0.656-0.307c-0.173-0.021-0.671-0.03-1.494-0.03H309.081z M309.081,89.558v2.315h1.619
		c0.63,0,1.029-0.019,1.199-0.053c0.26-0.047,0.471-0.162,0.632-0.343c0.166-0.186,0.248-0.432,0.248-0.738
		c0-0.26-0.063-0.48-0.189-0.662s-0.309-0.313-0.549-0.396c-0.235-0.082-0.752-0.123-1.548-0.123H309.081z"/>
</g>
</svg>
