<svg width="34" height="34" viewBox="0 0 34 34" fill="none" xmlns="http://www.w3.org/2000/svg">
<path d="M27.2502 9.96635C27.2502 7.39811 26.1608 4.93505 24.2216 3.11903C22.2824 1.30301 19.6522 0.282776 16.9098 0.282776C14.1673 0.282776 11.5372 1.30301 9.59798 3.11903C7.65877 4.93505 6.56934 7.39811 6.56934 9.96635C6.56934 15.3134 16.9098 28.8335 16.9098 28.8335C16.9098 28.8335 27.2502 15.3134 27.2502 9.96635ZM10.166 9.96635C10.166 8.71729 10.5615 7.49627 11.3025 6.45772C12.0436 5.41916 13.0968 4.6097 14.3291 4.1317C15.5613 3.65371 16.9173 3.52864 18.2254 3.77232C19.5336 4.016 20.7352 4.61748 21.6783 5.50071C22.6215 6.38393 23.2638 7.50922 23.524 8.73428C23.7842 9.95934 23.6506 11.2292 23.1402 12.3831C22.6298 13.5371 21.7654 14.5234 20.6564 15.2174C19.5474 15.9113 18.2436 16.2817 16.9098 16.2817C15.1212 16.2817 13.4059 15.6164 12.1412 14.432C10.8765 13.2476 10.166 11.6413 10.166 9.96635Z" fill="#F2C926"/>
<path d="M22.1139 22.9076C21.3384 24.0917 20.5854 25.1864 19.9222 26.1232C22.7321 26.4811 24.6991 27.3231 24.6991 28.3125C24.6991 29.6177 21.2148 30.6808 16.91 30.6808C12.6052 30.6808 9.12095 29.6282 9.12095 28.3125C9.12095 27.3178 11.0991 26.4758 13.9034 26.1232C13.2403 25.1864 12.4872 24.0865 11.7117 22.9023C4.91171 23.6233 0 25.76 0 28.2915C0 31.4228 7.56988 33.9595 16.91 33.9595C26.2501 33.9595 33.82 31.4228 33.82 28.2915C33.82 25.76 28.9083 23.6233 22.1139 22.9076Z" fill="#F2C926"/>
</svg>
