<svg width="55" height="92" viewBox="0 0 55 92" fill="none" xmlns="http://www.w3.org/2000/svg">
<path fill-rule="evenodd" clip-rule="evenodd" d="M46.8283 38.9724C46.7866 38.791 46.9205 38.6719 46.9971 38.5395C47.6665 37.382 48.328 36.2195 49.0204 35.0761C50.4332 32.7429 51.4089 30.2468 51.8656 27.5554C51.9697 26.9427 52.0522 26.3252 52.0592 25.6991C52.068 24.9162 52.1409 24.1366 52.0995 23.3501C51.9539 20.5918 51.2465 17.9879 50.0071 15.5252C48.3986 12.3295 46.0989 9.72057 43.2218 7.61733C39.9463 5.22293 36.2909 3.71738 32.2989 3.00527C30.1746 2.62629 28.0356 2.494 25.8882 2.63322C19.7736 3.02994 14.3404 5.1244 9.77223 9.26943C6.87638 11.897 4.80589 15.0698 3.67717 18.8338C2.97287 21.1822 2.75457 23.5748 2.95655 26.0165C3.21247 29.109 4.2049 31.952 5.77291 34.6129C6.51025 35.8639 7.22579 37.1281 7.94369 38.3905C8.04249 38.5643 8.18995 38.7239 8.19123 38.8797C8.16946 39.042 8.0865 39.0391 8.02546 39.0394C7.14863 39.0435 6.27163 39.0375 5.39479 39.0476C5.15933 39.0505 5.01954 38.9698 4.90385 38.7588C4.47149 37.971 4.02123 37.1928 3.57372 36.4133C3.44777 36.1939 3.30495 35.9841 3.17498 35.7669C1.54247 33.0384 0.493234 30.1017 0.147697 26.9397C-0.50626 20.9534 1.01346 15.5485 4.6664 10.7692C7.83072 6.62911 11.9326 3.73888 16.7944 1.90772C19.0481 1.05872 21.3748 0.512379 23.7677 0.228458C25.9766 -0.0333866 28.1896 -0.0788161 30.3986 0.137296C36.7589 0.759653 42.4139 3.06009 47.1956 7.35548C49.9837 9.85992 52.1171 12.8364 53.4943 16.338C54.3107 18.4137 54.811 20.564 54.9512 22.7865C55.2391 27.3497 54.2535 31.629 51.9867 35.6046C51.3816 36.6658 50.7444 37.7089 50.1275 38.7637C50.0281 38.9336 49.9267 39.0503 49.7037 39.0474C48.7808 39.0353 47.8579 39.0389 46.9351 39.033C46.8999 39.0327 46.8648 38.9941 46.8283 38.9724Z" fill="#FDD105"/>
<path fill-rule="evenodd" clip-rule="evenodd" d="M26.2983 84.7318C27.7494 84.7318 29.2003 84.7317 30.6513 84.7318C30.9049 84.732 31.154 84.7318 31.3901 84.6043C31.7415 84.4146 31.9978 84.0395 31.9411 83.7231C31.8699 83.3264 31.624 83.0682 31.2443 82.9409C31.1581 82.9121 31.0639 82.902 30.9724 82.8946C30.8351 82.8833 30.6967 82.8773 30.5587 82.8773C27.6798 82.8763 24.8009 82.8756 21.9219 82.8789C21.7158 82.879 21.5048 82.8894 21.3047 82.934C20.8891 83.0265 20.5957 83.3651 20.5668 83.7459C20.5403 84.0994 20.7624 84.4274 21.1349 84.614C21.3725 84.733 21.6225 84.7325 21.8763 84.7324C23.3503 84.7315 24.8242 84.732 26.2983 84.7318ZM27.8247 78.6858V78.6864C25.7966 78.6864 23.7687 78.6873 21.7407 78.6854C21.4631 78.6851 21.1861 78.6786 20.9275 78.8011C20.5912 78.9602 20.3696 79.2079 20.3516 79.5947C20.3353 79.9444 20.584 80.2851 20.9671 80.4275C21.1162 80.4829 21.2786 80.5109 21.4375 80.5278C21.597 80.5449 21.7597 80.5333 21.921 80.5333C25.8156 80.5334 29.7102 80.5334 33.605 80.5333C33.7663 80.5333 33.929 80.5447 34.0885 80.5271C34.2474 80.5099 34.4098 80.4815 34.5585 80.4257C34.9384 80.2831 35.1776 79.9448 35.1635 79.5857C35.148 79.1959 34.9224 78.9521 34.5844 78.7973C34.3251 78.6784 34.0479 78.6845 33.7703 78.6846C31.7885 78.6867 29.8065 78.6858 27.8247 78.6858ZM18.3923 83.5616C16.7733 82.745 16.4528 80.9548 18.3811 79.8333C18.2058 79.7208 18.038 79.625 17.8829 79.5117C16.7798 78.7077 16.7732 77.2799 17.8706 76.4679C18.2498 76.1873 18.6758 76.0219 19.1539 76.0182C19.6151 76.0143 20.0765 76.0162 20.5378 76.0162C25.6816 76.0165 30.8256 76.0173 35.9695 76.016C36.3394 76.0159 36.7113 76.0033 37.0577 76.1574C37.2669 76.2506 37.4824 76.3454 37.6643 76.481C38.7289 77.2738 38.7293 78.6825 37.6701 79.4845C37.5058 79.6088 37.3215 79.7071 37.1098 79.8405C37.8497 80.2563 38.4576 80.7761 38.4575 81.6953C38.4572 82.6163 37.8748 83.1512 37.1052 83.5559C37.3057 83.6839 37.4874 83.7852 37.6529 83.9081C38.7215 84.7026 38.7349 86.1044 37.6802 86.9136C37.3256 87.1856 36.9227 87.3501 36.4717 87.3759C36.2877 87.3865 36.1028 87.3852 35.9184 87.3852C30.4746 87.3856 25.0308 87.3853 19.5871 87.3858C19.1715 87.3858 18.7573 87.3928 18.3636 87.2191C17.8366 86.9867 17.4197 86.6356 17.1923 86.1009C16.867 85.3357 17.1177 84.4869 17.8173 83.9427C17.996 83.8036 18.1952 83.691 18.3923 83.5616Z" fill="#FDD105"/>
<path fill-rule="evenodd" clip-rule="evenodd" d="M29.1881 73.1464C31.4255 73.2119 33.6634 73.1977 35.9012 73.1806C37.0104 73.1723 37.6128 72.6678 37.7977 71.5662C37.9236 70.8168 38.0449 70.0587 38.0677 69.3015C38.1599 66.2452 38.9236 63.3355 39.9228 60.4739C40.1657 59.7784 40.4556 59.0993 40.706 58.4061C40.8096 58.12 40.9798 58.0326 41.2783 58.041C42.0331 58.0619 42.7889 58.0479 43.5394 58.0479C43.5965 58.3219 43.4573 58.4931 43.3824 58.6796C42.6705 60.4548 42.0035 62.2453 41.5038 64.0948C41.0452 65.7919 40.7324 67.5065 40.6738 69.2716C40.6441 70.1675 40.5311 71.0683 40.3663 71.9501C40.1752 72.9704 39.6758 73.8542 38.8839 74.547C38.2759 75.079 37.5586 75.3752 36.7565 75.4564C36.4818 75.4841 36.2038 75.4896 35.9272 75.4898C30.4815 75.4926 25.0359 75.4935 19.5903 75.4938C19.1749 75.4938 18.7594 75.4892 18.3513 75.3954C17.3886 75.1741 16.6116 74.6599 16.0416 73.8603C15.4991 73.0993 15.1302 72.2629 15.0692 71.3101C15.044 70.9194 15.0016 70.5277 14.9328 70.1425C14.7741 69.2531 14.8337 68.3489 14.718 67.4549C14.5069 65.8241 14.1047 64.2419 13.6177 62.6775C13.186 61.2906 12.6683 59.9352 12.1199 58.5908C12.0606 58.4452 12.0068 58.2972 11.9607 58.1772C12.0579 58.0098 12.1845 58.0506 12.2906 58.0501C12.9597 58.046 13.6292 58.0587 14.2981 58.0428C14.5714 58.0362 14.7102 58.1373 14.8093 58.3902C15.4399 59.9996 16.0263 61.6226 16.4858 63.2912C16.9092 64.8288 17.2549 66.3804 17.3597 67.974C17.4204 68.8948 17.4916 69.8138 17.5926 70.7309C17.6407 71.1665 17.676 71.6065 17.8709 72.0082C17.9711 72.2145 18.0827 72.4183 18.2149 72.6053C18.4375 72.9209 18.7436 73.1148 19.1374 73.1489C19.2978 73.1626 19.4586 73.1821 19.6192 73.1827C21.8801 73.1916 24.141 73.1979 26.4018 73.2039C26.4474 73.204 26.4931 73.1916 26.5388 73.1851C27.3814 73.2503 28.2246 73.2137 29.0675 73.2043C29.1079 73.2037 29.1479 73.1666 29.1881 73.1464Z" fill="#FDD105"/>
<path fill-rule="evenodd" clip-rule="evenodd" d="M33.0192 29.0328C33.0356 29.0172 33.0635 29.0028 33.0643 28.9871C33.0651 28.9712 33.0388 28.9542 33.0244 28.9376C33.0088 28.9613 32.9932 28.985 32.9776 29.0087C32.9922 29.0172 33.0069 29.0257 33.0192 29.0328ZM35.695 30.0933C34.9294 29.9418 34.3179 30.1487 33.6966 30.2338C33.4463 30.2682 33.1979 30.3181 32.9471 30.3465C32.7722 30.3664 32.6487 30.2986 32.5698 30.119C32.4645 29.8796 32.4012 29.872 32.2971 30.0538C31.4139 31.5968 30.4188 33.0669 29.3896 34.5149C29.2658 34.6889 29.1883 34.8722 29.2022 35.0927C29.2485 35.8283 29.1931 36.5651 29.243 37.303C29.2766 37.8011 29.1878 38.3081 29.1468 38.8105C29.1363 38.9385 29.05 39.019 28.9202 39.0291C28.7824 39.0395 28.6429 39.046 28.5052 39.0366C28.1651 39.0134 27.8173 39.1073 27.4844 38.972C27.3253 38.6383 27.4279 38.2944 27.4648 37.96C27.5059 37.588 27.3882 37.2981 27.1747 37.0003C26.0047 35.3671 24.9506 33.6614 24.0263 31.8761C23.5911 31.0358 23.1987 30.1767 22.8477 29.2984C22.8053 29.1923 22.7635 29.0809 22.7528 28.9689C22.7416 28.8494 22.8037 28.7433 22.9155 28.6871C23.0481 28.6206 23.2041 28.6061 23.2958 28.7281C23.4329 28.9103 23.5477 29.1132 23.648 29.3187C24.134 30.314 24.6503 31.2927 25.2208 32.242C25.8039 33.2123 26.4512 34.1379 27.1904 34.9966C27.3039 35.1286 27.386 35.3095 27.5909 35.3436C27.7232 35.2667 27.6766 35.1371 27.6802 35.0334C27.7388 33.3497 27.7592 31.6648 27.6684 29.9827C27.6063 28.8336 27.5012 27.6862 27.338 26.5436C27.1585 25.288 26.948 24.0409 26.6211 22.8149C26.5728 22.634 26.5549 22.4514 26.5903 22.2673C26.6307 22.0563 26.8979 21.9576 27.0851 22.0765C27.2774 22.1986 27.341 22.3911 27.3909 22.5971C27.619 23.5377 27.8693 24.4734 28.076 25.4185C28.4801 27.2653 28.7938 29.1274 28.9516 31.0134C28.9881 31.4495 29.0331 31.8851 29.0757 32.3208C29.0822 32.3877 29.0917 32.4728 29.1762 32.4709C29.2348 32.4695 29.3072 32.4334 29.3475 32.3891C30.3448 31.2939 31.2182 30.1066 31.9695 28.83C32.4964 27.9349 32.9677 27.0105 33.4303 26.0813C33.5221 25.8969 33.6276 25.7164 33.7493 25.5508C33.8398 25.4277 33.9873 25.4238 34.1274 25.4719C34.2537 25.5152 34.3363 25.6668 34.2967 25.8112C34.248 25.9883 34.1893 26.1648 34.1157 26.333C33.8477 26.9454 33.5721 27.5546 33.2982 28.1646C33.2321 28.3116 33.1525 28.4534 33.0965 28.604C33.0759 28.6594 33.0839 28.7495 33.1177 28.7949C33.1598 28.8516 33.2415 28.8251 33.2933 28.7809C33.4161 28.6766 33.5348 28.5674 33.6534 28.4582C34.1309 28.0182 34.6618 27.6532 35.2238 27.3312C36.3832 26.6666 37.6322 26.5993 38.9146 26.7893C39.8109 26.9221 40.659 27.2257 41.4811 27.594C42.9206 28.2392 44.2305 29.0976 45.4676 30.0708C45.522 30.1136 45.5781 30.1559 45.6244 30.2067C45.688 30.2765 45.7343 30.3657 45.6814 30.4535C45.6511 30.5035 45.581 30.5408 45.5212 30.5585C45.457 30.5778 45.384 30.5717 45.3149 30.5694C44.3642 30.5387 43.4959 30.8418 42.6644 31.2559C42.1078 31.5332 41.5756 31.8593 41.032 32.1627C40.7903 32.2975 40.5439 32.4243 40.3057 32.565C39.205 33.2148 38.0063 33.3423 36.7634 33.2342C36.6261 33.2223 36.487 33.2029 36.3546 33.1659C35.3016 32.8717 34.316 32.4337 33.4403 31.7698C33.1634 31.5599 32.9129 31.3206 32.7337 31.0179C32.6004 30.7927 32.6623 30.6223 32.9334 30.5612C33.4042 30.4548 33.8807 30.3713 34.357 30.2904C34.7612 30.2217 35.1683 30.1701 35.695 30.0933Z" fill="#FDD105"/>
<path fill-rule="evenodd" clip-rule="evenodd" d="M20.8921 24.2159C20.9574 24.3274 21.0602 24.356 21.1804 24.3456C21.1595 24.4248 21.2039 24.4769 21.2618 24.5141C21.2934 24.5344 21.338 24.5343 21.3766 24.5435C21.3696 24.5077 21.3745 24.4548 21.353 24.4398C21.2992 24.4023 21.2334 24.3822 21.1722 24.3554C21.1084 24.2403 21.0047 24.2139 20.8838 24.2256C20.9042 24.1467 20.8605 24.0931 20.8038 24.0537C20.7729 24.0322 20.7282 24.0307 20.6896 24.0201C20.6967 24.0556 20.6915 24.1074 20.7132 24.1234C20.7661 24.1631 20.8314 24.1863 20.8921 24.2159ZM19.0935 22.8266C19.1399 22.8752 19.1864 22.924 19.233 22.9726C19.3097 23.061 19.4021 23.1121 19.5234 23.094C19.5393 23.3503 19.728 23.4413 19.9302 23.5192C20.1475 23.7345 20.1475 23.7345 20.4709 23.8593C20.3121 23.6427 20.1738 23.4914 19.9185 23.5295C19.9148 23.2637 19.6864 23.2108 19.5149 23.104C19.4409 23.0085 19.3386 22.9802 19.224 22.9811C19.2118 22.8997 19.1548 22.8614 19.0845 22.8357C19.0702 22.8221 19.0561 22.8087 19.0418 22.7953C19.059 22.8058 19.0762 22.8162 19.0935 22.8266ZM19.7385 25.4935C18.687 25.4892 17.6742 25.2999 16.7281 24.8273C15.8582 24.3928 15.2122 23.6988 14.6602 22.924C13.9305 21.8996 13.458 20.7482 13.1034 19.5457C12.7571 18.3711 12.5184 17.176 12.399 15.9573C12.3903 15.869 12.3872 15.775 12.4082 15.6905C12.4241 15.627 12.49 15.5755 12.5671 15.6026C12.6303 15.625 12.6978 15.6556 12.7442 15.7016C13.6235 16.5733 14.7056 17.0618 15.8821 17.3755C16.3947 17.5123 16.909 17.6442 17.4158 17.7997C17.8339 17.9281 18.2503 18.0693 18.6533 18.2378C19.7829 18.7103 20.6199 19.5141 21.1924 20.5865C21.6743 21.4893 21.973 22.4566 22.1055 23.4723C22.1443 23.7706 22.1627 24.0725 22.0518 24.3618C22.0201 24.4441 21.9635 24.5767 21.9098 24.581C21.5984 24.6066 21.6131 24.8429 21.5473 25.0506C21.5182 25.1428 21.3932 25.2173 21.2964 25.2733C20.943 25.4782 20.5481 25.4884 20.154 25.4932C20.0155 25.4948 19.877 25.4935 19.7385 25.4935Z" fill="#FDD105"/>
<path fill-rule="evenodd" clip-rule="evenodd" d="M26.6369 17.9119C26.5366 18.7742 26.6797 19.4778 26.7866 20.1835C26.8382 20.5244 26.9224 20.8602 26.9759 21.201C27.0385 21.6003 26.8344 21.755 26.4415 21.6197C26.1539 21.5207 25.9014 21.3613 25.6706 21.1662C24.8281 20.454 24.1933 19.5792 23.7316 18.5866C23.4076 17.8897 23.3081 17.145 23.3264 16.3669C23.3633 14.802 23.8774 13.3881 24.5765 12.0211C25.1136 10.9707 25.7596 9.98955 26.4691 9.04895C26.5525 8.93857 26.6409 8.83152 26.7342 8.72966C26.8097 8.64731 26.8841 8.53347 27.0144 8.56564C27.1979 8.61067 27.1539 8.77828 27.1597 8.90683C27.2025 9.86706 27.4569 10.7709 27.9008 11.6189C28.1894 12.1701 28.5128 12.703 28.8084 13.2507C29.0491 13.6967 29.2937 14.143 29.4982 14.6059C29.9718 15.6768 30.0358 16.7944 29.7703 17.9243C29.5412 18.8995 29.1071 19.7906 28.5354 20.6118C28.311 20.9341 28.0523 21.2316 27.7291 21.4614C27.4235 21.6785 27.1994 21.5922 27.13 21.2291C27.035 20.7321 26.9417 20.2343 26.8674 19.7338C26.7863 19.188 26.7276 18.639 26.6369 17.9119Z" fill="#FDD105"/>
<path fill-rule="evenodd" clip-rule="evenodd" d="M32.8048 22.6857C33.0006 22.6045 33.2157 22.5421 33.215 22.2679C33.5198 22.1841 33.5198 22.1841 33.7034 21.9227C33.4918 21.9927 33.3407 22.11 33.2275 22.2789C33.0105 22.3402 32.821 22.4286 32.8138 22.6973C32.7593 22.6922 32.6793 22.6574 32.7277 22.7716C32.7534 22.7429 32.7791 22.7143 32.8048 22.6857ZM31.9819 23.389C31.9588 23.3885 31.9353 23.3847 31.9128 23.3877C31.3715 23.461 31.2891 23.403 31.2529 22.9114C31.2134 22.3753 31.2938 21.852 31.4587 21.3445C31.7022 20.5953 32.0468 19.8915 32.4982 19.2459C33.1568 18.3039 34.0889 17.719 35.1403 17.3196C36.0483 16.9747 36.9928 16.7723 37.9675 16.7243C38.4505 16.7004 38.9329 16.6315 39.415 16.6363C40.4982 16.6469 41.5767 16.7417 42.6487 16.9003C42.6936 16.907 42.737 16.9243 42.7805 16.9385C42.894 16.9756 42.9364 17.1455 42.8454 17.2186C42.7564 17.2902 42.662 17.3568 42.5634 17.4141C41.7041 17.9136 41.0626 18.6296 40.5474 19.464C40.1361 20.1305 39.7458 20.8101 39.3472 21.4846C39.1119 21.8827 38.837 22.2508 38.5304 22.5974C37.6322 23.6129 36.4892 24.1587 35.1614 24.3204C34.4061 24.4123 33.6441 24.4171 32.8833 24.35C32.5558 24.321 32.2472 24.2366 31.9673 24.0667C31.7766 23.951 31.6694 23.7995 31.8638 23.5535C31.9057 23.5003 31.9349 23.4369 31.9699 23.3783C32.2147 23.31 32.3626 23.1405 32.4567 22.9156C32.2539 23.0284 32.0024 23.0936 31.9819 23.389Z" fill="#FDD105"/>
<path fill-rule="evenodd" clip-rule="evenodd" d="M17.7908 30.8144C18.8328 30.8649 19.8519 30.6894 20.8684 30.4957C21.0733 30.4568 21.2749 30.4145 21.4838 30.4431C21.6183 30.4614 21.7311 30.6101 21.7034 30.7449C21.6418 31.0431 21.5162 31.3172 21.3233 31.5497C20.3742 32.6935 19.2323 33.566 17.7711 33.9378C16.9347 34.1506 16.075 34.1067 15.2319 33.9636C13.8274 33.7253 12.557 33.1276 11.3287 32.4292C10.4853 31.9495 9.691 31.3985 8.92535 30.8049C8.83433 30.7344 8.74663 30.6593 8.66048 30.5829C8.58968 30.5198 8.53991 30.4413 8.568 30.3425C8.59802 30.2374 8.69164 30.2032 8.78442 30.2085C9.98054 30.2779 11.0394 29.8489 12.0613 29.2996C12.6497 28.9836 13.2218 28.637 13.8059 28.3127C14.0472 28.1787 14.2964 28.0566 14.5496 27.9469C15.8547 27.3816 17.1846 27.3424 18.5236 27.804C19.3771 28.0982 20.1816 28.4961 20.8926 29.0632C21.1458 29.2653 21.3853 29.4824 21.5447 29.7702C21.6505 29.961 21.5876 30.1461 21.3766 30.204C21.0448 30.2954 20.7087 30.3802 20.3689 30.4323C19.5733 30.5543 18.7744 30.6547 17.977 30.7658C17.9127 30.7747 17.8504 30.7986 17.7908 30.8144Z" fill="#FDD105"/>
<path fill-rule="evenodd" clip-rule="evenodd" d="M29.1888 73.1466C29.1486 73.1668 29.1086 73.2038 29.0682 73.2044C28.2253 73.2138 27.3821 73.2504 26.5396 73.1852C26.5401 72.5401 26.5667 71.8936 26.537 71.2499C26.4006 68.3036 26.5094 65.3538 26.4044 62.4076C26.365 61.3025 26.3073 60.1983 26.2569 59.0938C26.2527 59.0019 26.2266 58.9093 26.2341 58.8188C26.3057 57.9519 26.2917 58.0446 27.0142 58.0424C27.4981 58.0408 27.982 58.0379 28.4659 58.0466C28.7314 58.0513 28.7912 58.1075 28.8097 58.3699C28.8566 59.0356 28.8951 59.7021 28.9338 60.3685C29.1244 63.6596 29.0293 66.956 29.1147 70.2484C29.1398 71.214 29.1428 72.1813 29.1888 73.1466Z" fill="#FDD105"/>
<path fill-rule="evenodd" clip-rule="evenodd" d="M27.7706 87.8918C29.8009 87.8918 31.8311 87.8916 33.8614 87.8921C34.0459 87.8922 34.2306 87.8922 34.4149 87.8991C34.5459 87.904 34.6202 88.0369 34.5452 88.1315C34.4595 88.2398 34.3672 88.3432 34.272 88.4433C33.0601 89.7181 31.5823 90.5385 29.873 90.9037C27.9103 91.3231 25.9764 91.1985 24.1076 90.4137C23.0081 89.9522 22.0472 89.2893 21.227 88.4237C21.1324 88.3239 21.0471 88.2145 20.9635 88.1052C20.9059 88.0297 20.962 87.9105 21.0581 87.9065C21.2651 87.8974 21.4726 87.8925 21.6799 87.8924C23.7101 87.8915 25.7404 87.8918 27.7706 87.8918Z" fill="#FDD105"/>
<path fill-rule="evenodd" clip-rule="evenodd" d="M37.305 47.3707C37.1156 47.9416 36.8496 48.4132 36.7905 48.9753C37.1789 49.0077 37.5357 49.0223 37.9604 48.9571C37.7423 48.4256 37.6199 47.8999 37.305 47.3707ZM32.3489 48.1508C32.5962 48.1413 32.872 48.1753 33.1396 48.0948C33.4123 48.0127 33.5537 47.8203 33.5519 47.5371C33.5505 47.2598 33.403 47.0476 33.1265 46.9921C32.6989 46.9061 32.2632 46.943 31.8308 46.9554C31.7327 46.9583 31.6791 47.0461 31.6724 47.1444C31.6646 47.2578 31.6646 47.3721 31.6645 47.486C31.6631 48.2283 31.626 48.1463 32.3489 48.1508ZM30.7493 50.8595C30.667 50.2804 30.6705 46.7185 30.7617 46.1276C31.6467 46.1432 32.541 46.0602 33.4316 46.193C34.0921 46.2915 34.4273 46.6208 34.543 47.241C34.6574 47.8527 34.4027 48.3506 33.8208 48.6691C33.7271 48.7203 33.5925 48.7029 33.5246 48.8596C33.6909 49.053 33.8785 49.2489 34.0391 49.4648C34.2037 49.6861 34.3364 49.9306 34.493 50.1579C34.6456 50.3795 34.7443 50.6424 34.9605 50.8237C35.1411 50.605 35.1932 50.3505 35.2853 50.1166C35.7487 48.9385 36.205 47.7577 36.6578 46.5754C36.8625 46.0407 36.8692 46.1367 37.2942 46.1249C37.3171 46.1241 37.3402 46.1247 37.3633 46.1247C37.8424 46.1272 37.8476 46.1251 38.0198 46.5539C38.5434 47.8568 39.0644 49.1605 39.5802 50.4664C39.6287 50.589 39.7217 50.7102 39.6671 50.8601C39.5156 50.9355 39.3521 50.9048 39.1931 50.9078C38.651 50.9182 38.7101 50.8848 38.5416 50.4769C38.4557 50.2689 38.4506 49.9972 38.2498 49.8733C38.0524 49.7516 37.799 49.8361 37.5706 49.8234C37.4787 49.8183 37.3861 49.8201 37.2939 49.8231C37.0186 49.8322 36.7113 49.7706 36.4765 49.8733C36.2203 49.9854 36.2299 50.3436 36.1335 50.5961C36.0469 50.8234 35.9234 50.9354 35.6749 50.9109C35.4921 50.8928 35.2876 50.9444 35.1285 50.8781C34.9572 50.807 34.8367 50.8989 34.6936 50.9042C34.5094 50.9113 34.3234 50.894 34.1407 50.9119C33.8732 50.9383 33.7213 50.81 33.5865 50.5951C33.3296 50.1854 33.0463 49.7924 32.7795 49.3887C32.5885 49.0995 32.3297 48.9396 31.9806 48.9183C31.7651 48.9052 31.672 48.9646 31.6687 49.1739C31.6615 49.635 31.6694 50.0963 31.662 50.5573C31.6571 50.8741 31.6245 50.8999 31.2932 50.9077C31.155 50.9109 31.0163 50.9094 30.8784 50.9027C30.8347 50.9006 30.7921 50.8747 30.7493 50.8595Z" fill="white"/>
<path fill-rule="evenodd" clip-rule="evenodd" d="M52.1009 41.4324C51.879 42.0125 51.6466 42.4943 51.5344 43.0808C51.7694 43.0808 51.9522 43.0893 52.134 43.0784C52.3086 43.0676 52.4968 43.1329 52.6804 42.9878C52.5535 42.4853 52.3577 42.0033 52.1009 41.4324ZM47.1477 42.8452C47.1017 42.8806 47.062 42.9054 47.0291 42.9373C46.4165 43.5306 46.4174 43.5309 46.4111 44.3658C46.4099 44.5268 46.4033 44.688 46.3935 44.8488C46.3889 44.9272 46.328 44.9636 46.2593 44.9793C46.2153 44.9896 46.168 44.9889 46.1221 44.9887C45.4012 44.9858 45.4383 45.0633 45.4389 44.3313C45.4399 43.1547 45.4392 41.9779 45.4392 40.8013V40.3181C45.7531 40.1809 46.0478 40.2424 46.335 40.2538C46.4662 40.4611 46.4001 40.6728 46.409 40.8736C46.4203 41.1269 46.4059 41.3814 46.414 41.6349C46.4189 41.7897 46.3421 42.0192 46.4839 42.0803C46.6827 42.1662 46.7807 41.923 46.8985 41.8C47.3136 41.3671 47.7213 40.9269 48.1228 40.4813C48.2709 40.3168 48.4281 40.2117 48.6597 40.234C48.9497 40.262 49.2502 40.1819 49.5805 40.3133C49.2336 40.6745 48.9158 41.006 48.5971 41.3369C48.4053 41.5363 48.2121 41.7343 48.0201 41.9335C47.9319 42.0248 47.9052 42.1184 47.9831 42.2373C48.5384 43.0857 49.0895 43.937 49.6454 44.7853C49.6667 44.8179 49.7217 44.8286 49.7939 44.8671C49.8597 44.7005 49.9253 44.5375 49.9889 44.3737C50.4723 43.1282 50.9611 41.8846 51.4341 40.6352C51.5342 40.3707 51.6406 40.2141 51.9693 40.2273C52.769 40.2594 52.5929 40.1616 52.8621 40.8189C53.3511 42.0124 53.8178 43.215 54.2958 44.4133C54.3633 44.5828 54.4552 44.7444 54.4478 44.9328C54.316 45.0169 54.1741 44.9889 54.0381 44.9883C53.3777 44.9857 53.5178 45.0336 53.2956 44.5014C53.0247 43.8526 53.2011 43.9017 52.4166 43.9C52.3013 43.8997 52.1858 43.8968 52.0706 43.9005C51.7955 43.9098 51.4862 43.8475 51.2551 43.9539C51.0072 44.068 50.9966 44.4183 50.9072 44.6752C50.8302 44.8968 50.7082 45.0037 50.4548 44.9949C49.9296 44.9766 49.4027 44.9785 48.8771 44.9945C48.6189 45.0024 48.4506 44.9254 48.3225 44.6916C48.0569 44.2067 47.7692 43.7338 47.4847 43.2593C47.4036 43.1238 47.3546 42.9615 47.1477 42.8452Z" fill="white"/>
<path fill-rule="evenodd" clip-rule="evenodd" d="M45.0614 53.6352C45.0178 53.6345 44.9742 53.6338 44.9308 53.6332C44.7731 54.0561 44.6126 54.4777 44.4597 54.9022C44.3984 55.0721 44.4608 55.1561 44.6498 55.1616C44.8786 55.1683 45.1078 55.1683 45.3366 55.1619C45.534 55.1562 45.5999 55.0766 45.5399 54.9112C45.3851 54.4842 45.2214 54.0602 45.0614 53.6352ZM39.3558 54.3058C39.728 53.9708 39.9892 53.6553 40.2708 53.3605C40.3823 53.2438 40.4859 53.1193 40.6011 53.0067C40.8302 52.7823 40.9846 52.4261 41.2886 52.349C41.6326 52.2617 42.0158 52.3288 42.3755 52.3288C42.4399 52.4872 42.3202 52.5502 42.2472 52.6265C41.8163 53.0756 41.3845 53.524 40.9457 53.9653C40.8057 54.1058 40.8056 54.2319 40.909 54.3897C41.4636 55.2366 42.0138 56.0862 42.5572 56.9222C42.7314 56.8969 42.7505 56.7779 42.7912 56.6724C43.2549 55.4699 43.7194 54.2676 44.185 53.0657C44.2599 52.8725 44.3457 52.6835 44.4164 52.489C44.4634 52.3602 44.5544 52.3119 44.6791 52.3138C44.9538 52.3178 45.2312 52.2767 45.5333 52.3588C46.1414 53.8823 46.7542 55.4176 47.3539 56.92C47.2728 57.0651 47.1771 57.0565 47.0902 57.0558C46.2116 57.0475 46.4212 57.1544 46.1118 56.4021C46.0769 56.3171 46.0453 56.2306 46.0055 56.1481C45.9511 56.0355 45.8583 55.9767 45.7317 55.9765C45.2475 55.9764 44.7634 55.9741 44.2792 55.9774C44.1561 55.9782 44.0608 56.036 44.0142 56.1584C43.9732 56.266 43.9279 56.3721 43.8869 56.4796C43.6619 57.0709 43.6623 57.0673 43.0727 57.0586C42.6384 57.0524 42.2026 57.0356 41.7704 57.0647C41.466 57.0853 41.3083 56.9546 41.1721 56.709C40.893 56.2055 40.5941 55.7129 40.3011 55.2174C40.2431 55.119 40.1753 55.0267 40.1003 54.9138C39.8231 55.0277 39.683 55.2774 39.4809 55.4518C39.3498 55.5651 39.3063 55.7115 39.3101 55.8832C39.3166 56.1828 39.3156 56.4826 39.309 56.7822C39.3037 57.0138 39.2635 57.0543 39.0148 57.0548C38.2718 57.056 38.3409 57.1357 38.3399 56.4032C38.3383 55.2275 38.3395 54.0517 38.3398 52.8758C38.3398 52.7607 38.3415 52.6454 38.3438 52.5301C38.3464 52.3961 38.411 52.3152 38.5494 52.3143C39.4093 52.309 39.3052 52.2129 39.3112 53.0186C39.3137 53.3643 39.3118 53.7102 39.3143 54.0561C39.3146 54.1 39.3283 54.1438 39.3558 54.3058Z" fill="white"/>
<path fill-rule="evenodd" clip-rule="evenodd" d="M22.1231 15.9336C22.0955 16.1361 22.0764 16.3427 22.0379 16.5454C21.923 17.149 21.5288 17.4906 20.915 17.3957C19.6247 17.1963 18.6438 16.5479 18.1364 15.2909C17.9002 14.7057 17.8281 14.0861 17.7596 13.4695C17.6726 12.685 17.7899 11.9052 17.8912 11.1281C17.8985 11.0706 17.9564 10.9985 18.0097 10.973C18.1019 10.9288 18.1927 10.9763 18.24 11.0626C18.6373 11.7867 19.3133 12.1844 19.9947 12.5808C20.3131 12.7661 20.6297 12.959 20.9248 13.1787C21.5459 13.6412 21.9042 14.2702 22.0159 15.0359C22.059 15.3318 22.0873 15.6297 22.1231 15.9336Z" fill="#FDD105"/>
<path fill-rule="evenodd" clip-rule="evenodd" d="M31.4325 15.3013C31.4918 13.9678 31.9711 12.9584 33.0841 12.29C33.9067 11.7962 34.7996 11.5096 35.7318 11.3372C36.0689 11.275 36.4036 11.1613 36.7545 11.197C36.8147 11.203 36.896 11.2347 36.9221 11.2805C36.9494 11.3284 36.949 11.4343 36.9145 11.469C36.2487 12.1405 36.0288 13.0127 35.8055 13.8859C35.7485 14.1081 35.6669 14.3246 35.5886 14.5407C35.3241 15.2694 34.8322 15.7973 34.1423 16.1388C33.6443 16.3853 33.1199 16.5387 32.5633 16.6088C32.0307 16.6759 31.5068 16.2076 31.4565 15.7054C31.4403 15.5452 31.4373 15.3838 31.4325 15.3013Z" fill="#FDD105"/>
<path fill-rule="evenodd" clip-rule="evenodd" d="M12.5672 23.9087C13.7713 23.9565 14.5574 24.3052 15.2389 24.8918C15.6099 25.2112 15.6741 25.7168 15.4234 26.1388C15.3302 26.2955 15.2266 26.4581 15.091 26.5755C14.5128 27.0765 13.8956 27.4977 13.1066 27.6194C12.5883 27.6992 12.0898 27.6187 11.6073 27.4884C10.411 27.166 9.37734 26.5241 8.42678 25.7435C8.38205 25.7067 8.35712 25.6284 8.35089 25.5666C8.34224 25.4811 8.4226 25.4523 8.48782 25.4473C9.38774 25.3797 10.1573 24.9809 10.9122 24.5256C11.5069 24.1671 12.1309 23.8686 12.5672 23.9087Z" fill="#FDD105"/>
<path fill-rule="evenodd" clip-rule="evenodd" d="M42.0017 22.3753C43.1766 22.3646 44.2637 22.7243 45.3309 23.1666C45.3519 23.1753 45.3746 23.186 45.3896 23.202C45.4342 23.2503 45.4961 23.2956 45.5133 23.3533C45.5457 23.4626 45.4595 23.5306 45.3733 23.5557C44.5441 23.7965 43.933 24.3482 43.3588 24.9546C43.2797 25.0382 43.1928 25.114 43.1148 25.1986C41.9353 26.4769 40.3361 26.339 39.1047 25.8218C38.5416 25.5852 38.3333 25.0087 38.5972 24.4463C39.1598 23.2465 40.1777 22.3185 41.6566 22.3747C41.7716 22.3791 41.8867 22.3753 42.0017 22.3753Z" fill="#FDD105"/>
<path fill-rule="evenodd" clip-rule="evenodd" d="M21.4745 43.2073C21.6602 43.004 21.6803 42.8179 21.7267 42.6421C21.9142 41.9296 22.1058 41.2179 22.2884 40.5042C22.3355 40.3203 22.4304 40.2287 22.6249 40.2339C23.6686 40.2624 23.4793 40.047 23.7248 41.0201C23.9048 41.7342 24.0833 42.4488 24.2622 43.1613C24.4302 43.1835 24.4485 43.0618 24.471 42.9587C24.6188 42.2839 24.7609 41.6077 24.9084 40.9325C24.9572 40.7098 25.0164 40.4893 25.0788 40.2347C25.3056 40.2347 25.5106 40.2305 25.7153 40.2366C25.8025 40.2392 25.8889 40.2634 26.0229 40.2856C25.6482 41.8525 25.2798 43.393 24.9177 44.9069C24.7112 45.0284 24.5231 44.9818 24.3429 44.9853C24.1844 44.9883 24.019 45.0189 23.8555 44.9218C23.5078 43.9139 23.3654 42.8352 22.9766 41.8278C22.97 41.811 22.9384 41.8039 22.8795 41.7694C22.5076 42.811 22.33 43.9004 21.9749 44.946C21.6292 45.031 21.2898 44.9704 20.922 44.9805C20.5561 43.4029 20.1989 41.8622 19.843 40.3278C20.0989 40.1735 20.3332 40.2424 20.5558 40.2391C20.7914 40.2354 20.8327 40.2779 20.8819 40.5062C21.0273 41.1815 21.1671 41.8583 21.3121 42.5338C21.3552 42.735 21.4083 42.9341 21.4745 43.2073Z" fill="white"/>
<path fill-rule="evenodd" clip-rule="evenodd" d="M26.3105 46.1484H29.7368C29.8007 46.4125 29.8049 46.654 29.7424 46.9384H27.3384C27.2974 47.0196 27.2608 47.059 27.2596 47.0994C27.2256 48.1758 27.1393 47.9749 28.0919 47.9954C28.5299 48.0046 28.968 47.9995 29.4061 48.0034C29.5423 48.0046 29.6142 48.0756 29.6127 48.2157C29.6117 48.3081 29.6169 48.4002 29.614 48.4924C29.606 48.76 29.5671 48.8053 29.2851 48.8085C28.6855 48.8157 28.0858 48.814 27.4863 48.8131C27.3127 48.813 27.2361 48.8984 27.2435 49.0663C27.2574 49.3862 27.2008 49.7099 27.2971 50.0772C27.7264 50.0812 28.1581 50.0868 28.5897 50.0889C29.0035 50.0909 29.4171 50.0893 29.8071 50.0893C29.9173 50.2789 29.8854 50.4438 29.8835 50.6026C29.8805 50.8432 29.8305 50.9045 29.6133 50.9054C28.5756 50.9093 27.5376 50.9061 26.4999 50.9054C26.3662 50.9054 26.2861 50.8445 26.2769 50.7063C26.2721 50.6374 26.2691 50.5682 26.2691 50.499C26.2691 49.1384 26.2691 47.7776 26.2712 46.4169C26.2714 46.3496 26.2903 46.2824 26.3105 46.1484Z" fill="white"/>
<path fill-rule="evenodd" clip-rule="evenodd" d="M11.4539 50.09C11.4539 50.3232 11.4589 50.4598 11.4528 50.5958C11.4406 50.8622 11.4017 50.9056 11.117 50.9069C10.1264 50.9115 9.13586 50.9107 8.14518 50.9074C7.90006 50.9066 7.83804 50.8575 7.83804 50.646C7.83818 49.1949 7.8441 47.7438 7.8513 46.2928C7.8516 46.2513 7.88667 46.2098 7.92503 46.1253H9.34777C9.90077 46.1255 10.4536 46.1216 11.0064 46.1273C11.3208 46.1307 11.3473 46.1623 11.3509 46.4935C11.3523 46.6293 11.379 46.7709 11.2718 46.9375H8.89175C8.75859 47.2845 8.80893 47.5975 8.82815 47.8861C8.98971 48.0384 9.15548 47.9936 9.30826 47.9953C9.86109 48.0019 10.4141 48.0005 10.9669 48.0038C11.0993 48.0047 11.1799 48.067 11.1816 48.2087C11.1823 48.2776 11.1846 48.3469 11.1841 48.416C11.1817 48.7732 11.1557 48.8061 10.792 48.8103C10.2161 48.8169 9.64007 48.8141 9.06428 48.8131C8.89868 48.8129 8.80634 48.8821 8.80967 49.0557C8.81011 49.0786 8.80752 49.1017 8.80792 49.1247C8.82626 50.276 8.64983 50.0695 9.73167 50.0883C10.2823 50.098 10.8336 50.09 11.4539 50.09Z" fill="white"/>
<path fill-rule="evenodd" clip-rule="evenodd" d="M29.9614 42.6145C29.9371 42.3991 29.9317 42.1664 29.8814 41.9438C29.7489 41.3577 29.2889 40.9892 28.7003 40.9728C28.0747 40.9552 27.5747 41.3144 27.4242 41.9161C27.311 42.3688 27.3093 42.8318 27.4264 43.2839C27.5737 43.8519 28.0694 44.2321 28.6362 44.242C29.2284 44.2522 29.7367 43.8524 29.8797 43.2452C29.9268 43.0451 29.934 42.8357 29.9614 42.6145ZM30.9932 42.6142C30.9384 42.932 30.9202 43.2601 30.8228 43.5626C30.4974 44.5735 29.7033 45.1123 28.5381 45.0728C27.3313 45.0317 26.591 44.3383 26.3787 43.1475C26.2916 42.6586 26.3222 42.1777 26.4555 41.713C26.681 40.9279 27.1837 40.3906 28.0012 40.2029C28.4547 40.0988 28.911 40.104 29.3655 40.2301C30.1172 40.4387 30.5968 40.9303 30.8247 41.6586C30.9198 41.9621 30.9384 42.2896 30.9932 42.6142Z" fill="white"/>
<path fill-rule="evenodd" clip-rule="evenodd" d="M24.7133 52.329C24.0921 52.9752 23.5404 53.5491 22.9611 54.1517C23.5373 55.1116 24.1742 56.0102 24.7714 56.9889C24.3997 57.1149 24.0399 57.0455 23.6873 57.0478C23.551 57.0487 23.4964 56.9296 23.439 56.8337C23.1552 56.3588 22.8784 55.8798 22.5948 55.4048C22.5019 55.2491 22.4414 55.0692 22.2853 54.9571C22.0288 55.1138 21.6683 55.4229 21.5758 55.5578C21.4926 55.6792 21.4848 55.8148 21.4854 55.9545C21.4868 56.2976 21.4858 56.6407 21.4858 57.0237C21.1635 57.0771 20.8753 57.0697 20.5902 57.0344C20.4883 56.4435 20.4605 53.983 20.5332 52.4013C20.6653 52.2703 20.834 52.3178 20.9903 52.3107C21.1277 52.3045 21.2657 52.3094 21.4282 52.3094C21.5408 52.6605 21.4493 53.0078 21.489 53.3434C21.5219 53.6214 21.362 53.9301 21.6129 54.175C21.891 54.0811 22.015 53.818 22.2028 53.6275C22.5427 53.2825 22.8741 52.9282 23.1915 52.5624C23.3581 52.3701 23.543 52.2888 23.7936 52.3065C24.0647 52.3256 24.3376 52.3209 24.7133 52.329Z" fill="white"/>
<path fill-rule="evenodd" clip-rule="evenodd" d="M4.88196 46.9441C3.95647 46.9505 4.00725 46.8612 4.00668 47.5668C4.00624 48.1763 3.96744 48.1584 4.61749 48.1496C4.89219 48.146 5.17019 48.1486 5.44011 48.1066C5.7425 48.0596 5.92439 47.8106 5.91749 47.5245C5.91083 47.2443 5.71306 47.017 5.4036 46.9714C5.20064 46.9415 4.99217 46.949 4.88196 46.9441ZM5.81936 48.8166C6.41968 49.4044 6.82852 50.0843 7.21817 50.7996C7.0491 50.971 6.85779 50.8953 6.69074 50.9054C6.53147 50.9149 6.3621 50.9188 6.21279 50.8736C6.11843 50.8452 6.03911 50.7317 5.97591 50.6403C5.68765 50.2237 5.40461 49.8033 5.12546 49.3806C4.93331 49.0896 4.66988 48.9382 4.32162 48.9191C4.09959 48.907 4.01374 48.9614 4.01071 49.1733C4.00408 49.6575 4.01102 50.1415 4.00338 50.6256C3.99974 50.854 3.9461 50.8964 3.71209 50.908C3.689 50.909 3.66592 50.909 3.643 50.909C3.01876 50.9094 3.03232 50.9497 3.03377 50.3148C3.0368 49.1162 3.0342 47.9173 3.03535 46.7188C3.03548 46.5807 3.03824 46.4424 3.05019 46.3051C3.05914 46.2016 3.12725 46.1368 3.2314 46.1367C4.08313 46.1363 4.93749 46.0641 5.78534 46.1927C6.44044 46.2919 6.8089 46.6503 6.89733 47.2397C6.99314 47.8777 6.74469 48.3712 6.17368 48.6675C6.07747 48.7176 5.97332 48.7523 5.81936 48.8166Z" fill="white"/>
<path fill-rule="evenodd" clip-rule="evenodd" d="M31.2262 54.2946C31.3335 54.2881 31.5638 54.2906 31.7887 54.2569C32.0833 54.2132 32.2584 53.9719 32.2454 53.6704C32.2336 53.3961 32.0676 53.1728 31.7927 53.1549C31.3612 53.1265 30.9267 53.1389 30.4936 53.1431C30.3887 53.1439 30.3417 53.2276 30.3378 53.3299C30.3351 53.3983 30.3319 53.4669 30.3328 53.5353C30.344 54.3833 30.215 54.2874 31.2262 54.2946ZM33.499 57.0129C33.433 57.0255 33.3682 57.0469 33.3027 57.0491C32.4943 57.0769 32.4946 57.0759 32.0394 56.3941C31.8604 56.1256 31.6743 55.862 31.4993 55.5912C31.2333 55.1799 30.882 54.9871 30.3805 55.1303C30.2901 55.401 30.3427 55.6793 30.3339 55.9526C30.3251 56.229 30.3364 56.506 30.3294 56.7824C30.3234 57.0277 30.3023 57.0417 30.0356 57.0508C30.0125 57.0517 29.9896 57.0515 29.9665 57.0517C29.328 57.0541 29.3587 57.0815 29.3596 56.4596C29.3613 55.1916 29.3582 53.9238 29.362 52.6559C29.3629 52.3358 29.392 52.3078 29.7237 52.3057C30.3922 52.3019 31.0607 52.3062 31.7293 52.3106C31.8672 52.3117 32.0067 52.3189 32.1429 52.3398C33.0894 52.4859 33.5675 53.5383 33.0595 54.3529C32.9343 54.5534 32.7625 54.704 32.5498 54.8054C32.4285 54.8633 32.2856 54.8833 32.2085 55.0132C32.8834 55.7683 33.3548 56.4969 33.499 57.0129Z" fill="white"/>
<path fill-rule="evenodd" clip-rule="evenodd" d="M16.4238 50.843C16.4058 50.8621 16.3927 50.8885 16.3784 50.8892C16.0344 50.9046 15.6629 51 15.3557 50.8553C15.066 50.719 14.9845 50.3468 14.8163 50.0761C14.5497 49.6471 14.2995 49.2078 14.0292 48.7503C13.6982 48.8747 13.5342 49.1657 13.3127 49.3854C13.208 49.4891 13.2268 49.6422 13.2253 49.7799C13.222 50.0794 13.2239 50.3791 13.2165 50.6786C13.2132 50.8078 13.1432 50.8987 13.0066 50.9025C12.7782 50.9088 12.5497 50.9042 12.3518 50.9042C12.2358 50.7403 12.2519 50.5995 12.2518 50.4623C12.2511 49.1713 12.2511 47.8803 12.2518 46.5892C12.2519 46.4972 12.2553 46.4047 12.2636 46.3133C12.2729 46.2113 12.332 46.1397 12.4336 46.1312C12.5709 46.1196 12.7098 46.1216 12.848 46.1245C13.181 46.1315 13.2167 46.1592 13.2221 46.4703C13.2295 46.8853 13.221 47.3003 13.2275 47.7152C13.229 47.8203 13.1877 47.946 13.3149 48.0248C13.4545 48.0421 13.5032 47.9186 13.5743 47.8432C14.0172 47.3737 14.4653 46.9085 14.8887 46.4217C15.0907 46.1893 15.3143 46.0886 15.6126 46.1225C15.8348 46.1479 16.0644 46.0753 16.2813 46.1736C16.3104 46.4846 16.0176 46.5749 15.8648 46.7518C15.5488 47.1172 15.1973 47.4521 14.8546 47.794C14.7177 47.9307 14.7099 48.0602 14.8145 48.2193C15.1437 48.7193 15.4668 49.2237 15.7919 49.7264C15.9796 50.0165 16.167 50.307 16.3547 50.5971C16.4041 50.6734 16.4659 50.7464 16.4238 50.843Z" fill="white"/>
<path fill-rule="evenodd" clip-rule="evenodd" d="M9.43278 42.6189C9.42141 42.346 9.42629 42.0703 9.32674 41.8048C9.12305 41.2619 8.68894 40.963 8.10713 40.9741C7.56658 40.9845 7.1176 41.2888 6.94796 41.7963C6.76762 42.3356 6.76591 42.8865 6.9592 43.4233C7.13823 43.9203 7.61302 44.2391 8.13008 44.2446C8.65216 44.25 9.0864 43.9431 9.30322 43.4336C9.41505 43.1709 9.41737 42.8966 9.43278 42.6189ZM5.81693 42.5785C5.81921 42.5259 5.81921 42.4106 5.83032 42.2963C6.02365 40.3148 7.63957 39.864 8.94143 40.2619C9.71613 40.4986 10.1658 41.052 10.3535 41.8182C10.4809 42.338 10.4799 42.8727 10.3558 43.3929C10.1059 44.4414 9.29733 45.1353 7.9946 45.0717C6.62884 45.0049 5.8247 44.0828 5.81693 42.5785Z" fill="white"/>
<path fill-rule="evenodd" clip-rule="evenodd" d="M19.589 52.3662C19.7333 53.2663 19.5942 53.1187 18.9303 53.1277C18.3339 53.136 17.7373 53.1347 17.1698 53.1376C17.1199 53.2183 17.0793 53.2535 17.0782 53.2898C17.0483 54.2776 16.9501 54.1336 17.8838 54.1455C18.3222 54.1509 18.7606 54.1482 19.199 54.1476C19.3723 54.1475 19.4491 54.2444 19.4527 54.4043C19.4557 54.542 19.4567 54.6823 19.4342 54.8173C19.4257 54.868 19.3538 54.9342 19.3005 54.9459C19.1897 54.9701 19.0721 54.9671 18.9571 54.9675C18.4725 54.9694 17.9879 54.966 17.5035 54.9699C17.3682 54.971 17.2233 54.9349 17.0933 55.0633C17.0228 55.3582 17.0724 55.6819 17.0644 56.0032C17.0599 56.1844 17.1775 56.235 17.3318 56.2356C17.8624 56.2376 18.393 56.2381 18.9238 56.2391C19.1083 56.2395 19.293 56.2405 19.4776 56.2403C19.6148 56.2402 19.6994 56.317 19.709 56.4429C19.7213 56.6022 19.7079 56.7639 19.6986 56.9243C19.6939 57.0064 19.6202 57.0321 19.5559 57.0516C19.5132 57.0642 19.4643 57.0579 19.4182 57.0579C18.403 57.0579 17.3877 57.0601 16.3724 57.0556C16.1307 57.0546 16.091 57.0146 16.0904 56.7711C16.0865 55.3867 16.0865 54.0022 16.0894 52.6177C16.09 52.3659 16.1338 52.3137 16.3517 52.3131C17.3898 52.3104 18.4281 52.3145 19.4662 52.3191C19.5074 52.3192 19.5482 52.3498 19.589 52.3662Z" fill="white"/>
<path fill-rule="evenodd" clip-rule="evenodd" d="M18.5364 42.5489C18.5496 42.2836 18.5022 42.0118 18.3977 41.753C18.1956 41.2524 17.817 40.9969 17.2802 40.9787C16.7244 40.9598 16.2669 41.2326 16.0733 41.7272C15.8557 42.2829 15.8479 42.853 16.0544 43.4155C16.2274 43.8871 16.6012 44.2263 17.216 44.2413C17.7262 44.2538 18.2117 43.9831 18.4182 43.3787C18.5089 43.113 18.547 42.8428 18.5364 42.5489ZM19.5189 42.6003C19.5189 42.7152 19.5257 42.8306 19.5179 42.9451C19.4308 44.2296 18.5552 45.0623 17.2694 45.0861C15.9315 45.1109 14.9961 44.2364 14.9346 42.893C14.9145 42.4564 14.9164 42.0203 15.0688 41.5982C15.3397 40.8477 15.849 40.3627 16.6328 40.1923C17.0178 40.1086 17.4122 40.1091 17.798 40.1922C18.725 40.3915 19.3574 41.0863 19.4963 42.0499C19.5224 42.2312 19.5228 42.4165 19.5352 42.6L19.5189 42.6003Z" fill="white"/>
<path fill-rule="evenodd" clip-rule="evenodd" d="M17.9376 46.1717C18.0431 46.3187 18.0021 46.4844 18.003 46.6411C18.0073 47.4012 18.0037 48.1615 18.0061 48.9216C18.0067 49.1513 18.0028 49.3809 18.0826 49.6042C18.1847 49.8905 18.3788 50.0759 18.6764 50.1144C18.8786 50.1408 19.0925 50.1394 19.293 50.1039C19.5636 50.056 19.7536 49.877 19.7888 49.5978C19.8291 49.279 19.8454 48.9555 19.8491 48.6338C19.8581 47.8968 19.8491 47.1596 19.8558 46.4224C19.8578 46.1871 19.9146 46.1411 20.14 46.1288C20.823 46.0916 20.8254 46.0916 20.8264 46.7836C20.8275 47.4976 20.8278 48.2119 20.8194 48.9258C20.8166 49.1787 20.798 49.4326 20.7674 49.6839C20.6834 50.3719 20.2639 50.8226 19.5831 50.9372C19.1494 51.0101 18.7048 51.0194 18.2759 50.9275C17.6654 50.797 17.243 50.4399 17.1227 49.7953C17.089 49.6145 17.0492 49.4315 17.0472 49.249C17.0365 48.3046 17.0341 47.3603 17.0359 46.4158C17.0364 46.1841 17.0919 46.1328 17.3252 46.1317C17.53 46.1305 17.7394 46.0922 17.9376 46.1717Z" fill="white"/>
<path fill-rule="evenodd" clip-rule="evenodd" d="M11.1618 57.0535C10.525 57.0535 9.88303 57.0538 9.24105 57.0534C8.78039 57.0531 8.3199 57.0537 7.85927 57.0502C7.69192 57.0489 7.61587 56.9573 7.61617 56.7891C7.61748 55.7068 7.6156 54.6244 7.61617 53.5421C7.6163 53.1969 7.6192 52.8514 7.62337 52.5061C7.62469 52.4015 7.68183 52.336 7.78642 52.321C7.85436 52.3112 7.92344 52.3062 7.99213 52.3062C8.91325 52.3052 9.8344 52.302 10.7555 52.3069C11.156 52.3089 11.1751 52.3371 11.1674 52.7446C11.1665 52.7906 11.167 52.8368 11.1648 52.8826C11.1572 53.055 11.054 53.122 10.8945 53.1223C10.3879 53.1236 9.88128 53.1236 9.37478 53.1244C9.1904 53.1247 9.00616 53.1223 8.82208 53.1279C8.65245 53.1331 8.57757 53.2289 8.58895 53.3959C8.59053 53.419 8.58851 53.4421 8.58868 53.4652C8.59487 54.1767 8.49866 54.1437 9.24724 54.1419C9.79587 54.1408 10.3445 54.1417 10.8985 54.1417C10.9913 54.4273 10.9836 54.67 10.9144 54.9638C10.3551 54.9638 9.80684 54.9641 9.25865 54.9637C8.51942 54.9632 8.58837 54.9165 8.58911 55.6319C8.58952 56.2238 8.50744 56.2396 9.1829 56.2354C9.78173 56.2315 10.3804 56.2388 10.9791 56.2338C11.1561 56.2325 11.2303 56.318 11.2313 56.4796C11.2325 56.66 11.2654 56.8458 11.1618 57.0535Z" fill="white"/>
<path fill-rule="evenodd" clip-rule="evenodd" d="M50.5957 47.3827C50.362 47.922 50.1675 48.427 50.0275 48.9753C50.4308 49.0132 50.8054 49.0305 51.2246 48.9642C51.0259 48.4108 50.8723 47.8962 50.5957 47.3827ZM48.3521 50.8541C48.3039 50.7255 48.3672 50.6254 48.4085 50.5187C48.9157 49.2097 49.4309 47.9037 49.923 46.5891C50.1382 46.0145 50.2059 46.1373 50.6259 46.1312C51.0716 46.1246 51.1047 46.0819 51.2889 46.5491C51.8041 47.8548 52.3337 49.155 52.852 50.4596C52.9012 50.5834 52.9784 50.7091 52.934 50.8564C52.7867 50.9503 52.6219 50.9087 52.465 50.9118C51.8739 50.9229 51.9937 50.8774 51.815 50.4813C51.7226 50.276 51.7188 50.0046 51.5233 49.8794C51.3286 49.7543 51.0735 49.8406 50.8453 49.8279C50.7534 49.8229 50.6608 49.8249 50.5687 49.8276C50.293 49.8358 49.9848 49.7721 49.7509 49.8757C49.4968 49.9883 49.5052 50.3455 49.4077 50.5987C49.324 50.8158 49.2036 50.9486 48.9502 50.9147C48.7503 50.8878 48.5389 50.9615 48.3521 50.8541Z" fill="white"/>
<path fill-rule="evenodd" clip-rule="evenodd" d="M40.6656 41.5528C40.4745 42.0438 40.2011 42.4967 40.1329 43.0227C40.3281 43.1065 40.5127 43.0814 40.6928 43.0783C40.8727 43.0751 41.0592 43.1182 41.2532 43.012C41.1427 42.5085 40.938 42.0361 40.6656 41.5528ZM43.062 44.9295C42.9563 44.9593 42.9123 44.983 42.8686 44.9824C42.6158 44.9787 42.3331 45.0376 42.1187 44.9431C41.8871 44.8411 41.8943 44.5111 41.7901 44.2842C41.7613 44.2214 41.7336 44.158 41.7081 44.0938C41.6621 43.9782 41.5876 43.9038 41.4546 43.9041C40.9472 43.9051 40.44 43.9039 39.9328 43.9062C39.8357 43.9068 39.7582 43.9485 39.7179 44.0444C39.6913 44.108 39.6594 44.1698 39.633 44.2337C39.5296 44.4835 39.5352 44.8366 39.2787 44.9479C39.0177 45.061 38.6937 45.0171 38.375 44.9438C38.4286 44.7758 38.4693 44.621 38.5268 44.4724C39.0158 43.2052 39.5079 41.939 39.9997 40.6728C40.0414 40.5656 40.0781 40.4542 40.1368 40.3567C40.1672 40.3062 40.2366 40.2678 40.2963 40.2491C40.3601 40.2292 40.4332 40.2352 40.5023 40.2364C41.3359 40.2498 41.1566 40.1339 41.4421 40.8437C41.9489 42.1042 42.4509 43.3665 42.9544 44.6282C42.9876 44.7116 43.0152 44.7975 43.062 44.9295Z" fill="white"/>
<path fill-rule="evenodd" clip-rule="evenodd" d="M22.8207 47.5632C22.8207 47.7467 22.8125 47.9309 22.8256 48.1134C22.8296 48.1716 22.8885 48.2727 22.9256 48.2743C23.336 48.2916 23.7554 48.3634 24.1453 48.1691C24.3713 48.0567 24.4803 47.8573 24.476 47.6081C24.4717 47.3585 24.3509 47.1714 24.1256 47.0583C23.9129 46.9518 23.6823 46.9511 23.4519 46.9477C22.7888 46.9388 22.8054 46.8789 22.8207 47.5632ZM21.8957 50.8921C21.8124 50.2438 21.8184 46.7055 21.8978 46.1756C22.4834 46.1028 23.8228 46.1356 24.298 46.1733C24.9306 46.2236 25.4563 46.8046 25.4739 47.487C25.4951 48.3074 25.1265 48.8575 24.4013 49.0353C23.9702 49.141 23.5319 49.1055 23.0958 49.1179C22.855 49.1247 22.8162 49.1599 22.8125 49.3956C22.8058 49.8098 22.8092 50.224 22.8077 50.6382C22.8071 50.7991 22.7376 50.9035 22.5658 50.9039C22.3396 50.9044 22.1132 50.8963 21.8957 50.8921Z" fill="white"/>
<path fill-rule="evenodd" clip-rule="evenodd" d="M43.4143 49.1715C43.6043 49.2303 43.823 49.2909 44.0364 49.3665C44.1969 49.4231 44.2295 49.5174 44.1632 49.6957C43.8798 50.4589 43.35 50.9058 42.5218 50.9648C41.1507 51.0624 40.2156 50.2553 40.1174 48.8864C40.0877 48.4712 40.0912 48.0549 40.2021 47.6502C40.469 46.6757 41.2104 46.0975 42.218 46.0696C42.5656 46.0601 42.9094 46.0815 43.2317 46.2339C43.739 46.4737 44.081 46.8435 44.1852 47.4116C43.9942 47.5368 43.7896 47.5687 43.5901 47.6167C43.3836 47.6665 43.261 47.6088 43.1537 47.4054C42.9176 46.9574 42.5055 46.8432 42.0336 46.925C41.6076 46.9987 41.33 47.264 41.212 47.6724C41.0421 48.2609 41.0291 48.8581 41.2418 49.4377C41.445 49.9905 41.9528 50.2451 42.5195 50.1111C42.7803 50.0492 42.9624 49.8838 43.1104 49.6649C43.2118 49.5147 43.2076 49.3052 43.4143 49.1715Z" fill="white"/>
<path fill-rule="evenodd" clip-rule="evenodd" d="M2.01387 40.2876C2.0912 40.272 2.1792 40.2391 2.26733 40.2387C3.1442 40.2346 4.02103 40.2326 4.89773 40.2374C5.22405 40.2393 5.23993 40.2648 5.24239 40.5976C5.24253 40.6207 5.24266 40.6438 5.24239 40.6669C5.23805 40.9987 5.2115 41.035 4.90291 41.0408C4.5108 41.0481 4.11842 41.0428 3.72614 41.0434C3.56471 41.0437 3.40285 41.0392 3.24172 41.0476C3.01205 41.0594 2.95346 41.1181 2.93889 41.3277C2.93717 41.3508 2.93744 41.3739 2.93761 41.397C2.94192 42.1763 2.84614 42.1665 3.66614 42.1618C3.96608 42.16 4.26615 42.1568 4.56592 42.163C4.91937 42.1704 4.93871 42.1961 4.93784 42.5761C4.93683 42.9331 4.91506 42.9595 4.54169 42.9652C4.10341 42.9717 3.66483 42.9628 3.22654 42.9721C3.01161 42.9766 2.94468 43.048 2.94077 43.2708C2.93297 43.7091 2.93889 44.1475 2.93485 44.586C2.93384 44.6995 2.91755 44.8129 2.90887 44.9192C2.69754 45.0367 2.48705 44.984 2.28524 44.9854C2.01414 44.9875 1.96669 44.9401 1.96611 44.6616C1.96278 43.2541 1.96537 41.8467 1.968 40.4392C1.96813 40.3962 1.99324 40.3534 2.01387 40.2876Z" fill="white"/>
<path fill-rule="evenodd" clip-rule="evenodd" d="M26.3897 57.0299C26.3897 55.923 26.3899 54.8882 26.3896 53.8535C26.3896 53.6923 26.3847 53.5312 26.3877 53.3702C26.391 53.19 26.2844 53.1323 26.1285 53.1304C25.8292 53.1267 25.53 53.1239 25.2308 53.1258C25.052 53.127 24.9875 53.0205 24.9814 52.8667C24.9759 52.7294 24.9754 52.5896 24.9971 52.4548C25.0056 52.402 25.0746 52.3502 25.1278 52.3168C25.1617 52.2956 25.2174 52.3075 25.2633 52.3075C26.3452 52.3078 27.4271 52.3078 28.509 52.3109C28.5755 52.3111 28.6421 52.3361 28.7046 52.3488C28.8007 52.5297 28.759 52.7168 28.7581 52.898C28.7577 53.0282 28.6853 53.1141 28.5478 53.1173C28.2258 53.1245 27.9036 53.1258 27.5817 53.13C27.4469 53.1317 27.3696 53.1959 27.3681 53.3347C27.3651 53.6108 27.363 53.8871 27.3628 54.1632C27.3622 55.1034 27.3625 56.0437 27.3625 56.9933C27.0359 57.0923 26.745 57.0588 26.3897 57.0299Z" fill="white"/>
<path fill-rule="evenodd" clip-rule="evenodd" d="M37.2216 44.9439C36.1377 45.0661 36.3346 45.0202 36.3237 44.1476C36.3123 43.2254 36.3231 42.3031 36.3188 41.3808C36.3173 41.0932 36.2778 41.0544 36.0093 41.0467C35.7329 41.0391 35.4561 41.0447 35.1794 41.0399C35.0209 41.0374 34.9181 40.9674 34.9185 40.7927C34.9188 40.6774 34.9159 40.562 34.9203 40.447C34.9254 40.3081 35.0083 40.2463 35.141 40.2412C35.187 40.2393 35.233 40.236 35.2791 40.236C36.2935 40.2355 37.3082 40.2326 38.3226 40.237C38.6878 40.2384 38.7106 40.2699 38.7093 40.634C38.7093 40.6571 38.7096 40.68 38.7088 40.7031C38.6999 40.9798 38.6553 41.0329 38.3949 41.0411C38.1645 41.0485 37.9337 41.0476 37.7033 41.0431C37.2978 41.0352 37.295 41.1581 37.2952 41.4316C37.2953 42.0312 37.2947 42.6306 37.2946 43.23C37.2944 43.6911 37.2953 44.1523 37.2936 44.6134C37.2932 44.7269 37.3053 44.8445 37.2216 44.9439Z" fill="white"/>
<path fill-rule="evenodd" clip-rule="evenodd" d="M14.5732 40.2937C14.7535 41.1721 14.5454 41.0395 13.9858 41.0451C13.1211 41.0537 13.2336 40.9661 13.2283 41.8356C13.2232 42.6657 13.2277 43.4956 13.2267 44.3257C13.2264 44.487 13.2254 44.6486 13.214 44.8093C13.2066 44.9114 13.1359 44.9793 13.036 44.9845C12.8522 44.9941 12.6674 44.9892 12.483 44.9889C12.3484 44.9888 12.2683 44.9225 12.2624 44.786C12.2555 44.6248 12.2542 44.4634 12.254 44.3021C12.2533 43.4029 12.2562 42.5036 12.2529 41.6044C12.2507 41.0535 12.2468 41.053 11.6696 41.0462C11.4853 41.0441 11.3007 41.0437 11.1164 41.045C10.9535 41.046 10.8531 40.975 10.8435 40.8065C10.8372 40.6917 10.8384 40.576 10.8434 40.461C10.849 40.3286 10.9177 40.2486 11.0558 40.2437C11.1709 40.2395 11.286 40.2381 11.4013 40.238C12.3005 40.2375 13.1997 40.2365 14.0989 40.239C14.2583 40.2394 14.4228 40.2108 14.5732 40.2937Z" fill="white"/>
<path fill-rule="evenodd" clip-rule="evenodd" d="M33.4697 52.3779C34.2558 52.1546 34.7508 52.3356 35.0273 53.0565C35.1647 53.4147 35.4137 53.7301 35.6064 54.0553C35.7929 53.9996 35.8436 53.8642 35.9122 53.7468C36.1438 53.3498 36.3815 52.9563 36.6004 52.5523C36.7017 52.3655 36.8341 52.2908 37.0421 52.302C37.2701 52.3143 37.4992 52.3048 37.7097 52.3048C37.8158 52.4969 37.6814 52.5949 37.616 52.7006C37.1933 53.3848 36.7689 54.0685 36.3292 54.742C36.1839 54.9644 36.1175 55.1869 36.125 55.4515C36.1385 55.911 36.127 56.3713 36.1246 56.8312C36.1239 56.9658 36.0552 57.0463 35.9187 57.0472C35.0588 57.0527 35.1659 57.1536 35.1564 56.3482C35.1514 55.9117 35.2264 55.4502 35.1077 55.0461C34.9888 54.6426 34.6752 54.2956 34.4439 53.9257C34.1295 53.4229 33.8123 52.9219 33.4697 52.3779Z" fill="white"/>
<path fill-rule="evenodd" clip-rule="evenodd" d="M12.1154 56.9996C12.0399 56.8729 12.0659 56.7326 12.0658 56.5975C12.0637 55.3533 12.0643 54.109 12.065 52.8647C12.065 52.7497 12.0666 52.6342 12.0782 52.5199C12.0884 52.4175 12.1578 52.3517 12.2579 52.3485C12.4861 52.3412 12.7149 52.3462 12.921 52.3462C13.084 52.4965 13.0342 52.6652 13.0349 52.8174C13.0392 53.8082 13.0346 54.7989 13.0387 55.7897C13.0404 56.2281 13.0463 56.2326 13.5086 56.2369C14.0615 56.2422 14.6146 56.2412 15.1676 56.2382C15.345 56.2372 15.4136 56.3361 15.4234 56.4918C15.4304 56.6065 15.4261 56.7222 15.4227 56.8373C15.4185 56.9696 15.3554 57.0445 15.2153 57.056C14.8354 57.0875 12.4511 57.0472 12.1154 56.9996Z" fill="white"/>
<path fill-rule="evenodd" clip-rule="evenodd" d="M44.7588 49.4331C44.8542 49.4186 44.9655 49.3914 45.0776 49.3875C45.233 49.382 45.4106 49.2575 45.5361 49.3876C45.6218 49.4763 45.6274 49.6399 45.6772 49.7666C45.7898 50.0537 45.9532 50.1547 46.2604 50.1359C46.5015 50.1214 46.6185 50.0202 46.6999 49.7741C46.7738 49.5507 46.7667 49.3211 46.7668 49.0916C46.7674 48.2873 46.7664 47.4827 46.768 46.6785C46.7683 46.5413 46.7673 46.402 46.7914 46.2682C46.8003 46.2178 46.872 46.1627 46.9272 46.1414C46.9881 46.1177 47.0629 46.1291 47.1315 46.1275C47.7345 46.1138 47.7371 46.1141 47.739 46.7213C47.7415 47.5256 47.7379 48.33 47.7405 49.1344C47.7413 49.4114 47.7299 49.6864 47.6515 49.9536C47.6194 50.0628 47.5884 50.1759 47.5339 50.2746C47.1663 50.9385 46.5219 51.0633 45.7294 50.9411C45.1646 50.8541 44.805 50.4242 44.7136 49.7904C44.6973 49.6776 44.6815 49.5619 44.7588 49.4331Z" fill="white"/>
<path fill-rule="evenodd" clip-rule="evenodd" d="M34.9797 44.1625C35.028 44.2654 35.0448 44.2853 35.0462 44.3062C35.1065 45.1229 35.0559 44.9775 34.4178 44.9835C33.6127 44.9912 32.8073 44.9876 32.0021 44.9821C31.7733 44.9805 31.7184 44.9257 31.7179 44.6948C31.714 43.3144 31.714 41.9339 31.7176 40.5534C31.7183 40.3219 31.7708 40.2709 32.005 40.2708C32.7429 40.2704 32.6859 40.1786 32.6866 40.9121C32.6876 41.8783 32.6845 42.8448 32.6891 43.8111C32.6904 44.1335 32.7165 44.1582 33.0499 44.1609C33.6933 44.1664 34.3366 44.1625 34.9797 44.1625Z" fill="white"/>
<path fill-rule="evenodd" clip-rule="evenodd" d="M43.6336 40.3019C43.7579 40.2095 43.9 40.2399 44.0352 40.2376C44.6236 40.2273 44.561 40.2663 44.5615 40.7636C44.5622 41.9816 44.5619 43.1995 44.5615 44.4175C44.5615 44.5324 44.56 44.6472 44.5564 44.762C44.5522 44.8939 44.4862 44.9823 44.3514 44.9835C43.5067 44.9911 43.5919 45.1014 43.5903 44.288C43.5877 43.1391 43.5877 41.99 43.5914 40.8409C43.592 40.6606 43.5536 40.4747 43.6336 40.3019Z" fill="white"/>
<path fill-rule="evenodd" clip-rule="evenodd" d="M33.0191 29.0347C33.0068 29.0277 32.9921 29.0192 32.9775 29.0106C32.9931 28.987 33.0087 28.9632 33.0243 28.9395C33.0387 28.9561 33.065 28.9732 33.0642 28.989C33.0633 29.0047 33.0355 29.0192 33.0191 29.0347Z" fill="white"/>
<path fill-rule="evenodd" clip-rule="evenodd" d="M19.9196 23.5281C20.175 23.49 20.3133 23.6414 20.472 23.8579C20.1486 23.7331 20.1486 23.7331 19.9315 23.5179L19.9196 23.5281Z" fill="white"/>
<path fill-rule="evenodd" clip-rule="evenodd" d="M19.9313 23.5156C19.729 23.4377 19.5403 23.3467 19.5243 23.0903L19.5162 23.1C19.6873 23.2072 19.9157 23.2601 19.9194 23.5259L19.9313 23.5156Z" fill="white"/>
<path fill-rule="evenodd" clip-rule="evenodd" d="M21.1742 24.3504C21.2351 24.3774 21.3009 24.3976 21.3547 24.4349C21.3762 24.4499 21.3713 24.5029 21.3785 24.5387C21.3397 24.5294 21.2951 24.5296 21.2637 24.5094C21.2057 24.472 21.1612 24.4199 21.182 24.3409C21.182 24.341 21.1742 24.3504 21.1742 24.3504Z" fill="white"/>
<path fill-rule="evenodd" clip-rule="evenodd" d="M20.8922 24.2142C20.8319 24.1843 20.7665 24.1611 20.7136 24.1214C20.692 24.1054 20.6972 24.0536 20.6901 24.0181C20.7286 24.0287 20.7733 24.0302 20.8042 24.0517C20.8609 24.0911 20.9046 24.1447 20.8843 24.2236L20.8922 24.2142Z" fill="white"/>
<path fill-rule="evenodd" clip-rule="evenodd" d="M20.8837 24.2213C21.0046 24.2095 21.1083 24.236 21.1723 24.351C21.1723 24.3508 21.18 24.3415 21.1802 24.3413C21.06 24.3517 20.9573 24.3231 20.8918 24.2118C20.8916 24.2119 20.8837 24.2213 20.8837 24.2213Z" fill="white"/>
<path fill-rule="evenodd" clip-rule="evenodd" d="M19.5252 23.0906C19.4038 23.1088 19.3116 23.0577 19.2349 22.9693C19.2349 22.9692 19.2258 22.9781 19.2258 22.9781C19.3405 22.9769 19.4426 23.0054 19.5168 23.1006C19.5169 23.1003 19.5252 23.0906 19.5252 23.0906Z" fill="white"/>
<path fill-rule="evenodd" clip-rule="evenodd" d="M19.0969 22.8239C19.0793 22.8133 19.0619 22.8025 19.0443 22.7918C19.0588 22.8056 19.0732 22.8193 19.0879 22.833L19.0969 22.8239Z" fill="white"/>
<path fill-rule="evenodd" clip-rule="evenodd" d="M19.0846 22.833C19.1548 22.8587 19.2118 22.8972 19.2241 22.9786C19.2241 22.9787 19.2331 22.9698 19.2331 22.9699C19.1865 22.9213 19.14 22.8725 19.0935 22.8241C19.0933 22.8241 19.0846 22.833 19.0846 22.833Z" fill="white"/>
<path fill-rule="evenodd" clip-rule="evenodd" d="M31.981 23.3862C32.0015 23.0909 32.253 23.0255 32.456 22.9128C32.3618 23.1376 32.2139 23.3073 31.9691 23.3755L31.981 23.3862Z" fill="white"/>
<path fill-rule="evenodd" clip-rule="evenodd" d="M33.2281 22.2766C33.3415 22.1077 33.4925 21.9906 33.704 21.9204C33.5204 22.182 33.5204 22.182 33.2155 22.2657L33.2281 22.2766Z" fill="white"/>
<path fill-rule="evenodd" clip-rule="evenodd" d="M33.2142 22.2674C33.2149 22.5415 32.9998 22.6039 32.804 22.6852L32.8131 22.6969C32.8203 22.4282 33.0098 22.3398 33.2268 22.2783L33.2142 22.2674Z" fill="white"/>
<path fill-rule="evenodd" clip-rule="evenodd" d="M32.8033 22.6869C32.7776 22.7154 32.752 22.744 32.7262 22.7727C32.6778 22.6586 32.7578 22.6934 32.8123 22.6984C32.8124 22.6986 32.8033 22.6869 32.8033 22.6869Z" fill="white"/>
</svg>
