<svg width="55" height="92" viewBox="0 0 55 92" fill="none" xmlns="http://www.w3.org/2000/svg">
<path fill-rule="evenodd" clip-rule="evenodd" d="M6.88756 39.714C6.66516 39.7168 6.53311 39.6376 6.42377 39.4305C6.01534 38.6571 5.58998 37.8932 5.16721 37.128C5.04822 36.9126 4.91331 36.7067 4.79051 36.4934C3.24825 33.815 2.25704 30.9322 1.93061 27.8282C1.3128 21.9517 2.74849 16.6459 6.19945 11.9543C9.18881 7.89012 13.0639 5.05293 17.6569 3.25537C19.786 2.42194 21.9841 1.88562 24.2447 1.60692C26.3314 1.34986 28.4221 1.30524 30.5089 1.51741C36.5175 2.12834 41.8599 4.38661 46.3772 8.60318C49.0111 11.0617 51.0265 13.9836 52.3276 17.421C53.0988 19.4586 53.5715 21.5694 53.7039 23.7512C53.976 28.2307 53.0448 32.4315 50.9033 36.3341C50.3318 37.3758 49.7298 38.3999 49.147 39.4353C49.0531 39.6021 48.9573 39.7167 48.7466 39.7138C47.8747 39.702 42.2141 58.3623 42.923 58.3623C42.977 58.6313 42.8455 58.7994 42.7748 58.9825C42.1022 60.7251 41.4721 62.4828 41 64.2983C40.5667 65.9643 40.2713 67.6475 40.2159 69.3802C40.1879 70.2597 40.0811 71.1439 39.9254 72.0095C39.7449 73.0112 39.2731 73.8787 38.525 74.5588C37.9505 75.0811 37.2729 75.3718 36.5151 75.4516C36.2556 75.4787 35.993 75.4841 35.7317 75.4843C30.5871 75.4871 25.4426 75.4879 20.2981 75.4882C19.9057 75.4882 19.5132 75.4837 19.1276 75.3916C18.2182 75.1744 17.4842 74.6696 16.9457 73.8847C16.4331 73.1376 16.0846 72.3167 16.0269 71.3813C16.0032 70.9977 15.9632 70.6133 15.8981 70.2352C15.7482 69.3621 15.8045 68.4744 15.6952 67.5968C15.4958 65.9959 15.1158 64.4428 14.6558 62.907C14.248 61.5455 13.7588 60.215 13.2408 58.8953C13.1848 58.7523 13.134 58.6071 13.0903 58.4892C13.1822 58.325 7.71594 39.7041 6.88756 39.714V39.714Z" fill="white"/>
<path fill-rule="evenodd" clip-rule="evenodd" d="M46.8283 38.9712C46.7866 38.7897 46.9205 38.6707 46.9971 38.5382C47.6665 37.3808 48.328 36.2184 49.0204 35.0749C50.4332 32.7418 51.4089 30.2458 51.8656 27.5545C51.9696 26.9418 52.0522 26.3244 52.0592 25.6983C52.068 24.9154 52.1409 24.1358 52.0995 23.3493C51.9539 20.5912 51.2465 17.9873 50.0071 15.5247C48.3986 12.3291 46.0989 9.72025 43.2218 7.61708C39.9463 5.22276 36.2909 3.71726 32.2989 3.00518C30.1746 2.6262 28.0356 2.49392 25.8882 2.63313C19.7736 3.02984 14.3404 5.12423 9.77223 9.26913C6.87639 11.8966 4.80589 15.0693 3.67717 18.8332C2.97287 21.1815 2.75457 23.5741 2.95655 26.0157C3.21247 29.108 4.2049 31.951 5.77291 34.6117C6.51025 35.8628 7.22579 37.1269 7.94369 38.3892C8.04249 38.563 8.18995 38.7226 8.19123 38.8784C8.16946 39.0407 8.08651 39.0378 8.02546 39.0381C7.14863 39.0423 6.27163 39.0362 5.39479 39.0463C5.15933 39.0492 5.01954 38.9686 4.90385 38.7575C4.47149 37.9697 4.02123 37.1915 3.57373 36.4121C3.44777 36.1927 3.30495 35.9829 3.17498 35.7657C1.54247 33.0373 0.493236 30.1007 0.147698 26.9388C-0.506258 20.9527 1.01343 15.548 4.6664 10.7689C7.83072 6.62889 11.9326 3.73876 16.7944 1.90766C19.0481 1.05868 21.3748 0.512362 23.7677 0.228451C25.9766 -0.0333855 28.1896 -0.0788135 30.3986 0.137292C36.7589 0.759628 42.4139 3.05999 47.1956 7.35524C49.9837 9.8596 52.1171 12.836 53.4943 16.3375C54.3107 18.4131 54.811 20.5633 54.9512 22.7858C55.2391 27.3488 54.2535 31.628 51.9867 35.6034C51.3816 36.6646 50.7444 37.7077 50.1275 38.7624C50.0281 38.9324 49.9267 39.0491 49.7037 39.0462C48.7808 39.034 47.8579 39.0376 46.9351 39.0317C46.8999 39.0315 46.8648 38.9928 46.8283 38.9712" fill="black"/>
<path fill-rule="evenodd" clip-rule="evenodd" d="M26.3024 84.7261C27.7534 84.7261 29.2043 84.7259 30.6553 84.7261C30.9089 84.7262 31.1581 84.7261 31.3941 84.5985C31.7455 84.4088 32.0019 84.0337 31.9452 83.7174C31.8739 83.3207 31.6281 83.0624 31.2484 82.9352C31.1621 82.9064 31.0679 82.8962 30.9764 82.8889C30.8391 82.8776 30.7008 82.8716 30.5627 82.8716C27.6839 82.8706 24.8049 82.8698 21.9259 82.8732C21.7198 82.8733 21.5089 82.8837 21.3088 82.9283C20.8931 83.0207 20.5997 83.3593 20.5708 83.7402C20.5443 84.0936 20.7665 84.4217 21.139 84.6082C21.3766 84.7272 21.6266 84.7268 21.8803 84.7266C23.3543 84.7258 24.8283 84.7262 26.3024 84.7261V84.7261ZM27.8287 78.6802V78.6808C25.8006 78.6808 23.7727 78.6817 21.7447 78.6798C21.4672 78.6795 21.1902 78.673 20.9315 78.7955C20.5952 78.9546 20.3736 79.2023 20.3556 79.5891C20.3393 79.9388 20.588 80.2795 20.9712 80.4219C21.1202 80.4773 21.2827 80.5053 21.4415 80.5221C21.6011 80.5393 21.7638 80.5276 21.9251 80.5276C25.8197 80.5278 29.7143 80.5278 33.609 80.5276C33.7703 80.5276 33.933 80.539 34.0926 80.5214C34.2514 80.5043 34.4138 80.4758 34.5626 80.42C34.9424 80.2775 35.1816 79.9392 35.1675 79.5801C35.1521 79.1903 34.9264 78.9465 34.5884 78.7918C34.3292 78.6729 34.0519 78.6789 33.7743 78.6791C31.7926 78.6811 29.8105 78.6802 27.8287 78.6802V78.6802ZM18.3963 83.5558C16.7774 82.7393 16.4568 80.9492 18.3851 79.8277C18.2098 79.7152 18.042 79.6194 17.8869 79.5061C16.7839 78.7021 16.7772 77.2744 17.8747 76.4623C18.2538 76.1818 18.6798 76.0164 19.1579 76.0127C19.6191 76.0088 20.0805 76.0107 20.5418 76.0107C25.6856 76.011 30.8296 76.0118 35.9735 76.0105C36.3434 76.0104 36.7153 75.9978 37.0617 76.1519C37.2709 76.2451 37.4864 76.3399 37.6683 76.4755C38.7329 77.2682 38.7333 78.6769 37.6741 79.4789C37.5098 79.6032 37.3256 79.7014 37.1138 79.8349C37.8537 80.2507 38.4617 80.7704 38.4615 81.6897C38.4612 82.6106 37.8788 83.1455 37.1092 83.5502C37.3097 83.6781 37.4915 83.7794 37.6569 83.9023C38.7255 84.6968 38.7389 86.0985 37.6842 86.9077C37.3296 87.1798 36.9267 87.3443 36.4757 87.3701C36.2917 87.3806 36.1068 87.3793 35.9225 87.3793C30.4786 87.3797 25.0349 87.3795 19.5911 87.3799C19.1755 87.3799 18.7613 87.387 18.3676 87.2133C17.8406 86.9809 17.4237 86.6297 17.1963 86.0951C16.871 85.3299 17.1217 84.4811 17.8213 83.9369C18 83.7979 18.1993 83.6852 18.3963 83.5558" fill="black"/>
<path fill-rule="evenodd" clip-rule="evenodd" d="M29.1841 73.141C31.4215 73.2065 33.6594 73.1923 35.8972 73.1752C37.0063 73.1668 37.6088 72.6624 37.7937 71.5608C37.9195 70.8115 38.0409 70.0534 38.0636 69.2962C38.1558 66.24 38.9196 63.3304 39.9188 60.4689C40.1617 59.7734 40.4515 59.0943 40.702 58.4012C40.8056 58.1151 40.9758 58.0277 41.2743 58.0361C42.0291 58.057 42.7849 58.043 43.5354 58.043C43.5925 58.3169 43.4533 58.4882 43.3784 58.6747C42.6664 60.4498 41.9995 62.2403 41.4998 64.0897C41.0412 65.7868 40.7284 67.5013 40.6698 69.2663C40.6401 70.1622 40.5271 71.063 40.3622 71.9447C40.1712 72.965 39.6718 73.8488 38.8799 74.5415C38.2718 75.0736 37.5545 75.3697 36.7524 75.4509C36.4777 75.4786 36.1997 75.4841 35.9232 75.4843C30.4774 75.4871 25.0319 75.488 19.5862 75.4883C19.1709 75.4883 18.7554 75.4837 18.3473 75.3899C17.3846 75.1686 16.6076 74.6545 16.0376 73.8548C15.495 73.0939 15.1261 72.2576 15.0651 71.3047C15.04 70.9141 14.9976 70.5224 14.9288 70.1372C14.7701 69.2478 14.8297 68.3436 14.714 67.4497C14.5029 65.8189 14.1007 64.2368 13.6137 62.6725C13.182 61.2855 12.6642 59.9302 12.1159 58.5858C12.0566 58.4403 12.0028 58.2922 11.9566 58.1722C12.0539 58.0049 12.1805 58.0457 12.2866 58.0452C12.9557 58.0411 13.6252 58.0538 14.294 58.0379C14.5674 58.0313 14.7062 58.1324 14.8053 58.3853C15.4359 59.9947 16.0223 61.6176 16.4818 63.2861C16.9052 64.8237 17.2509 66.3752 17.3556 67.9687C17.4163 68.8895 17.4876 69.8085 17.5886 70.7255C17.6367 71.1612 17.672 71.6012 17.8669 72.0028C17.967 72.2091 18.0787 72.4129 18.2108 72.5999C18.4334 72.9155 18.7396 73.1094 19.1334 73.1435C19.2938 73.1572 19.4545 73.1767 19.6151 73.1772C21.876 73.1862 24.137 73.1925 26.3978 73.1984C26.4434 73.1986 26.4891 73.1862 26.5348 73.1797C27.3773 73.2449 28.2205 73.2083 29.0635 73.1989C29.1039 73.1983 29.1438 73.1612 29.1841 73.141Z" fill="black"/>
<path fill-rule="evenodd" clip-rule="evenodd" d="M33.0191 29.0349C33.0356 29.0193 33.0634 29.0049 33.0643 28.9892C33.065 28.9733 33.0388 28.9563 33.0244 28.9397C33.0088 28.9633 32.9932 28.9871 32.9776 29.0108C32.9922 29.0193 33.0069 29.0278 33.0191 29.0349V29.0349ZM35.695 30.0954C34.9294 29.9439 34.3178 30.1507 33.6966 30.2359C33.4463 30.2702 33.1979 30.3201 32.947 30.3485C32.7722 30.3684 32.6487 30.3006 32.5698 30.121C32.4645 29.8817 32.4011 29.8741 32.2971 30.0558C31.4139 31.5988 30.4188 33.0689 29.3896 34.5168C29.2658 34.6908 29.1883 34.8741 29.2022 35.0946C29.2485 35.8302 29.1931 36.5669 29.243 37.3048C29.2766 37.8029 29.1877 38.3098 29.1468 38.8123C29.1363 38.9403 29.05 39.0208 28.9201 39.0309C28.7824 39.0413 28.6428 39.0477 28.5052 39.0384C28.1651 39.0152 27.8172 39.109 27.4844 38.9737C27.3253 38.6401 27.4278 38.2961 27.4648 37.9618C27.5059 37.5899 27.3882 37.2999 27.1747 37.0021C26.0047 35.369 24.9505 33.6633 24.0262 31.8781C23.5911 31.0378 23.1987 30.1787 22.8477 29.3005C22.8053 29.1944 22.7635 29.0829 22.7528 28.971C22.7415 28.8515 22.8037 28.7454 22.9155 28.6892C23.0481 28.6227 23.204 28.6082 23.2958 28.7302C23.4328 28.9124 23.5477 29.1152 23.6479 29.3208C24.134 30.3161 24.6503 31.2947 25.2207 32.244C25.8038 33.2143 26.4512 34.1398 27.1904 34.9985C27.3039 35.1305 27.386 35.3114 27.5909 35.3454C27.7231 35.2686 27.6766 35.139 27.6802 35.0353C27.7387 33.3516 27.7592 31.6668 27.6683 29.9847C27.6063 28.8357 27.5011 27.6884 27.338 26.5458C27.1585 25.2902 26.948 24.0432 26.6211 22.8172C26.5728 22.6363 26.5549 22.4537 26.5903 22.2696C26.6306 22.0586 26.8978 21.9599 27.0851 22.0788C27.2774 22.201 27.341 22.3934 27.3909 22.5994C27.619 23.54 27.8693 24.4757 28.076 25.4207C28.4801 27.2674 28.7937 29.1295 28.9516 31.0154C28.9881 31.4515 29.0331 31.8871 29.0756 32.3227C29.0821 32.3897 29.0917 32.4748 29.1762 32.4729C29.2348 32.4715 29.3072 32.4354 29.3475 32.3911C30.3448 31.2959 31.2181 30.1086 31.9695 28.8321C32.4963 27.9371 32.9676 27.0126 33.4303 26.0834C33.5221 25.8991 33.6275 25.7186 33.7493 25.553C33.8397 25.4299 33.9873 25.426 34.1274 25.4741C34.2536 25.5174 34.3363 25.669 34.2966 25.8134C34.248 25.9905 34.1893 26.167 34.1157 26.3352C33.8477 26.9476 33.5721 27.5568 33.2981 28.1667C33.2321 28.3137 33.1525 28.4555 33.0965 28.6061C33.0758 28.6615 33.0839 28.7516 33.1177 28.797C33.1598 28.8537 33.2415 28.8272 33.2933 28.783C33.416 28.6787 33.5348 28.5695 33.6533 28.4603C34.1309 28.0203 34.6618 27.6553 35.2238 27.3333C36.3831 26.6687 37.6322 26.6015 38.9146 26.7915C39.8109 26.9242 40.659 27.2279 41.4811 27.5962C42.9205 28.2413 44.2305 29.0997 45.4675 30.0728C45.5219 30.1157 45.578 30.1579 45.6243 30.2087C45.688 30.2786 45.7343 30.3677 45.6814 30.4556C45.651 30.5055 45.5809 30.5428 45.5212 30.5606C45.457 30.5798 45.384 30.5737 45.3149 30.5714C44.3642 30.5407 43.4959 30.8438 42.6643 31.258C42.1077 31.5352 41.5756 31.8612 41.0319 32.1646C40.7903 32.2995 40.5439 32.4263 40.3057 32.567C39.205 33.2167 38.0063 33.3442 36.7634 33.2362C36.6261 33.2242 36.487 33.2049 36.3546 33.1678C35.3016 32.8737 34.3159 32.4357 33.4403 31.7718C33.1634 31.5619 32.9128 31.3226 32.7336 31.0199C32.6003 30.7947 32.6622 30.6243 32.9333 30.5632C33.4042 30.4569 33.8807 30.3733 34.3569 30.2924C34.7612 30.2237 35.1683 30.1721 35.695 30.0954Z" fill="#F2C926"/>
<path fill-rule="evenodd" clip-rule="evenodd" d="M20.892 24.2121C20.9574 24.3236 21.0602 24.3521 21.1804 24.3418C21.1595 24.421 21.2039 24.473 21.2618 24.5103C21.2934 24.5306 21.3379 24.5305 21.3766 24.5397C21.3695 24.5039 21.3744 24.451 21.353 24.436C21.2991 24.3984 21.2334 24.3784 21.1722 24.3516C21.1084 24.2364 21.0047 24.2101 20.8838 24.2217C20.9041 24.1428 20.8604 24.0893 20.8037 24.0499C20.7729 24.0284 20.7281 24.0268 20.6896 24.0163C20.6967 24.0518 20.6915 24.1036 20.7131 24.1196C20.7661 24.1593 20.8314 24.1825 20.892 24.2121ZM19.0935 22.8228C19.1399 22.8715 19.1863 22.9202 19.233 22.9688C19.3097 23.0573 19.402 23.1083 19.5234 23.0902C19.5392 23.3465 19.7279 23.4375 19.9302 23.5154C20.1474 23.7307 20.1474 23.7307 20.4709 23.8555C20.3121 23.6389 20.1737 23.4876 19.9185 23.5257C19.9147 23.2599 19.6864 23.207 19.5149 23.1003C19.4409 23.0048 19.3386 22.9765 19.224 22.9773C19.2118 22.896 19.1548 22.8576 19.0845 22.8319C19.0702 22.8184 19.0561 22.8049 19.0418 22.7916C19.059 22.802 19.0761 22.8124 19.0935 22.8228V22.8228ZM19.7385 25.4896C18.6869 25.4853 17.6742 25.296 16.7281 24.8235C15.8581 24.389 15.2121 23.695 14.6602 22.9202C13.9305 21.8958 13.458 20.7445 13.1034 19.5421C12.757 18.3675 12.5184 17.1724 12.3989 15.9537C12.3903 15.8654 12.3871 15.7715 12.4082 15.687C12.424 15.6235 12.49 15.572 12.567 15.5991C12.6302 15.6215 12.6977 15.6521 12.7442 15.6981C13.6235 16.5697 14.7056 17.0582 15.8821 17.3719C16.3947 17.5087 16.909 17.6406 17.4158 17.7961C17.8339 17.9245 18.2502 18.0657 18.6533 18.2342C19.7829 18.7067 20.6199 19.5105 21.1924 20.5828C21.6742 21.4855 21.973 22.4528 22.1054 23.4685C22.1442 23.7668 22.1627 24.0687 22.0518 24.3579C22.02 24.4403 21.9635 24.5729 21.9098 24.5772C21.5983 24.6027 21.6131 24.839 21.5473 25.0468C21.5181 25.139 21.3932 25.2134 21.2964 25.2695C20.9429 25.4744 20.5481 25.4846 20.1539 25.4894C20.0155 25.4909 19.877 25.4896 19.7385 25.4896" fill="#F2C926"/>
<path fill-rule="evenodd" clip-rule="evenodd" d="M26.6449 17.9143C26.5446 18.7765 26.6878 19.4801 26.7947 20.1858C26.8463 20.5267 26.9304 20.8626 26.9839 21.2033C27.0466 21.6026 26.8424 21.7573 26.4496 21.6219C26.1619 21.523 25.9095 21.3636 25.6786 21.1685C24.8361 20.4563 24.2013 19.5815 23.7397 18.589C23.4157 17.8921 23.3161 17.1474 23.3345 16.3694C23.3714 14.8045 23.8854 13.3907 24.5845 12.0237C25.1216 10.9733 25.7676 9.99222 26.4771 9.05165C26.5605 8.94127 26.649 8.83423 26.7423 8.73237C26.8178 8.65003 26.8922 8.53619 27.0225 8.56836C27.206 8.61338 27.162 8.78099 27.1677 8.90954C27.2106 9.86973 27.4649 10.7735 27.9088 11.6215C28.1975 12.1727 28.5208 12.7056 28.8164 13.2532C29.0572 13.6993 29.3017 14.1455 29.5063 14.6084C29.9799 15.6793 30.0438 16.7969 29.7784 17.9267C29.5493 18.9019 29.1152 19.793 28.5435 20.6141C28.3191 20.9364 28.0603 21.2339 27.7372 21.4637C27.4316 21.6808 27.2074 21.5945 27.138 21.2314C27.0431 20.7344 26.9497 20.2366 26.8754 19.7362C26.7944 19.1904 26.7356 18.6414 26.6449 17.9143Z" fill="#F2C926"/>
<path fill-rule="evenodd" clip-rule="evenodd" d="M32.8007 22.684C32.9965 22.6028 33.2116 22.5403 33.2109 22.2662C33.5157 22.1824 33.5157 22.1824 33.6993 21.921C33.4877 21.991 33.3366 22.1082 33.2234 22.2772C33.0064 22.3385 32.8169 22.4269 32.8096 22.6955C32.7552 22.6905 32.6752 22.6557 32.7236 22.7698C32.7494 22.7411 32.775 22.7125 32.8007 22.684V22.684ZM31.9778 23.3873C31.9547 23.3867 31.9312 23.3829 31.9087 23.3859C31.3674 23.4592 31.285 23.4013 31.2488 22.9096C31.2093 22.3735 31.2897 21.8503 31.4546 21.3428C31.6981 20.5936 32.0427 19.8898 32.4941 19.2442C33.1527 18.3023 34.0848 17.7174 35.1362 17.318C36.0442 16.9731 36.9887 16.7707 37.9634 16.7227C38.4464 16.6989 38.9288 16.6299 39.4109 16.6347C40.4941 16.6454 41.5726 16.7401 42.6446 16.8987C42.6895 16.9055 42.733 16.9228 42.7764 16.9369C42.8899 16.974 42.9323 17.1439 42.8413 17.2171C42.7523 17.2886 42.6579 17.3553 42.5593 17.4125C41.7 17.912 41.0585 18.6279 40.5433 19.4623C40.132 20.1288 39.7417 20.8084 39.3431 21.4829C39.1078 21.881 38.8329 22.249 38.5263 22.5957C37.6281 23.6111 36.4851 24.1569 35.1573 24.3186C34.402 24.4105 33.64 24.4153 32.8792 24.3482C32.5517 24.3192 32.2431 24.2348 31.9632 24.0649C31.7725 23.9492 31.6653 23.7977 31.8597 23.5517C31.9016 23.4985 31.9308 23.4351 31.9658 23.3766C32.2107 23.3082 32.3585 23.1387 32.4526 22.9138C32.2498 23.0266 31.9983 23.0918 31.9778 23.3873" fill="#F2C926"/>
<path fill-rule="evenodd" clip-rule="evenodd" d="M17.7827 30.8174C18.8248 30.8679 19.8439 30.6924 20.8604 30.4987C21.0652 30.4598 21.2669 30.4175 21.4758 30.4461C21.6103 30.4644 21.7231 30.6132 21.6954 30.7479C21.6338 31.0461 21.5081 31.3202 21.3152 31.5527C20.3661 32.6964 19.2242 33.5689 17.7631 33.9407C16.9267 34.1535 16.067 34.1096 15.2239 33.9665C13.8193 33.7282 12.5489 33.1305 11.3207 32.4321C10.4773 31.9525 9.68293 31.4015 8.91731 30.8079C8.82629 30.7374 8.73859 30.6624 8.65244 30.5859C8.5816 30.5228 8.53183 30.4444 8.55996 30.3456C8.58998 30.2404 8.6836 30.2062 8.77638 30.2115C9.9725 30.2809 11.0314 29.8519 12.0532 29.3027C12.6417 28.9866 13.2137 28.6401 13.7978 28.3158C14.0392 28.1818 14.2883 28.0597 14.5415 27.95C15.8467 27.3847 17.1765 27.3455 18.5156 27.8072C19.3691 28.1013 20.1735 28.4991 20.8846 29.0662C21.1378 29.2684 21.3772 29.4855 21.5367 29.7733C21.6424 29.964 21.5795 30.1491 21.3686 30.2071C21.0368 30.2984 20.7006 30.3832 20.3609 30.4353C19.5653 30.5573 18.7663 30.6577 17.969 30.7688C17.9046 30.7777 17.8423 30.8016 17.7827 30.8174" fill="#F2C926"/>
<path fill-rule="evenodd" clip-rule="evenodd" d="M29.1929 73.1412C29.1526 73.1614 29.1127 73.1984 29.0723 73.199C28.2293 73.2084 27.3861 73.245 26.5436 73.1798C26.5442 72.5347 26.5707 71.8882 26.541 71.2446C26.4046 68.2983 26.5134 65.3486 26.4084 62.4025C26.369 61.2975 26.3113 60.1933 26.2609 59.0888C26.2568 58.9969 26.2307 58.9043 26.2382 58.8139C26.3097 57.947 26.2957 58.0396 27.0182 58.0375C27.5021 58.0359 27.9861 58.033 28.47 58.0417C28.7354 58.0464 28.7953 58.1025 28.8137 58.3649C28.8606 59.0307 28.8992 59.6972 28.9378 60.3635C29.1284 63.6545 29.0333 66.9508 29.1187 70.2431C29.1438 71.2086 29.1469 72.1759 29.1929 73.1412" fill="#F2C926"/>
<path fill-rule="evenodd" clip-rule="evenodd" d="M27.7747 87.8919C29.8049 87.8919 31.8352 87.8918 33.8654 87.8922C34.0499 87.8923 34.2346 87.8923 34.419 87.8993C34.55 87.9042 34.6243 88.037 34.5492 88.1316C34.4636 88.2399 34.3712 88.3433 34.276 88.4434C33.0642 89.7181 31.5863 90.5385 29.8771 90.9038C27.9143 91.3232 25.9805 91.1985 24.1116 90.4137C23.0122 89.9522 22.0512 89.2894 21.2311 88.4238C21.1364 88.324 21.0512 88.2146 20.9675 88.1053C20.9099 88.0298 20.9661 87.9107 21.0621 87.9066C21.2692 87.8975 21.4766 87.8926 21.6839 87.8925C23.7142 87.8916 25.7444 87.8919 27.7747 87.8919Z" fill="black"/>
<path fill-rule="evenodd" clip-rule="evenodd" d="M37.305 47.3702C37.1155 47.941 36.8495 48.4126 36.7905 48.9746C37.1789 49.0071 37.5357 49.0217 37.9604 48.9565C37.7422 48.425 37.6199 47.8993 37.305 47.3702V47.3702ZM32.3489 48.1502C32.5961 48.1407 32.872 48.1747 33.1396 48.0942C33.4123 48.0121 33.5536 47.8197 33.5519 47.5365C33.5505 47.2592 33.403 47.047 33.1265 46.9915C32.6988 46.9055 32.2632 46.9424 31.8308 46.9549C31.7327 46.9578 31.6791 47.0456 31.6724 47.1438C31.6646 47.2572 31.6646 47.3715 31.6645 47.4854C31.663 48.2277 31.6259 48.1457 32.3489 48.1502ZM30.7493 50.8588C30.667 50.2798 30.6705 46.718 30.7616 46.1271C31.6467 46.1427 32.541 46.0597 33.4316 46.1924C34.092 46.291 34.4273 46.6203 34.543 47.2405C34.6574 47.8522 34.4026 48.35 33.8208 48.6685C33.727 48.7197 33.5924 48.7023 33.5246 48.8589C33.6908 49.0524 33.8785 49.2483 34.0391 49.4641C34.2037 49.6854 34.3364 49.93 34.4929 50.1573C34.6456 50.3789 34.7442 50.6417 34.9605 50.8231C35.1411 50.6043 35.1932 50.3499 35.2853 50.1159C35.7486 48.9379 36.2049 47.7571 36.6578 46.5749C36.8625 46.0402 36.8691 46.1362 37.2941 46.1244C37.3171 46.1236 37.3402 46.1242 37.3633 46.1242C37.8424 46.1266 37.8475 46.1246 38.0198 46.5534C38.5433 47.8562 39.0644 49.1599 39.5802 50.4657C39.6287 50.5884 39.7217 50.7095 39.667 50.8594C39.5156 50.9349 39.3521 50.9041 39.1931 50.9072C38.651 50.9176 38.7101 50.8841 38.5416 50.4763C38.4556 50.2682 38.4506 49.9966 38.2497 49.8727C38.0524 49.7509 37.7989 49.8355 37.5705 49.8227C37.4786 49.8177 37.386 49.8194 37.2939 49.8225C37.0186 49.8316 36.7113 49.7699 36.4765 49.8727C36.2202 49.9848 36.2299 50.3429 36.1335 50.5954C36.0468 50.8228 35.9233 50.9347 35.6749 50.9102C35.4921 50.8922 35.2875 50.9437 35.1284 50.8775C34.9572 50.8063 34.8367 50.8982 34.6936 50.9036C34.5094 50.9106 34.3234 50.8933 34.1406 50.9112C33.8732 50.9376 33.7212 50.8093 33.5865 50.5944C33.3296 50.1847 33.0462 49.7918 32.7795 49.3881C32.5885 49.0988 32.3297 48.939 31.9805 48.9177C31.765 48.9046 31.6719 48.964 31.6686 49.1733C31.6614 49.6344 31.6694 50.0957 31.662 50.5566C31.6571 50.8734 31.6245 50.8992 31.2931 50.907C31.1549 50.9102 31.0163 50.9088 30.8784 50.902C30.8347 50.9 30.7921 50.874 30.7493 50.8588" fill="black"/>
<path fill-rule="evenodd" clip-rule="evenodd" d="M52.101 41.4291C51.8791 42.0092 51.6466 42.4909 51.5344 43.0774C51.7694 43.0774 51.9522 43.0859 52.134 43.075C52.3087 43.0642 52.4968 43.1295 52.6805 42.9844C52.5535 42.4819 52.3577 42 52.101 41.4291ZM47.1477 42.8419C47.1017 42.8772 47.062 42.902 47.0291 42.9339C46.4166 43.5272 46.4174 43.5275 46.4111 44.3624C46.4099 44.5234 46.4033 44.6845 46.3935 44.8454C46.3889 44.9237 46.328 44.9602 46.2593 44.9759C46.2153 44.9862 46.168 44.9854 46.1221 44.9853C45.4012 44.9824 45.4383 45.0599 45.4389 44.3279C45.4399 43.1513 45.4392 41.9746 45.4392 40.798V40.3148C45.7531 40.1776 46.0479 40.2391 46.3351 40.2505C46.4662 40.4578 46.4002 40.6694 46.4091 40.8702C46.4203 41.1236 46.4059 41.3781 46.414 41.6315C46.4189 41.7863 46.3421 42.0158 46.4839 42.077C46.6828 42.1628 46.7807 41.9196 46.8986 41.7967C47.3136 41.3638 47.7213 40.9236 48.1228 40.478C48.271 40.3136 48.4281 40.2084 48.6598 40.2307C48.9498 40.2587 49.2503 40.1786 49.5805 40.31C49.2337 40.6712 48.9158 41.0027 48.5971 41.3336C48.4053 41.533 48.2121 41.7309 48.0201 41.9301C47.932 42.0215 47.9053 42.1151 47.9832 42.2339C48.5385 43.0823 49.0895 43.9336 49.6454 44.7819C49.6667 44.8145 49.7217 44.8252 49.794 44.8637C49.8598 44.6971 49.9253 44.534 49.9889 44.3703C50.4723 43.1248 50.9611 41.8812 51.4341 40.6319C51.5343 40.3674 51.6406 40.2108 51.9694 40.224C52.769 40.2561 52.5929 40.1583 52.8621 40.8156C53.3511 42.009 53.8178 43.2116 54.2958 44.4098C54.3633 44.5793 54.4552 44.7409 54.4479 44.9293C54.316 45.0134 54.1742 44.9854 54.0382 44.9848C53.3777 44.9823 53.5178 45.0301 53.2956 44.498C53.0247 43.8492 53.2011 43.8983 52.4166 43.8966C52.3013 43.8962 52.1858 43.8934 52.0707 43.8971C51.7955 43.9064 51.4862 43.8441 51.2551 43.9505C51.0073 44.0646 50.9966 44.4149 50.9073 44.6718C50.8303 44.8934 50.7082 45.0003 50.4549 44.9915C49.9296 44.9732 49.4027 44.9751 48.8772 44.9911C48.619 44.999 48.4506 44.922 48.3225 44.6881C48.0569 44.2032 47.7692 43.7303 47.4847 43.2559C47.4037 43.1204 47.3546 42.9581 47.1477 42.8419" fill="black"/>
<path fill-rule="evenodd" clip-rule="evenodd" d="M45.0614 53.6315C45.0179 53.6308 44.9743 53.6301 44.9309 53.6295C44.7732 54.0523 44.6126 54.474 44.4597 54.8984C44.3984 55.0683 44.4609 55.1523 44.6498 55.1578C44.8786 55.1646 45.1079 55.1646 45.3367 55.1581C45.534 55.1524 45.6 55.0728 45.54 54.9075C45.3852 54.4805 45.2214 54.0565 45.0614 53.6315ZM39.3559 54.302C39.7281 53.967 39.9892 53.6516 40.2708 53.3568C40.3823 53.2401 40.4859 53.1156 40.6012 53.0029C40.8303 52.7786 40.9846 52.4224 41.2886 52.3453C41.6327 52.258 42.0158 52.3251 42.3755 52.3251C42.44 52.4835 42.3202 52.5465 42.2472 52.6228C41.8163 53.0719 41.3845 53.5202 40.9457 53.9615C40.8057 54.1021 40.8056 54.2282 40.909 54.386C41.4636 55.2328 42.0138 56.0823 42.5573 56.9183C42.7314 56.8931 42.7506 56.7741 42.7912 56.6686C43.2549 55.4661 43.7195 54.2638 44.185 53.062C44.2599 52.8688 44.3457 52.6798 44.4164 52.4853C44.4634 52.3565 44.5545 52.3082 44.6791 52.3101C44.9538 52.3141 45.2312 52.273 45.5333 52.3551C46.1414 53.8786 46.7542 55.4138 47.3539 56.9161C47.2729 57.0613 47.1771 57.0526 47.0902 57.0519C46.2117 57.0437 46.4213 57.1506 46.1118 56.3983C46.0769 56.3133 46.0453 56.2267 46.0055 56.1442C45.9511 56.0317 45.8583 55.9729 45.7317 55.9727C45.2475 55.9726 44.7634 55.9703 44.2792 55.9736C44.1562 55.9744 44.0608 56.0321 44.0142 56.1546C43.9732 56.2622 43.9279 56.3682 43.887 56.4757C43.6619 57.0671 43.6623 57.0634 43.0727 57.0548C42.6385 57.0486 42.2026 57.0317 41.7704 57.0608C41.466 57.0815 41.3084 56.9508 41.1722 56.7051C40.893 56.2016 40.5941 55.7091 40.3011 55.2136C40.2431 55.1152 40.1753 55.0229 40.1003 54.9101C39.8231 55.0239 39.6831 55.2736 39.481 55.448C39.3498 55.5613 39.3064 55.7077 39.3101 55.8794C39.3166 56.179 39.3156 56.4788 39.309 56.7784C39.3038 57.0099 39.2635 57.0505 39.0148 57.0509C38.2718 57.0522 38.341 57.1318 38.34 56.3994C38.3384 55.2237 38.3395 54.048 38.3398 52.8721C38.3398 52.757 38.3415 52.6417 38.3439 52.5264C38.3464 52.3924 38.4111 52.3115 38.5494 52.3106C39.4094 52.3053 39.3052 52.2092 39.3113 53.0149C39.3137 53.3606 39.3119 53.7065 39.3143 54.0523C39.3146 54.0963 39.3283 54.14 39.3559 54.302Z" fill="black"/>
<path fill-rule="evenodd" clip-rule="evenodd" d="M22.1271 15.931C22.0995 16.1336 22.0805 16.3402 22.042 16.5428C21.927 17.1464 21.5329 17.488 20.919 17.3931C19.6287 17.1937 18.6478 16.5453 18.1405 15.2883C17.9043 14.7032 17.8322 14.0836 17.7636 13.4671C17.6766 12.6826 17.7939 11.9028 17.8952 11.1257C17.9026 11.0683 17.9604 10.9962 18.0138 10.9706C18.106 10.9265 18.1967 10.9739 18.2441 11.0602C18.6413 11.7843 19.3174 12.182 19.9988 12.5784C20.3171 12.7636 20.6338 12.9565 20.9288 13.1762C21.5499 13.6387 21.9083 14.2677 22.0199 15.0334C22.063 15.3293 22.0913 15.6272 22.1271 15.931" fill="#F2C926"/>
<path fill-rule="evenodd" clip-rule="evenodd" d="M31.4325 15.3008C31.4918 13.9674 31.9711 12.958 33.0841 12.2896C33.9067 11.7958 34.7996 11.5092 35.7318 11.3368C36.0689 11.2746 36.4036 11.161 36.7545 11.1966C36.8147 11.2026 36.896 11.2344 36.9222 11.2801C36.9494 11.328 36.949 11.4339 36.9145 11.4687C36.2487 12.1401 36.0288 13.0122 35.8055 13.8854C35.7485 14.1076 35.6669 14.3242 35.5885 14.5403C35.3241 15.2689 34.8322 15.7968 34.1423 16.1382C33.6443 16.3848 33.1199 16.5381 32.5633 16.6082C32.0307 16.6753 31.5068 16.207 31.4565 15.7049C31.4403 15.5447 31.4373 15.3833 31.4325 15.3008" fill="#F2C926"/>
<path fill-rule="evenodd" clip-rule="evenodd" d="M12.5591 23.904C13.7632 23.9517 14.5493 24.3004 15.2308 24.887C15.6019 25.2064 15.666 25.712 15.4153 26.134C15.3221 26.2906 15.2185 26.4532 15.0829 26.5706C14.5047 27.0717 13.8875 27.4928 13.0985 27.6145C12.5802 27.6943 12.0818 27.6138 11.5992 27.4835C10.403 27.1611 9.36929 26.5193 8.41872 25.7387C8.374 25.7019 8.34906 25.6236 8.34284 25.5618C8.33419 25.4763 8.41455 25.4474 8.47976 25.4425C9.37968 25.3749 10.1492 24.9761 10.9041 24.5208C11.4988 24.1624 12.1229 23.8639 12.5591 23.904" fill="#F2C926"/>
<path fill-rule="evenodd" clip-rule="evenodd" d="M42.0017 22.3776C43.1766 22.3669 44.2637 22.7265 45.3309 23.1688C45.3519 23.1775 45.3746 23.1882 45.3896 23.2042C45.4342 23.2525 45.4961 23.2978 45.5133 23.3555C45.5457 23.4649 45.4595 23.5328 45.3733 23.5579C44.5441 23.7987 43.933 24.3504 43.3588 24.9568C43.2797 25.0403 43.1928 25.1162 43.1148 25.2008C41.9353 26.4791 40.3361 26.3411 39.1047 25.8239C38.5416 25.5874 38.3333 25.0109 38.5972 24.4484C39.1598 23.2488 40.1777 22.3207 41.6566 22.377C41.7716 22.3813 41.8867 22.3776 42.0017 22.3776" fill="#F2C926"/>
<path fill-rule="evenodd" clip-rule="evenodd" d="M21.4786 43.2059C21.6642 43.0026 21.6844 42.8165 21.7307 42.6407C21.9183 41.9282 22.1099 41.2165 22.2925 40.5029C22.3395 40.3189 22.4345 40.2273 22.6289 40.2325C23.6727 40.2611 23.4834 40.0457 23.7288 41.0187C23.9089 41.7328 24.0873 42.4474 24.2662 43.1599C24.4343 43.1821 24.4526 43.0603 24.4751 42.9573C24.6228 42.2824 24.7649 41.6063 24.9125 40.9312C24.9613 40.7084 25.0204 40.488 25.0829 40.2334C25.3097 40.2334 25.5147 40.2292 25.7194 40.2353C25.8065 40.2379 25.8929 40.2621 26.027 40.2843C25.6523 41.8511 25.2838 43.3915 24.9217 44.9054C24.7153 45.0269 24.5272 44.9803 24.347 44.9838C24.1884 44.9868 24.0231 45.0174 23.8595 44.9203C23.5118 43.9125 23.3695 42.8338 22.9806 41.8264C22.974 41.8096 22.9424 41.8025 22.8836 41.768C22.5116 42.8096 22.3341 43.8989 21.979 44.9445C21.6332 45.0295 21.2939 44.9689 20.926 44.979C20.5602 43.4015 20.2029 41.8608 19.847 40.3264C20.103 40.1722 20.3373 40.241 20.5599 40.2377C20.7955 40.2341 20.8367 40.2765 20.8859 40.5049C21.0313 41.1801 21.1711 41.8569 21.3161 42.5323C21.3592 42.7336 21.4123 42.9326 21.4786 43.2059" fill="black"/>
<path fill-rule="evenodd" clip-rule="evenodd" d="M26.3105 46.1479H29.7368C29.8007 46.412 29.8049 46.6535 29.7424 46.9379H27.3384C27.2974 47.0191 27.2608 47.0585 27.2596 47.0989C27.2256 48.1752 27.1393 47.9744 28.0919 47.9949C28.5299 48.0041 28.968 47.9989 29.4061 48.0028C29.5423 48.0041 29.6142 48.0751 29.6127 48.2152C29.6117 48.3075 29.6169 48.3997 29.614 48.4919C29.606 48.7595 29.5671 48.8047 29.2851 48.8079C28.6855 48.8151 28.0858 48.8134 27.4863 48.8126C27.3127 48.8124 27.2361 48.8978 27.2435 49.0657C27.2574 49.3856 27.2008 49.7093 27.2971 50.0765C27.7264 50.0806 28.1581 50.0862 28.5897 50.0882C29.0035 50.0903 29.4171 50.0887 29.8071 50.0887C29.9173 50.2782 29.8854 50.4431 29.8835 50.602C29.8805 50.8426 29.8305 50.9039 29.6133 50.9048C28.5756 50.9087 27.5376 50.9055 26.4999 50.9048C26.3662 50.9048 26.2861 50.8439 26.2769 50.7057C26.2721 50.6367 26.2691 50.5676 26.2691 50.4984C26.2691 49.1379 26.2691 47.777 26.2712 46.4164C26.2714 46.3492 26.2903 46.2819 26.3105 46.1479Z" fill="black"/>
<path fill-rule="evenodd" clip-rule="evenodd" d="M11.4579 50.0894C11.4579 50.3226 11.4629 50.4591 11.4567 50.5952C11.4446 50.8615 11.4056 50.9049 11.121 50.9062C10.1303 50.9108 9.13983 50.9101 8.14915 50.9068C7.90403 50.9059 7.84201 50.8569 7.84201 50.6454C7.84215 49.1943 7.84807 47.7433 7.85527 46.2923C7.85557 46.2508 7.89064 46.2094 7.929 46.1248H9.35173C9.90473 46.125 10.4575 46.1211 11.0104 46.1268C11.3247 46.1302 11.3513 46.1618 11.3549 46.493C11.3563 46.6287 11.383 46.7704 11.2758 46.937H8.89572C8.76256 47.284 8.8129 47.597 8.83212 47.8855C8.99368 48.0379 9.15945 47.993 9.31223 47.9947C9.86506 48.0014 10.418 47.9999 10.9708 48.0032C11.1033 48.0041 11.1839 48.0664 11.1855 48.2081C11.1862 48.2771 11.1886 48.3463 11.1881 48.4154C11.1857 48.7726 11.1597 48.8055 10.796 48.8097C10.2201 48.8163 9.64403 48.8136 9.06825 48.8125C8.90265 48.8123 8.81031 48.8815 8.81364 49.0551C8.81408 49.078 8.81149 49.1011 8.81189 49.1241C8.83023 50.2754 8.65379 50.0689 9.73563 50.0877C10.2863 50.0974 10.8375 50.0894 11.4579 50.0894" fill="black"/>
<path fill-rule="evenodd" clip-rule="evenodd" d="M29.9655 42.6131C29.9411 42.3977 29.9357 42.165 29.8854 41.9424C29.753 41.3563 29.2929 40.9878 28.7043 40.9714C28.0788 40.9538 27.5787 41.313 27.4283 41.9147C27.315 42.3674 27.3133 42.8304 27.4304 43.2825C27.5777 43.8504 28.0734 44.2307 28.6402 44.2405C29.2325 44.2507 29.7407 43.851 29.8837 43.2438C29.9309 43.0437 29.9381 42.8343 29.9655 42.6131V42.6131ZM30.9973 42.6128C30.9424 42.9306 30.9243 43.2587 30.8269 43.5612C30.5014 44.572 29.7074 45.1108 28.5422 45.0713C27.3354 45.0302 26.595 44.3369 26.3828 43.1461C26.2957 42.6573 26.3262 42.1763 26.4595 41.7116C26.685 40.9266 27.1878 40.3893 28.0052 40.2016C28.4588 40.0975 28.9151 40.1027 29.3695 40.2287C30.1213 40.4373 30.6008 40.929 30.8288 41.6572C30.9238 41.9607 30.9424 42.2882 30.9973 42.6128" fill="black"/>
<path fill-rule="evenodd" clip-rule="evenodd" d="M24.7134 52.3243C24.0921 52.9704 23.5405 53.5443 22.9611 54.1469C23.5373 55.1068 24.1742 56.0054 24.7715 56.9841C24.3997 57.11 24.0399 57.0406 23.6873 57.0429C23.551 57.0438 23.4965 56.9248 23.439 56.8289C23.1553 56.354 22.8784 55.875 22.5948 55.4C22.5019 55.2443 22.4415 55.0644 22.2853 54.9523C22.0288 55.109 21.6683 55.4181 21.5759 55.553C21.4926 55.6744 21.4848 55.8099 21.4854 55.9497C21.4869 56.2928 21.4858 56.6358 21.4858 57.0188C21.1635 57.0722 20.8753 57.0649 20.5902 57.0295C20.4884 56.4386 20.4605 53.9783 20.5333 52.3966C20.6654 52.2656 20.834 52.3131 20.9903 52.306C21.1278 52.2998 21.2657 52.3047 21.4283 52.3047C21.5408 52.6558 21.4493 53.0031 21.489 53.3386C21.5219 53.6166 21.362 53.9253 21.6129 54.1703C21.8911 54.0763 22.015 53.8132 22.2028 53.6228C22.5427 53.2777 22.8741 52.9234 23.1915 52.5577C23.3581 52.3654 23.543 52.2841 23.7937 52.3018C24.0647 52.3209 24.3377 52.3162 24.7134 52.3243" fill="black"/>
<path fill-rule="evenodd" clip-rule="evenodd" d="M4.88196 46.9436C3.9565 46.9499 4.00728 46.8606 4.00671 47.5662C4.00627 48.1757 3.96747 48.1578 4.61752 48.149C4.89222 48.1454 5.17022 48.148 5.44014 48.1061C5.7425 48.059 5.92442 47.81 5.91753 47.524C5.91086 47.2438 5.71309 47.0164 5.40363 46.9708C5.20064 46.941 4.9922 46.9485 4.88196 46.9436V46.9436ZM5.8194 48.8159C6.41971 49.4038 6.82855 50.0837 7.2182 50.7989C7.04914 50.9703 6.85783 50.8946 6.69078 50.9047C6.5315 50.9142 6.36213 50.9181 6.21282 50.8729C6.11846 50.8445 6.03914 50.731 5.97595 50.6397C5.68768 50.223 5.40464 49.8027 5.1255 49.38C4.93334 49.089 4.66992 48.9376 4.32165 48.9185C4.09962 48.9064 4.01377 48.9608 4.01075 49.1727C4.00412 49.6568 4.01105 50.1408 4.00341 50.625C3.99977 50.8533 3.94613 50.8958 3.71212 50.9073C3.68903 50.9083 3.66595 50.9083 3.64303 50.9083C3.01879 50.9087 3.03235 50.949 3.0338 50.3141C3.03683 49.1156 3.03424 47.9168 3.03538 46.7183C3.03551 46.5802 3.03827 46.4419 3.05022 46.3045C3.05917 46.2011 3.12728 46.1363 3.23143 46.1362C4.08316 46.1357 4.93752 46.0636 5.78538 46.1921C6.44048 46.2914 6.80893 46.6497 6.89737 47.2392C6.99317 47.8771 6.74472 48.3706 6.17372 48.6669C6.07751 48.717 5.97335 48.7517 5.8194 48.8159Z" fill="black"/>
<path fill-rule="evenodd" clip-rule="evenodd" d="M31.2343 54.2958C31.3416 54.2893 31.5719 54.2917 31.7968 54.2581C32.0914 54.2144 32.2665 53.9731 32.2535 53.6716C32.2417 53.3973 32.0756 53.174 31.8008 53.1561C31.3693 53.1277 30.9348 53.1401 30.5017 53.1443C30.3968 53.1452 30.3498 53.2288 30.3459 53.3311C30.3431 53.3995 30.34 53.4681 30.3409 53.5365C30.3521 54.3845 30.2231 54.2886 31.2343 54.2958V54.2958ZM33.507 57.0139C33.4411 57.0266 33.3763 57.048 33.3108 57.0502C32.5024 57.078 32.5027 57.077 32.0475 56.3952C31.8685 56.1267 31.6824 55.8632 31.5074 55.5924C31.2413 55.1811 30.8901 54.9882 30.3886 55.1315C30.2982 55.4021 30.3508 55.6804 30.342 55.9538C30.3332 56.2302 30.3445 56.5071 30.3375 56.7835C30.3315 57.0288 30.3104 57.0428 30.0436 57.0519C30.0206 57.0527 29.9976 57.0526 29.9746 57.0527C29.336 57.0552 29.3668 57.0826 29.3676 56.4607C29.3694 55.1928 29.3663 53.925 29.3701 52.6571C29.3709 52.337 29.4001 52.309 29.7318 52.307C30.4003 52.3031 31.0688 52.3074 31.7373 52.3119C31.8752 52.3129 32.0148 52.3201 32.151 52.341C33.0975 52.4872 33.5756 53.5395 33.0676 54.3541C32.9424 54.5546 32.7706 54.7052 32.5579 54.8066C32.4366 54.8644 32.2936 54.8845 32.2166 55.0143C32.8915 55.7694 33.3629 56.498 33.507 57.0139" fill="black"/>
<path fill-rule="evenodd" clip-rule="evenodd" d="M16.4198 50.8434C16.4017 50.8624 16.3886 50.8888 16.3744 50.8895C16.0304 50.905 15.6589 51.0003 15.3516 50.8556C15.062 50.7193 14.9805 50.3471 14.8122 50.0765C14.5456 49.6474 14.2955 49.2082 14.0251 48.7507C13.6942 48.8751 13.5301 49.166 13.3087 49.3858C13.2039 49.4895 13.2227 49.6425 13.2213 49.7803C13.2179 50.0798 13.2198 50.3794 13.2125 50.6789C13.2092 50.8082 13.1392 50.8991 13.0026 50.9028C12.7742 50.9092 12.5457 50.9045 12.3477 50.9045C12.2317 50.7407 12.2479 50.5999 12.2478 50.4627C12.2471 49.1717 12.2471 47.8807 12.2478 46.5897C12.2479 46.4976 12.2512 46.4052 12.2596 46.3137C12.2688 46.2117 12.328 46.1402 12.4296 46.1317C12.5669 46.1201 12.7058 46.1221 12.844 46.125C13.177 46.132 13.2126 46.1597 13.2181 46.4708C13.2255 46.8857 13.2169 47.3007 13.2234 47.7157C13.225 47.8207 13.1836 47.9465 13.3109 48.0252C13.4505 48.0425 13.4991 47.919 13.5702 47.8436C14.0131 47.3742 14.4612 46.909 14.8847 46.4222C15.0866 46.1898 15.3103 46.0891 15.6086 46.123C15.8307 46.1484 16.0604 46.0758 16.2772 46.1741C16.3064 46.4851 16.0135 46.5754 15.8608 46.7523C15.5448 47.1177 15.1932 47.4525 14.8506 47.7944C14.7137 47.9312 14.7059 48.0606 14.8105 48.2197C15.1397 48.7197 15.4627 49.2241 15.7879 49.7268C15.9756 50.0169 16.163 50.3073 16.3507 50.5974C16.4 50.6737 16.4619 50.7467 16.4198 50.8434" fill="black"/>
<path fill-rule="evenodd" clip-rule="evenodd" d="M9.42475 42.6165C9.41338 42.3436 9.41826 42.0679 9.31872 41.8024C9.11502 41.2596 8.68091 40.9607 8.09911 40.9718C7.55852 40.9822 7.10958 41.2864 6.93994 41.7939C6.7596 42.3332 6.75788 42.8841 6.95118 43.4209C7.1302 43.9179 7.605 44.2367 8.12206 44.2422C8.64413 44.2475 9.07838 43.9407 9.2952 43.4312C9.40702 43.1684 9.40931 42.8942 9.42475 42.6165V42.6165ZM5.8089 42.5761C5.81119 42.5235 5.81119 42.4082 5.82229 42.2939C6.01562 40.3125 7.63155 39.8617 8.93341 40.2596C9.7081 40.4963 10.1578 41.0497 10.3455 41.8159C10.4728 42.3356 10.4718 42.8703 10.3478 43.3905C10.0979 44.439 9.28931 45.1328 7.98658 45.0692C6.62082 45.0024 5.81667 44.0803 5.8089 42.5761" fill="black"/>
<path fill-rule="evenodd" clip-rule="evenodd" d="M19.5891 52.3615C19.7333 53.2616 19.5942 53.114 18.9304 53.1229C18.3339 53.1313 17.7374 53.13 17.1699 53.1329C17.1199 53.2135 17.0794 53.2487 17.0783 53.2851C17.0484 54.2728 16.9501 54.1288 17.8838 54.1407C18.3223 54.1461 18.7607 54.1434 19.1991 54.1428C19.3724 54.1427 19.4491 54.2396 19.4527 54.3995C19.4558 54.5372 19.4568 54.6775 19.4343 54.8125C19.4257 54.8631 19.3539 54.9294 19.3005 54.941C19.1897 54.9653 19.0722 54.9622 18.9572 54.9627C18.4726 54.9646 17.988 54.9612 17.5035 54.9651C17.3682 54.9661 17.2234 54.9301 17.0934 55.0584C17.0229 55.3533 17.0725 55.677 17.0644 55.9983C17.0599 56.1795 17.1775 56.2301 17.3319 56.2307C17.8625 56.2328 18.3931 56.2332 18.9239 56.2342C19.1084 56.2346 19.293 56.2356 19.4777 56.2355C19.6149 56.2353 19.6994 56.3121 19.7091 56.438C19.7213 56.5973 19.7079 56.759 19.6987 56.9194C19.6939 57.0015 19.6202 57.0272 19.556 57.0467C19.5133 57.0594 19.4644 57.053 19.4182 57.053C18.4031 57.053 17.3877 57.0552 16.3725 57.0507C16.1307 57.0497 16.091 57.0097 16.0905 56.7662C16.0866 55.3819 16.0866 53.9974 16.0895 52.6129C16.09 52.3612 16.1339 52.309 16.3517 52.3084C17.3899 52.3057 18.4282 52.3097 19.4663 52.3143C19.5074 52.3145 19.5482 52.3451 19.5891 52.3615" fill="black"/>
<path fill-rule="evenodd" clip-rule="evenodd" d="M18.5363 42.5435C18.5496 42.2782 18.5021 42.0064 18.3977 41.7476C18.1956 41.247 17.817 40.9915 17.2802 40.9734C16.7243 40.9545 16.2669 41.2273 16.0733 41.7218C15.8557 42.2775 15.8479 42.8476 16.0544 43.4101C16.2273 43.8817 16.6011 44.2208 17.216 44.2358C17.7261 44.2484 18.2117 43.9776 18.4182 43.3733C18.5089 43.1076 18.547 42.8374 18.5363 42.5435V42.5435ZM19.5189 42.5949C19.5189 42.7099 19.5257 42.8252 19.5179 42.9397C19.4308 44.2241 18.5552 45.0568 17.2694 45.0806C15.9314 45.1055 14.996 44.2309 14.9346 42.8876C14.9145 42.451 14.9164 42.0149 15.0687 41.5928C15.3397 40.8424 15.8489 40.3574 16.6327 40.187C17.0178 40.1033 17.4122 40.1038 17.798 40.1868C18.725 40.3862 19.3573 41.081 19.4962 42.0445C19.5224 42.2259 19.5228 42.4111 19.5352 42.5946L19.5189 42.5949Z" fill="black"/>
<path fill-rule="evenodd" clip-rule="evenodd" d="M17.9416 46.1681C18.0471 46.3151 18.0061 46.4809 18.007 46.6375C18.0113 47.3976 18.0077 48.1579 18.0101 48.918C18.0108 49.1477 18.0068 49.3772 18.0866 49.6005C18.1888 49.8869 18.3828 50.0722 18.6804 50.1108C18.8827 50.1372 19.0965 50.1357 19.297 50.1002C19.5677 50.0523 19.7577 49.8733 19.7929 49.5942C19.8331 49.2754 19.8494 48.9519 19.8532 48.6302C19.8621 47.8932 19.8532 47.156 19.8598 46.4188C19.8618 46.1836 19.9186 46.1375 20.144 46.1253C20.8271 46.0881 20.8294 46.0881 20.8304 46.7801C20.8316 47.494 20.8319 48.2083 20.8235 48.9222C20.8206 49.1751 20.802 49.429 20.7714 49.6803C20.6875 50.3683 20.2679 50.8189 19.5871 50.9335C19.1535 51.0064 18.7088 51.0157 18.2799 50.9238C17.6694 50.7933 17.247 50.4362 17.1267 49.7917C17.0931 49.6109 17.0533 49.4278 17.0512 49.2453C17.0405 48.301 17.0381 47.3567 17.04 46.4122C17.0404 46.1805 17.096 46.1293 17.3292 46.1282C17.5341 46.127 17.7434 46.0886 17.9416 46.1681" fill="black"/>
<path fill-rule="evenodd" clip-rule="evenodd" d="M11.1618 57.0536C10.525 57.0536 9.88306 57.0539 9.24105 57.0535C8.78042 57.0532 8.31993 57.0538 7.8593 57.0503C7.69195 57.049 7.6159 56.9574 7.6162 56.7892C7.61751 55.7069 7.61563 54.6246 7.6162 53.5423C7.61633 53.1971 7.61923 52.8516 7.6234 52.5064C7.62472 52.4018 7.68186 52.3363 7.78645 52.3213C7.85439 52.3115 7.92348 52.3064 7.99216 52.3064C8.91328 52.3054 9.83443 52.3023 10.7555 52.3072C11.156 52.3092 11.1751 52.3373 11.1674 52.7448C11.1666 52.7909 11.167 52.837 11.1649 52.8829C11.1572 53.0553 11.054 53.1222 10.8945 53.1225C10.388 53.1238 9.88131 53.1238 9.37481 53.1247C9.19044 53.125 9.00619 53.1225 8.82212 53.1282C8.65244 53.1333 8.5776 53.2291 8.58898 53.3962C8.59056 53.4193 8.58854 53.4423 8.58871 53.4654C8.5949 54.1769 8.49869 54.1439 9.24727 54.1422C9.7959 54.141 10.3446 54.1419 10.8985 54.1419C10.9913 54.4275 10.9836 54.6702 10.9144 54.964C10.3551 54.964 9.80687 54.9643 9.25865 54.9639C8.51945 54.9634 8.5884 54.9167 8.58914 55.6321C8.58955 56.224 8.50747 56.2397 9.18293 56.2355C9.78177 56.2316 10.3805 56.239 10.9792 56.2339C11.1562 56.2326 11.2303 56.3182 11.2314 56.4798C11.2325 56.6601 11.2654 56.8459 11.1618 57.0536" fill="black"/>
<path fill-rule="evenodd" clip-rule="evenodd" d="M50.6038 47.3782C50.3701 47.9174 50.1756 48.4224 50.0355 48.9707C50.4389 49.0086 50.8134 49.0259 51.2327 48.9596C51.034 48.4062 50.8804 47.8916 50.6038 47.3782ZM48.3602 50.8494C48.312 50.7208 48.3753 50.6207 48.4166 50.514C48.9238 49.2051 49.439 47.8991 49.9311 46.5846C50.1463 46.01 50.214 46.1328 50.6339 46.1267C51.0797 46.1201 51.1128 46.0774 51.297 46.5445C51.8122 47.8502 52.3418 49.1504 52.8601 50.455C52.9093 50.5788 52.9865 50.7044 52.9421 50.8517C52.7948 50.9456 52.63 50.9041 52.473 50.9071C51.882 50.9182 52.0018 50.8728 51.8231 50.4766C51.7307 50.2713 51.7269 50 51.5314 49.8748C51.3367 49.7497 51.0816 49.836 50.8534 49.8233C50.7615 49.8182 50.6689 49.8202 50.5768 49.823C50.3011 49.8312 49.9928 49.7674 49.759 49.871C49.5049 49.9837 49.5133 50.3409 49.4158 50.594C49.3321 50.8112 49.2116 50.9439 48.9583 50.91C48.7584 50.8831 48.547 50.9569 48.3602 50.8494" fill="black"/>
<path fill-rule="evenodd" clip-rule="evenodd" d="M40.6616 41.5494C40.4704 42.0403 40.1971 42.4933 40.1288 43.0193C40.324 43.1031 40.5086 43.078 40.6887 43.0748C40.8686 43.0716 41.0551 43.1148 41.2492 43.0086C41.1387 42.5051 40.934 42.0327 40.6616 41.5494V41.5494ZM43.058 44.926C42.9522 44.9558 42.9082 44.9795 42.8645 44.9789C42.6117 44.9751 42.329 45.034 42.1146 44.9395C41.8831 44.8375 41.8903 44.5076 41.786 44.2807C41.7573 44.2179 41.7296 44.1545 41.7041 44.0903C41.658 43.9747 41.5836 43.9003 41.4506 43.9006C40.9432 43.9016 40.436 43.9004 39.9287 43.9027C39.8316 43.9033 39.7541 43.945 39.7139 44.0409C39.6872 44.1045 39.6553 44.1663 39.6289 44.2302C39.5255 44.48 39.5311 44.8331 39.2746 44.9444C39.0136 45.0575 38.6896 45.0135 38.3709 44.9402C38.4246 44.7723 38.4653 44.6175 38.5227 44.4689C39.0118 43.2017 39.5039 41.9356 39.9957 40.6694C40.0373 40.5622 40.074 40.4508 40.1327 40.3533C40.1631 40.3028 40.2325 40.2645 40.2923 40.2457C40.356 40.2258 40.4292 40.2319 40.4983 40.233C41.3318 40.2464 41.1525 40.1306 41.438 40.8403C41.9448 42.1008 42.4469 43.363 42.9504 44.6247C42.9835 44.7081 43.0111 44.794 43.058 44.926" fill="black"/>
<path fill-rule="evenodd" clip-rule="evenodd" d="M22.8168 47.5636C22.8168 47.7471 22.8085 47.9313 22.8216 48.1138C22.8257 48.172 22.8845 48.2731 22.9216 48.2747C23.3321 48.292 23.7514 48.3638 24.1414 48.1695C24.3673 48.0571 24.4764 47.8577 24.4721 47.6085C24.4677 47.3589 24.347 47.1718 24.1216 47.0587C23.909 46.9522 23.6783 46.9515 23.4479 46.9482C22.7849 46.9392 22.8014 46.8794 22.8168 47.5636ZM21.8917 50.8924C21.8085 50.2441 21.8144 46.706 21.8939 46.1761C22.4795 46.1033 23.8188 46.1361 24.294 46.1738C24.9266 46.2241 25.4523 46.8051 25.4699 47.4875C25.4911 48.3079 25.1225 48.8579 24.3973 49.0357C23.9662 49.1414 23.528 49.1059 23.0919 49.1183C22.8511 49.1251 22.8123 49.1603 22.8085 49.396C22.8019 49.8102 22.8052 50.2244 22.8038 50.6385C22.8032 50.7994 22.7336 50.9038 22.5618 50.9042C22.3356 50.9047 22.1093 50.8966 21.8917 50.8924Z" fill="black"/>
<path fill-rule="evenodd" clip-rule="evenodd" d="M43.4103 49.1658C43.6003 49.2247 43.819 49.2853 44.0324 49.3609C44.1928 49.4175 44.2254 49.5118 44.1592 49.6901C43.8757 50.4532 43.3459 50.9001 42.5177 50.9592C41.1466 51.0567 40.2115 50.2497 40.1134 48.8808C40.0837 48.4656 40.0871 48.0493 40.1981 47.6446C40.465 46.6701 41.2064 46.092 42.2139 46.0641C42.5616 46.0546 42.9054 46.0759 43.2277 46.2284C43.7349 46.4682 44.077 46.8379 44.1811 47.406C43.9901 47.5312 43.7855 47.5631 43.586 47.6111C43.3796 47.6609 43.2569 47.6032 43.1496 47.3998C42.9136 46.9519 42.5014 46.8376 42.0295 46.9194C41.6035 46.9931 41.326 47.2584 41.2079 47.6668C41.038 48.2553 41.025 48.8525 41.2378 49.432C41.4409 49.9848 41.9488 50.2394 42.5154 50.1054C42.7763 50.0435 42.9583 49.8782 43.1063 49.6592C43.2077 49.509 43.2036 49.2996 43.4103 49.1658" fill="black"/>
<path fill-rule="evenodd" clip-rule="evenodd" d="M2.01789 40.2852C2.09523 40.2696 2.18323 40.2368 2.27136 40.2363C3.14823 40.2323 4.02506 40.2303 4.90176 40.235C5.22808 40.2369 5.24397 40.2624 5.24642 40.5953C5.24656 40.6183 5.24669 40.6414 5.24642 40.6645C5.24208 40.9963 5.21553 41.0326 4.90694 41.0384C4.51483 41.0458 4.12245 41.0405 3.73017 41.041C3.56874 41.0413 3.40688 41.0368 3.24575 41.0452C3.01608 41.057 2.95749 41.1157 2.94292 41.3253C2.9412 41.3484 2.94147 41.3715 2.94164 41.3946C2.94595 42.1739 2.85017 42.1641 3.67017 42.1593C3.97011 42.1576 4.27018 42.1544 4.56995 42.1606C4.9234 42.168 4.94275 42.1937 4.94187 42.5736C4.94086 42.9307 4.91906 42.9571 4.54572 42.9627C4.10744 42.9692 3.66886 42.9604 3.23057 42.9697C3.01564 42.9741 2.94871 43.0455 2.9448 43.2684C2.93699 43.7067 2.94292 44.1451 2.93888 44.5835C2.93787 44.697 2.92158 44.8104 2.9129 44.9167C2.70157 45.0342 2.49107 44.9815 2.28926 44.9829C2.01816 44.985 1.97071 44.9376 1.97014 44.6591C1.96681 43.2517 1.9694 41.8443 1.97203 40.4369C1.97216 40.3939 1.99727 40.351 2.01789 40.2852" fill="black"/>
<path fill-rule="evenodd" clip-rule="evenodd" d="M26.3897 57.0281C26.3897 55.9212 26.3899 54.8864 26.3896 53.8517C26.3896 53.6906 26.3847 53.5295 26.3877 53.3685C26.391 53.1883 26.2844 53.1306 26.1285 53.1287C25.8292 53.125 25.53 53.1222 25.2308 53.1241C25.052 53.1252 24.9875 53.0188 24.9814 52.865C24.9759 52.7276 24.9754 52.5878 24.9971 52.4531C25.0056 52.4003 25.0746 52.3485 25.1278 52.3151C25.1617 52.2938 25.2174 52.3058 25.2633 52.3058C26.3452 52.3061 27.4271 52.3061 28.509 52.3092C28.5755 52.3094 28.6421 52.3344 28.7046 52.3471C28.8007 52.528 28.759 52.7151 28.7581 52.8963C28.7577 53.0264 28.6853 53.1124 28.5478 53.1156C28.2258 53.1228 27.9036 53.1241 27.5817 53.1282C27.4469 53.13 27.3696 53.1942 27.3681 53.333C27.3651 53.6091 27.3629 53.8854 27.3628 54.1615C27.3622 55.1016 27.3625 56.0419 27.3625 56.9914C27.0359 57.0904 26.745 57.0569 26.3897 57.0281" fill="black"/>
<path fill-rule="evenodd" clip-rule="evenodd" d="M37.2216 44.9414C36.1378 45.0636 36.3347 45.0177 36.3237 44.1451C36.3123 43.223 36.3231 42.3007 36.3188 41.3784C36.3174 41.0908 36.2778 41.052 36.0094 41.0444C35.733 41.0367 35.4561 41.0423 35.1794 41.0376C35.021 41.035 34.9181 40.965 34.9186 40.7903C34.9188 40.675 34.9159 40.5596 34.9203 40.4447C34.9255 40.3057 35.0083 40.244 35.141 40.2388C35.1871 40.2369 35.2331 40.2336 35.2791 40.2336C36.2936 40.2332 37.3082 40.2303 38.3227 40.2346C38.6878 40.2361 38.7106 40.2675 38.7093 40.6316C38.7093 40.6547 38.7096 40.6776 38.7089 40.7007C38.6999 40.9774 38.6553 41.0305 38.3949 41.0387C38.1645 41.0461 37.9337 41.0452 37.7033 41.0408C37.2978 41.0328 37.295 41.1557 37.2952 41.4292C37.2953 42.0288 37.2948 42.6282 37.2946 43.2276C37.2945 43.6886 37.2953 44.1499 37.2936 44.6109C37.2932 44.7244 37.3053 44.842 37.2216 44.9414" fill="black"/>
<path fill-rule="evenodd" clip-rule="evenodd" d="M14.5773 40.2883C14.7575 41.1667 14.5495 41.0342 13.9899 41.0398C13.1251 41.0483 13.2377 40.9607 13.2323 41.8302C13.2273 42.6603 13.2317 43.4902 13.2307 44.3203C13.2305 44.4816 13.2294 44.6431 13.218 44.8038C13.2107 44.906 13.14 44.9738 13.04 44.979C12.8562 44.9887 12.6714 44.9837 12.4871 44.9835C12.3524 44.9833 12.2724 44.9171 12.2665 44.7805C12.2595 44.6193 12.2583 44.4579 12.2581 44.2966C12.2574 43.3974 12.2603 42.4983 12.2569 41.5991C12.2548 41.0481 12.2509 41.0477 11.6737 41.0408C11.4893 41.0388 11.3048 41.0384 11.1204 41.0396C10.9575 41.0406 10.8571 40.9697 10.8476 40.8012C10.8413 40.6864 10.8424 40.5706 10.8475 40.4557C10.8531 40.3232 10.9218 40.2433 11.0598 40.2384C11.175 40.2342 11.2901 40.2328 11.4053 40.2327C12.3046 40.2322 13.2038 40.2312 14.103 40.2337C14.2624 40.2341 14.4268 40.2055 14.5773 40.2883" fill="black"/>
<path fill-rule="evenodd" clip-rule="evenodd" d="M33.4656 52.3782C34.2517 52.1549 34.7467 52.3359 35.0232 53.0568C35.1606 53.415 35.4096 53.7303 35.6023 54.0555C35.7889 53.9998 35.8395 53.8645 35.9082 53.7471C36.1397 53.3501 36.3775 52.9565 36.5963 52.5526C36.6976 52.3658 36.83 52.2911 37.0381 52.3023C37.266 52.3146 37.4951 52.3051 37.7056 52.3051C37.8118 52.4972 37.6773 52.5952 37.6119 52.7009C37.1892 53.3851 36.7648 54.0688 36.3251 54.7422C36.1798 54.9646 36.1135 55.1871 36.121 55.4517C36.1344 55.9111 36.123 56.3715 36.1205 56.8314C36.1198 56.966 36.0511 57.0465 35.9147 57.0473C35.0547 57.0528 35.1619 57.1538 35.1524 56.3484C35.1473 55.9118 35.2223 55.4504 35.1036 55.0463C34.9847 54.6428 34.6711 54.2958 34.4399 53.9259C34.1255 53.4232 33.8082 52.9222 33.4656 52.3782" fill="black"/>
<path fill-rule="evenodd" clip-rule="evenodd" d="M12.1073 56.9957C12.0318 56.8691 12.0578 56.7287 12.0577 56.5937C12.0556 55.3494 12.0562 54.1052 12.0569 52.8609C12.0569 52.746 12.0585 52.6304 12.07 52.5162C12.0803 52.4138 12.1497 52.348 12.2498 52.3448C12.478 52.3374 12.7068 52.3425 12.9128 52.3425C13.0759 52.4928 13.0261 52.6614 13.0268 52.8136C13.0311 53.8044 13.0265 54.795 13.0306 55.7858C13.0323 56.2242 13.0382 56.2287 13.5004 56.233C14.0534 56.2384 14.6065 56.2374 15.1595 56.2344C15.3369 56.2333 15.4055 56.3323 15.4153 56.4879C15.4223 56.6026 15.418 56.7183 15.4146 56.8334C15.4104 56.9658 15.3473 57.0406 15.2072 57.0522C14.8272 57.0836 12.443 57.0434 12.1073 56.9957" fill="black"/>
<path fill-rule="evenodd" clip-rule="evenodd" d="M44.7548 49.4304C44.8501 49.416 44.9615 49.3887 45.0736 49.3848C45.229 49.3794 45.4066 49.2549 45.5321 49.385C45.6178 49.4737 45.6234 49.6373 45.6732 49.7639C45.7858 50.0511 45.9491 50.152 46.2564 50.1333C46.4975 50.1187 46.6145 50.0176 46.6959 49.7715C46.7697 49.548 46.7627 49.3185 46.7628 49.0889C46.7634 48.2847 46.7624 47.4802 46.7639 46.6759C46.7642 46.5387 46.7632 46.3995 46.7873 46.2656C46.7962 46.2153 46.868 46.1602 46.9232 46.1388C46.9841 46.1152 47.0588 46.1266 47.1275 46.125C47.7305 46.1113 47.7331 46.1116 47.735 46.7188C47.7374 47.523 47.7338 48.3274 47.7364 49.1318C47.7373 49.4088 47.7259 49.6838 47.6474 49.9509C47.6154 50.0601 47.5844 50.1732 47.5299 50.2719C47.1623 50.9358 46.5178 51.0606 45.7254 50.9384C45.1606 50.8514 44.8009 50.4215 44.7096 49.7878C44.6933 49.6749 44.6774 49.5592 44.7548 49.4304" fill="black"/>
<path fill-rule="evenodd" clip-rule="evenodd" d="M34.9717 44.163C35.02 44.2659 35.0367 44.2858 35.0382 44.3067C35.0985 45.1234 35.0478 44.978 34.4097 44.984C33.6046 44.9917 32.7993 44.9881 31.994 44.9826C31.7652 44.981 31.7104 44.9262 31.7098 44.6954C31.7059 43.3149 31.7059 41.9345 31.7095 40.5541C31.7103 40.3225 31.7628 40.2716 31.9969 40.2715C32.7348 40.271 32.6778 40.1793 32.6786 40.9127C32.6796 41.879 32.6764 42.8454 32.681 43.8116C32.6823 44.1341 32.7084 44.1587 33.0418 44.1615C33.6852 44.1669 34.3285 44.163 34.9717 44.163" fill="black"/>
<path fill-rule="evenodd" clip-rule="evenodd" d="M43.6336 40.2976C43.758 40.2052 43.9001 40.2356 44.0353 40.2333C44.6237 40.223 44.5611 40.262 44.5616 40.7592C44.5623 41.9772 44.562 43.1951 44.5616 44.4131C44.5616 44.5279 44.5601 44.6428 44.5565 44.7576C44.5523 44.8894 44.4862 44.9779 44.3515 44.979C43.5068 44.9867 43.5919 45.0969 43.5904 44.2835C43.5877 43.1347 43.5877 41.9856 43.5915 40.8366C43.5921 40.6562 43.5537 40.4704 43.6336 40.2976" fill="black"/>
<path fill-rule="evenodd" clip-rule="evenodd" d="M33.0231 29.0348C33.0108 29.0277 32.9961 29.0192 32.9816 29.0107C32.9971 28.9871 33.0127 28.9633 33.0283 28.9396C33.0427 28.9562 33.069 28.9732 33.0683 28.9891C33.0674 29.0048 33.0395 29.0192 33.0231 29.0348" fill="white"/>
<path fill-rule="evenodd" clip-rule="evenodd" d="M19.9116 23.5254C20.1669 23.4873 20.3053 23.6386 20.4639 23.8552C20.1405 23.7304 20.1405 23.7304 19.9234 23.5151L19.9116 23.5254V23.5254Z" fill="white"/>
<path fill-rule="evenodd" clip-rule="evenodd" d="M19.9232 23.5149C19.721 23.437 19.5323 23.3459 19.5163 23.0896L19.5082 23.0992C19.6793 23.2064 19.9076 23.2594 19.9114 23.5251L19.9232 23.5149Z" fill="white"/>
<path fill-rule="evenodd" clip-rule="evenodd" d="M21.1702 24.3506C21.231 24.3775 21.2968 24.3977 21.3506 24.4351C21.3721 24.4501 21.3672 24.5031 21.3744 24.5388C21.3356 24.5296 21.291 24.5298 21.2596 24.5096C21.2016 24.4722 21.1572 24.4201 21.1779 24.3411C21.1779 24.3412 21.1702 24.3506 21.1702 24.3506" fill="white"/>
<path fill-rule="evenodd" clip-rule="evenodd" d="M20.8882 24.2124C20.8279 24.1825 20.7626 24.1593 20.7096 24.1196C20.688 24.1036 20.6932 24.0518 20.6861 24.0163C20.7246 24.0269 20.7693 24.0284 20.8002 24.0499C20.8569 24.0893 20.9006 24.1429 20.8803 24.2218L20.8882 24.2124Z" fill="white"/>
<path fill-rule="evenodd" clip-rule="evenodd" d="M20.8797 24.2215C21.0006 24.2097 21.1043 24.2362 21.1683 24.3512C21.1683 24.351 21.176 24.3417 21.1762 24.3415C21.056 24.3519 20.9533 24.3233 20.8878 24.212C20.8876 24.2121 20.8797 24.2215 20.8797 24.2215Z" fill="white"/>
<path fill-rule="evenodd" clip-rule="evenodd" d="M19.5171 23.0899C19.3958 23.1081 19.3036 23.057 19.2268 22.9686C19.2268 22.9684 19.2177 22.9774 19.2177 22.9774C19.3324 22.9762 19.4346 23.0046 19.5087 23.0998C19.5089 23.0996 19.5171 23.0899 19.5171 23.0899Z" fill="white"/>
<path fill-rule="evenodd" clip-rule="evenodd" d="M19.0916 22.8224C19.0744 22.812 19.0574 22.8015 19.0403 22.7911C19.0544 22.8045 19.0685 22.8179 19.0828 22.8313L19.0916 22.8224V22.8224Z" fill="white"/>
<path fill-rule="evenodd" clip-rule="evenodd" d="M19.0887 22.8313C19.1589 22.857 19.2159 22.8955 19.2282 22.9768C19.2282 22.977 19.2373 22.968 19.2373 22.9682C19.1907 22.9196 19.1441 22.8708 19.0976 22.8223C19.0975 22.8223 19.0887 22.8313 19.0887 22.8313" fill="white"/>
<path fill-rule="evenodd" clip-rule="evenodd" d="M31.977 23.3864C31.9975 23.0911 32.2489 23.0258 32.4519 22.9131C32.3577 23.1378 32.2098 23.3075 31.965 23.3758L31.977 23.3864Z" fill="white"/>
<path fill-rule="evenodd" clip-rule="evenodd" d="M33.22 22.277C33.3334 22.108 33.4844 21.9909 33.6959 21.9208C33.5123 22.1824 33.5123 22.1824 33.2075 22.266L33.22 22.277Z" fill="white"/>
<path fill-rule="evenodd" clip-rule="evenodd" d="M33.2142 22.2657C33.2149 22.5398 32.9998 22.6022 32.8041 22.6834L32.8132 22.6951C32.8204 22.4265 33.0098 22.3381 33.2268 22.2766L33.2142 22.2657V22.2657Z" fill="white"/>
<path fill-rule="evenodd" clip-rule="evenodd" d="M32.7993 22.6832C32.7736 22.7117 32.748 22.7403 32.7222 22.769C32.6738 22.6549 32.7538 22.6896 32.8082 22.6947C32.8084 22.6948 32.7993 22.6832 32.7993 22.6832" fill="white"/>
</svg>
