<svg width="46" height="33" viewBox="0 0 46 33" fill="none" xmlns="http://www.w3.org/2000/svg">
<path d="M44.7356 14.6077H38.5992V11.9895C39.5198 11.5305 40.2931 10.8326 40.8344 9.97229C41.3756 9.11203 41.6638 8.1227 41.6674 7.11289V5.61394C41.6674 4.55381 41.2364 3.53711 40.4692 2.78749C39.702 2.03787 38.6615 1.61673 37.5765 1.61673C37.3052 1.61673 37.0451 1.72202 36.8533 1.90942C36.6615 2.09683 36.5538 2.351 36.5538 2.61603V6.61324H35.531V2.61603C35.531 2.351 35.4233 2.09683 35.2315 1.90942C35.0397 1.72202 34.7795 1.61673 34.5083 1.61673C33.4233 1.61673 32.3828 2.03787 31.6156 2.78749C30.8484 3.53711 30.4174 4.55381 30.4174 5.61394V7.11289C30.421 8.1227 30.7092 9.11203 31.2504 9.97229C31.7917 10.8326 32.565 11.5305 33.4856 11.9895V14.6077H25.3038V12.6091H27.3492C27.6205 12.6091 27.8806 12.5038 28.0724 12.3164C28.2642 12.129 28.3719 11.8748 28.3719 11.6097C28.3719 11.3447 28.2642 11.0905 28.0724 10.9031C27.8806 10.7157 27.6205 10.6104 27.3492 10.6104V2.61603C27.3492 2.08597 27.1337 1.57762 26.7501 1.20281C26.3665 0.827999 25.8462 0.617432 25.3038 0.617432H23.2583C22.7158 0.617432 22.1955 0.827999 21.8119 1.20281C21.4283 1.57762 21.2128 2.08597 21.2128 2.61603V10.6104C20.9416 10.6104 20.6815 10.7157 20.4897 10.9031C20.2979 11.0905 20.1901 11.3447 20.1901 11.6097C20.1901 11.8748 20.2979 12.129 20.4897 12.3164C20.6815 12.5038 20.9416 12.6091 21.2128 12.6091H23.2583V14.6077H15.0765V7.61254H17.1219C17.3932 7.61254 17.6533 7.50726 17.8451 7.31985C18.0369 7.13245 18.1447 6.87827 18.1447 6.61324V2.61603C18.1447 2.351 18.0369 2.09683 17.8451 1.90942C17.6533 1.72202 17.3932 1.61673 17.1219 1.61673H7.91739C7.75862 1.61673 7.60203 1.65285 7.46001 1.72223C7.318 1.79161 7.19447 1.89234 7.09921 2.01645L4.03103 6.01366C3.92688 6.15751 3.86351 6.32571 3.84735 6.50121C3.83118 6.6767 3.86279 6.85325 3.93898 7.01296C4.01668 7.1871 4.14358 7.336 4.30479 7.44219C4.466 7.54838 4.65485 7.60748 4.84921 7.61254H9.96285V14.6077H1.78103C1.50978 14.6077 1.24965 14.7129 1.05785 14.9003C0.866052 15.0877 0.758301 15.3419 0.758301 15.607V19.6042C0.758301 19.8692 0.866052 20.1234 1.05785 20.3108C1.24965 20.4982 1.50978 20.6035 1.78103 20.6035H3.82648V29.5972C3.82648 30.3923 4.14974 31.1548 4.72513 31.717C5.30053 32.2792 6.08093 32.5951 6.89466 32.5951H39.6219C40.4357 32.5951 41.2161 32.2792 41.7915 31.717C42.3669 31.1548 42.6901 30.3923 42.6901 29.5972V20.6035H44.7356C45.0068 20.6035 45.267 20.4982 45.4588 20.3108C45.6506 20.1234 45.7583 19.8692 45.7583 19.6042V15.607C45.7583 15.3419 45.6506 15.0877 45.4588 14.9003C45.267 14.7129 45.0068 14.6077 44.7356 14.6077ZM23.2583 2.61603H25.3038V10.6104H23.2583V2.61603ZM34.8458 10.3906C34.151 10.1513 33.5489 9.70787 33.1223 9.12103C32.6956 8.53419 32.4653 7.83273 32.4628 7.11289V5.61394C32.4632 5.26346 32.5579 4.91924 32.7374 4.6158C32.9169 4.31236 33.1749 4.06039 33.4856 3.88515V6.61324C33.4856 7.1433 33.7011 7.65166 34.0847 8.02647C34.4683 8.40128 34.9885 8.61184 35.531 8.61184H36.5538C37.0962 8.61184 37.6165 8.40128 38.0001 8.02647C38.3837 7.65166 38.5992 7.1433 38.5992 6.61324V3.88515C38.9099 4.06039 39.1679 4.31236 39.3474 4.6158C39.5269 4.91924 39.6216 5.26346 39.6219 5.61394V7.11289C39.6195 7.83273 39.3891 8.53419 38.9625 9.12103C38.5359 9.70787 37.9338 10.1513 37.239 10.3906C37.0394 10.4588 36.8664 10.5857 36.7436 10.7539C36.6209 10.9221 36.5546 11.1234 36.5538 11.3299V14.6077H35.531V11.3299C35.5302 11.1234 35.4638 10.9221 35.3411 10.7539C35.2184 10.5857 35.0454 10.4588 34.8458 10.3906ZM8.42876 3.61534H16.0992V5.61394H6.89466L8.42876 3.61534ZM12.0083 7.61254H13.031V14.6077H12.0083V7.61254ZM40.6447 29.5972C40.6447 29.8622 40.5369 30.1164 40.3451 30.3038C40.1533 30.4912 39.8932 30.5965 39.6219 30.5965H6.89466C6.62342 30.5965 6.36329 30.4912 6.17149 30.3038C5.97969 30.1164 5.87194 29.8622 5.87194 29.5972V20.6035H40.6447V29.5972ZM43.7128 18.6049H2.80376V16.6063H43.7128V18.6049Z" fill="#FDD105"/>
</svg>
