<svg width="55" height="55" viewBox="0 0 55 55" fill="none" xmlns="http://www.w3.org/2000/svg">
<g filter="url(#filter0_d)">
<rect x="7.56018" y="7.26688" width="31.5905" height="29.0675" fill="#252733" fill-opacity="0.43"/>
<path d="M6.87933 39.9724C16.0536 49.1172 30.9257 49.1172 40.1001 39.9724C49.2744 30.8276 49.2744 16.0034 40.1001 6.85859C30.9257 -2.2862 16.0536 -2.2862 6.87933 6.85859C-2.29311 16.0034 -2.29311 30.8276 6.87933 39.9724ZM17.2996 8.85351L20.7949 12.3376C21.494 13.0344 21.6424 14.1115 21.1576 14.9713L19.844 17.2959C19.6863 17.5746 19.6246 17.8972 19.6684 18.2142C19.7122 18.5312 19.859 18.8252 20.0864 19.051L27.8683 26.8078C28.0951 27.0342 28.3901 27.1802 28.7081 27.2235C29.0262 27.2668 29.3497 27.205 29.6291 27.0476L31.9612 25.7382C32.3807 25.5025 32.8662 25.4102 33.3433 25.4755C33.8205 25.5408 34.2631 25.76 34.6034 26.0997L38.1006 29.5857C38.5137 29.9983 38.7457 30.5575 38.7457 31.1404C38.7457 31.7234 38.5137 32.2825 38.1006 32.6952L36.445 34.3454C35.5266 35.2587 34.3314 35.8443 33.0449 36.0112C31.7585 36.1782 30.4527 35.9173 29.3303 35.2689L29.1724 35.179C22.3116 31.2713 16.5731 25.672 12.5076 18.918L11.7127 17.5956C11.037 16.475 10.7567 15.1614 10.9164 13.8638C11.0762 12.5661 11.6667 11.359 12.594 10.4345L14.1801 8.85351C14.3848 8.64917 14.6279 8.48705 14.8956 8.37644C15.1632 8.26584 15.4501 8.20891 15.7398 8.20891C16.0296 8.20891 16.3164 8.26584 16.5841 8.37644C16.8517 8.48705 17.0948 8.64917 17.2996 8.85351Z" fill="#FDD105"/>
</g>
<defs>
<filter id="filter0_d" x="0" y="0" width="54.9808" height="54.831" filterUnits="userSpaceOnUse" color-interpolation-filters="sRGB">
<feFlood flood-opacity="0" result="BackgroundImageFix"/>
<feColorMatrix in="SourceAlpha" type="matrix" values="0 0 0 0 0 0 0 0 0 0 0 0 0 0 0 0 0 0 127 0"/>
<feOffset dx="4" dy="4"/>
<feGaussianBlur stdDeviation="2"/>
<feColorMatrix type="matrix" values="0 0 0 0 0 0 0 0 0 0 0 0 0 0 0 0 0 0 0.25 0"/>
<feBlend mode="normal" in2="BackgroundImageFix" result="effect1_dropShadow"/>
<feBlend mode="normal" in="SourceGraphic" in2="effect1_dropShadow" result="shape"/>
</filter>
</defs>
</svg>
