<svg width="34" height="32" viewBox="0 0 34 32" fill="none" xmlns="http://www.w3.org/2000/svg">
<path d="M18.4003 10.5256C19.5264 10.5256 20.6065 10.9415 21.4028 11.6817C22.1991 12.4219 22.6465 13.4259 22.6465 14.4727C22.6465 14.8217 22.7956 15.1563 23.0611 15.4031C23.3265 15.6498 23.6865 15.7884 24.0619 15.7884C24.4373 15.7884 24.7973 15.6498 25.0628 15.4031C25.3282 15.1563 25.4773 14.8217 25.4773 14.4727C25.4773 12.728 24.7317 11.0547 23.4045 9.821C22.0773 8.58729 20.2772 7.8942 18.4003 7.8942C18.0249 7.8942 17.6649 8.03281 17.3994 8.27956C17.134 8.5263 16.9849 8.86095 16.9849 9.2099C16.9849 9.55884 17.134 9.8935 17.3994 10.1402C17.6649 10.387 18.0249 10.5256 18.4003 10.5256Z" fill="#F2C926"/>
<path d="M18.4001 5.26284C21.0278 5.26284 23.5479 6.23317 25.406 7.96037C27.2641 9.68756 28.308 12.0301 28.308 14.4728C28.308 14.8217 28.4571 15.1564 28.7225 15.4031C28.988 15.6498 29.348 15.7885 29.7234 15.7885C30.0988 15.7885 30.4588 15.6498 30.7242 15.4031C30.9897 15.1564 31.1388 14.8217 31.1388 14.4728C31.1388 11.3322 29.7967 8.32036 27.4077 6.09968C25.0187 3.879 21.7786 2.63144 18.4001 2.63144C18.0247 2.63144 17.6647 2.77006 17.3992 3.0168C17.1338 3.26354 16.9847 3.5982 16.9847 3.94714C16.9847 4.29609 17.1338 4.63074 17.3992 4.87748C17.6647 5.12423 18.0247 5.26284 18.4001 5.26284ZM30.7849 20.9329C30.7071 20.7216 30.5727 20.5323 30.3944 20.3827C30.2161 20.2331 29.9998 20.1281 29.7658 20.0777L21.2734 18.2751C21.0428 18.2266 20.8029 18.2324 20.5754 18.2922C20.348 18.3519 20.1402 18.4637 19.9712 18.6172C19.773 18.7883 19.7589 18.8014 18.8389 20.4329C15.7861 19.1253 13.34 16.8422 11.9458 13.9991C13.7434 13.1571 13.7575 13.1571 13.9415 12.9597C14.1067 12.8026 14.227 12.6094 14.2912 12.398C14.3555 12.1866 14.3618 11.9635 14.3095 11.7493L12.3704 3.94714C12.3161 3.72965 12.2032 3.52858 12.0423 3.36285C11.8813 3.19713 11.6776 3.0722 11.4504 2.99984C11.1199 2.89009 10.7785 2.81077 10.4313 2.76301C10.0736 2.6859 9.70852 2.64183 9.34145 2.63144C7.61466 2.63144 5.95859 3.26908 4.73756 4.4041C3.51653 5.53911 2.83057 7.07852 2.83057 8.68367C2.83806 14.0553 5.13696 19.2049 9.22313 23.0033C13.3093 26.8016 18.8492 28.9385 24.6279 28.9455C25.4829 28.9455 26.3296 28.7889 27.1195 28.4848C27.9094 28.1806 28.6272 27.7348 29.2318 27.1728C29.8364 26.6108 30.316 25.9436 30.6432 25.2094C30.9704 24.4751 31.1388 23.6881 31.1388 22.8933C31.1392 22.5584 31.1108 22.224 31.0539 21.8933C30.9944 21.5665 30.9044 21.2452 30.7849 20.9329Z" fill="#F2C926"/>
</svg>
