<svg width="133" height="132" viewBox="0 0 133 132" fill="none" xmlns="http://www.w3.org/2000/svg">
<path d="M20 30.008C00 50.444 20.0087 110.044 100.028 110.668C138.887 86.8921 100.887 25.0009 80 10.44398 " fill="white"/>
<path id="pC" d="M19.3904 112.668C45.2496 138.444 87.1687 138.444 113.028 112.668C138.887 86.8921 138.887 45.1079 113.028 19.3319C87.1687 -6.44398 45.2496 -6.44398 19.3904 19.3319C-6.46347 45.1079 -6.46347 86.8921 19.3904 112.668ZM48.7614 24.9549L58.6135 34.7753C60.5839 36.7394 61.0023 39.7753 59.6358 42.1987L55.9333 48.7509C55.4887 49.5365 55.3147 50.4458 55.4382 51.3393C55.5616 52.2329 55.9755 53.0615 56.6166 53.6981L78.5508 75.5617C79.1901 76.1998 80.0216 76.6114 80.9181 76.7335C81.8145 76.8556 82.7263 76.6813 83.5139 76.2375L90.0873 72.5469C91.2699 71.8825 92.6382 71.6224 93.9831 71.8064C95.328 71.9905 96.5754 72.6085 97.5346 73.5659L107.392 83.3916C108.556 84.5547 109.21 86.1307 109.21 87.7738C109.21 89.417 108.556 90.993 107.392 92.1561L102.726 96.8076C100.137 99.3818 96.768 101.032 93.142 101.503C89.516 101.974 85.8355 101.238 82.6717 99.4105L82.2268 99.1571C62.8885 88.1428 46.7138 72.3602 35.2544 53.3232L33.0139 49.5957C31.1094 46.4372 30.3194 42.7346 30.7696 39.0771C31.2197 35.4195 32.8842 32.017 35.4981 29.4111L39.9686 24.9549C40.5457 24.3789 41.231 23.922 41.9853 23.6102C42.7397 23.2985 43.5483 23.138 44.365 23.138C45.1816 23.138 45.9902 23.2985 46.7446 23.6102C47.499 23.922 48.1843 24.3789 48.7614 24.9549Z" fill="#495159"/>
</svg>
