<svg width="33" height="38" viewBox="0 0 33 38" fill="none" xmlns="http://www.w3.org/2000/svg">
<path d="M16.7345 0.674194V0.679322L12.1752 2.10726C11.2663 4.33036 9.16599 5.89681 6.68986 5.89629C5.53609 5.8934 4.46342 5.43768 3.4986 4.82982L0.66309 5.71684V23.5904C0.641139 28.5813 4.57841 32.0138 8.67262 34.2448C12.6462 36.4099 16.5023 37.316 16.7345 37.3699C16.9664 37.3158 20.8128 36.4098 24.7806 34.2448C28.8692 32.0138 32.8059 28.5801 32.8059 23.5878V5.71684L29.9756 4.82982C29.0096 5.43781 27.9366 5.88985 26.7817 5.89116H26.7791C24.3066 5.88854 22.2099 4.32708 21.3016 2.10726L16.7345 0.674194ZM16.7371 12.0951L19.0965 16.5635L24.1633 17.3864L20.5561 20.9678L21.3226 25.9412L16.7345 23.6878L12.1438 25.9412L12.9128 20.9652L9.30826 17.3839L14.375 16.5635L16.7371 12.0951Z" fill="#FDD105"/>
</svg>
