<svg width="133" height="132" viewBox="0 0 133 132" fill="none" xmlns="http://www.w3.org/2000/svg">
<path d="M66.1987 132C102.759 132 132.397 102.451 132.397 66C132.397 29.5492 102.759 0 66.1987 0C29.6382 0 0 29.5492 0 66C0 102.451 29.6382 132 66.1987 132Z" fill="#495159"/>
<path d="M67.0055 61.0089C66.7573 61.1739 66.4883 61.2564 66.1987 61.2564C65.9298 61.2564 65.6608 61.1739 65.4126 61.0089L22.7558 32.0308V75.8589H109.642V32.0514L67.0055 61.0089Z" fill="white"/>
<path d="M106.497 30.793H25.9002L66.1987 58.183L106.497 30.793Z" fill="white"/>
<path d="M65.4126 82.8298C64.4817 82.8298 63.7369 83.5723 63.7369 84.5005V99.5155C63.7369 100.444 64.4817 101.186 65.4126 101.186C66.3435 101.186 67.0883 100.444 67.0883 99.5155V84.5005C67.1089 83.593 66.3435 82.8298 65.4126 82.8298ZM54.3864 82.8298C53.4555 82.8298 52.7107 83.5723 52.7107 84.5005V93.9261C52.7107 94.8542 53.4555 95.5967 54.3864 95.5967C55.3173 95.5967 56.062 94.8542 56.062 93.9261V84.5005C56.062 83.593 55.3173 82.8298 54.3864 82.8298ZM78.0317 82.8298C77.1008 82.8298 76.3561 83.5723 76.3561 84.5005V93.9261C76.3561 94.8542 77.1008 95.5967 78.0317 95.5967C78.9627 95.5967 79.7074 94.8542 79.7074 93.9261V84.5005C79.7074 83.593 78.9627 82.8298 78.0317 82.8298Z" fill="white"/>
</svg>
