<svg width="48" height="48" viewBox="0 0 48 48" fill="none" xmlns="http://www.w3.org/2000/svg">
<path d="M36.771 18.4425C36.771 18.4425 36.5175 16.5255 35.736 15.681C34.7445 14.574 33.6345 14.568 33.1245 14.505C29.4765 14.223 24.006 14.223 24.006 14.223H23.994C23.994 14.223 18.5235 14.223 14.8755 14.505C14.367 14.568 13.257 14.574 12.264 15.681C11.484 16.5255 11.229 18.4425 11.229 18.4425C11.229 18.4425 10.968 20.6925 10.968 22.941V25.05C10.968 27.3015 11.229 29.55 11.229 29.55C11.229 29.55 11.4825 31.467 12.264 32.3085C13.257 33.4155 14.5575 33.381 15.138 33.4965C17.223 33.711 24 33.777 24 33.777C24 33.777 29.4765 33.768 33.1245 33.4875C33.633 33.4215 34.7445 33.4155 35.736 32.31C36.516 31.467 36.771 29.5515 36.771 29.5515C36.771 29.5515 37.032 27.3015 37.032 25.0515V22.9425C37.032 20.6925 36.771 18.4425 36.771 18.4425ZM20.745 28.8885V19.1115L28.893 24L20.745 28.8885Z" stroke="#FDD105" stroke-width="2"/>
<path d="M24 1.5C36.4065 1.5 46.5 11.5935 46.5 24C46.5 36.4065 36.4065 46.5 24 46.5C11.5935 46.5 1.5 36.4065 1.5 24C1.5 11.5935 11.5935 1.5 24 1.5ZM24 0C10.746 0 0 10.746 0 24C0 37.254 10.746 48 24 48C37.254 48 48 37.2555 48 24C48 10.7445 37.254 0 24 0Z" fill="#FDD105"/>
</svg>
