<svg width="48" height="48" viewBox="0 0 48 48" fill="none" xmlns="http://www.w3.org/2000/svg">
<path d="M24 0C19.2533 0 14.6131 1.40758 10.6663 4.04473C6.71954 6.68188 3.64341 10.4302 1.8269 14.8156C0.0103989 19.201 -0.464881 24.0266 0.461164 28.6822C1.38721 33.3377 3.67299 37.6141 7.02945 40.9706C10.3859 44.327 14.6623 46.6128 19.3178 47.5388C23.9734 48.4649 28.799 47.9896 33.1844 46.1731C37.5698 44.3566 41.3181 41.2805 43.9553 37.3337C46.5924 33.3869 48 28.7468 48 24C47.9929 17.637 45.462 11.5367 40.9627 7.03733C36.4634 2.53801 30.363 0.00714632 24 0V0ZM28 45.629V31H33C33.2172 30.9999 33.4284 30.9291 33.6018 30.7983C33.7752 30.6675 33.9013 30.4838 33.961 30.275L35.961 23.275C36.0036 23.1262 36.011 22.9696 35.9827 22.8174C35.9545 22.6652 35.8913 22.5217 35.7981 22.3981C35.705 22.2745 35.5844 22.1742 35.4459 22.1051C35.3074 22.0361 35.1548 22.0001 35 22H28V16H34C34.2652 16 34.5196 15.8946 34.7071 15.7071C34.8947 15.5196 35 15.2652 35 15V8C35 7.73478 34.8947 7.48043 34.7071 7.29289C34.5196 7.10536 34.2652 7 34 7H22C21.4705 6.98451 20.9435 7.07739 20.4511 7.27293C19.9588 7.46847 19.5117 7.76254 19.1371 8.13711C18.7626 8.51167 18.4685 8.95883 18.2729 9.45113C18.0774 9.94344 17.9845 10.4705 18 11V22H13C12.7348 22 12.4804 22.1054 12.2929 22.2929C12.1054 22.4804 12 22.7348 12 23V30C12 30.2652 12.1054 30.5196 12.2929 30.7071C12.4804 30.8946 12.7348 31 13 31H18V42C18 42.2652 18.1054 42.5196 18.2929 42.7071C18.4804 42.8946 18.7348 43 19 43C19.2652 43 19.5196 42.8946 19.7071 42.7071C19.8947 42.5196 20 42.2652 20 42V30C20 29.7348 19.8947 29.4804 19.7071 29.2929C19.5196 29.1054 19.2652 29 19 29H14V24H19C19.2652 24 19.5196 23.8946 19.7071 23.7071C19.8947 23.5196 20 23.2652 20 23V11C19.9828 10.7329 20.0228 10.4652 20.1172 10.2148C20.2116 9.96432 20.3584 9.73689 20.5476 9.54763C20.7369 9.35838 20.9643 9.21164 21.2148 9.11721C21.4652 9.02277 21.7329 8.98282 22 9H33V14H27C26.7348 14 26.4804 14.1054 26.2929 14.2929C26.1054 14.4804 26 14.7348 26 15V23C26 23.2652 26.1054 23.5196 26.2929 23.7071C26.4804 23.8946 26.7348 24 27 24H33.674L32.245 29H27C26.7348 29 26.4804 29.1054 26.2929 29.2929C26.1054 29.4804 26 29.7348 26 30V45.905C25.341 45.965 24.675 46 24 46C18.3324 46.0066 12.8804 43.8283 8.77776 39.918C4.67515 36.0077 2.23775 30.6664 1.97245 25.005C1.70715 19.3436 3.63439 13.7979 7.35335 9.52104C11.0723 5.24423 16.2967 2.56557 21.9401 2.04215C27.5835 1.51872 33.2115 3.19082 37.6536 6.7107C42.0957 10.2306 45.01 15.3273 45.7905 20.9409C46.5709 26.5545 45.1575 32.2529 41.844 36.8511C38.5305 41.4492 33.5722 44.5931 28 45.629Z" fill="#FDD105"/>
</svg>
