<svg width="48" height="48" viewBox="0 0 48 48" fill="none" xmlns="http://www.w3.org/2000/svg">
<path d="M35.8334 14.2539C35.2799 14.2539 34.7491 14.034 34.3577 13.6426C33.9663 13.2513 33.7464 12.7204 33.7464 12.1669C33.731 12.0317 33.731 11.8952 33.7464 11.76C33.7736 11.6249 33.812 11.4922 33.8612 11.3635C33.9129 11.2377 33.9794 11.1186 34.0595 11.0087C34.1316 10.8928 34.2194 10.7875 34.3203 10.6956C34.5623 10.4532 34.8602 10.274 35.1877 10.1739C35.5153 10.0738 35.8625 10.0559 36.1986 10.1217C36.3315 10.1441 36.4612 10.1826 36.5847 10.2365C36.7148 10.2858 36.8377 10.3525 36.9499 10.4348C37.0658 10.5069 37.1711 10.5947 37.2629 10.6956C37.6549 11.0852 37.8763 11.6143 37.8786 12.1669C37.894 12.3022 37.894 12.4387 37.8786 12.5739C37.8577 12.7071 37.8191 12.837 37.7638 12.96C37.7117 13.0869 37.6489 13.209 37.576 13.3252C37.4969 13.4389 37.406 13.5438 37.3047 13.6383C36.9151 14.0302 36.386 14.2516 35.8334 14.2539ZM24.0003 33.5687C22.1078 33.5687 20.2578 33.0075 18.6843 31.9561C17.1107 30.9046 15.8843 29.4102 15.16 27.6618C14.4358 25.9133 14.2463 23.9894 14.6155 22.1332C14.9847 20.2771 15.896 18.5721 17.2343 17.2339C18.5725 15.8957 20.2774 14.9844 22.1336 14.6152C23.9897 14.2459 25.9137 14.4354 27.6621 15.1597C29.4106 15.8839 30.905 17.1103 31.9564 18.6839C33.0078 20.2575 33.569 22.1075 33.569 24C33.5663 26.5369 32.5573 28.9691 30.7634 30.763C28.9695 32.5569 26.5373 33.5659 24.0003 33.5687ZM24.0003 16.5182C22.5206 16.5182 21.0741 16.957 19.8437 17.7791C18.6133 18.6013 17.6544 19.7697 17.0881 21.1369C16.5218 22.504 16.3737 24.0083 16.6624 25.4596C16.951 26.9109 17.6636 28.244 18.71 29.2904C19.7563 30.3367 21.0894 31.0493 22.5407 31.338C23.992 31.6266 25.4964 31.4785 26.8635 30.9122C28.2306 30.3459 29.3991 29.387 30.2212 28.1566C31.0433 26.9263 31.4821 25.4797 31.4821 24C31.4793 22.0166 30.6902 20.1151 29.2877 18.7126C27.8852 17.3101 25.9838 16.521 24.0003 16.5182Z" fill="#FDD105"/>
<path d="M24 48C19.2533 48 14.6131 46.5924 10.6663 43.9553C6.71954 41.3181 3.6434 37.5698 1.8269 33.1844C0.0103988 28.799 -0.464881 23.9734 0.461164 19.3178C1.38721 14.6623 3.67299 10.3859 7.02945 7.02945C10.3859 3.67299 14.6623 1.38721 19.3178 0.461164C23.9734 -0.464881 28.799 0.0103988 33.1844 1.8269C37.5698 3.6434 41.3181 6.71954 43.9553 10.6663C46.5924 14.6131 48 19.2533 48 24C48 30.3652 45.4714 36.4697 40.9706 40.9706C36.4697 45.4714 30.3652 48 24 48ZM24 2.08697C19.666 2.08697 15.4294 3.37214 11.8258 5.77998C8.22219 8.18781 5.41354 11.6102 3.755 15.6142C2.09645 19.6183 1.6625 24.0243 2.50802 28.275C3.35354 32.5257 5.44055 36.4303 8.50515 39.4949C11.5697 42.5595 15.4743 44.6465 19.725 45.492C23.9757 46.3375 28.3817 45.9036 32.3858 44.245C36.3898 42.5865 39.8122 39.7778 42.22 36.1742C44.6279 32.5707 45.913 28.334 45.913 24C45.913 18.1883 43.6044 12.6146 39.4949 8.50515C35.3854 4.39565 29.8117 2.08697 24 2.08697Z" fill="#FDD105"/>
</svg>
