<svg width="44" height="44" viewBox="0 0 44 44" fill="none" xmlns="http://www.w3.org/2000/svg">
<path d="M22.0002 0.862549C9.8679 0.862549 0.0358887 10.4837 0.0358887 22.3557C0.0358887 34.2278 9.8679 43.8489 22.0002 43.8489C34.1284 43.8489 43.9645 34.2278 43.9645 22.3557C43.9645 10.4837 34.1284 0.862549 22.0002 0.862549ZM39.9709 22.3557C39.9697 25.513 39.0926 28.6107 37.4331 31.3184L33.0023 26.9846C33.6473 25.5231 33.9802 23.9479 33.9806 22.3559C33.9809 20.7639 33.6487 19.1887 33.0043 17.7269L37.4351 13.3931C39.093 16.1013 39.9694 19.1987 39.9709 22.3557ZM6.56527 31.3184C4.96587 28.6904 4.02939 25.6305 4.02939 22.3557C4.02939 19.0809 4.96587 16.0211 6.56527 13.3931L10.9961 17.7288C10.3691 19.1493 10.0197 20.7125 10.0197 22.3557C10.0197 23.999 10.3691 25.5621 10.9961 26.9826L6.56527 31.3184ZM14.0132 22.3557C14.0132 20.2829 14.8546 18.2949 16.3525 16.8292C17.8504 15.3635 19.8819 14.54 22.0002 14.54C24.1185 14.54 26.15 15.3635 27.6478 16.8292C29.1457 18.2949 29.9872 20.2829 29.9872 22.3557C29.9872 24.4286 29.1457 26.4165 27.6478 27.8823C26.15 29.348 24.1185 30.1714 22.0002 30.1714C19.8819 30.1714 17.8504 29.348 16.3525 27.8823C14.8546 26.4165 14.0132 24.4286 14.0132 22.3557ZM31.1593 7.25384L26.7285 11.5896C25.2361 10.9566 23.6267 10.6307 22.0002 10.6322C20.3209 10.6322 18.7235 10.9741 17.2719 11.5876L12.8411 7.25384C15.6082 5.63022 18.7737 4.7719 22.0002 4.7704C25.3487 4.7704 28.4716 5.68679 31.1593 7.25384ZM12.8411 37.4576L17.2719 33.1219C18.7642 33.7549 20.3737 34.0808 22.0002 34.0793C23.6794 34.0793 25.2768 33.7373 26.7285 33.1238L31.1593 37.4576C28.3922 39.0812 25.2266 39.9396 22.0002 39.9411C18.7737 39.9396 15.6082 39.0812 12.8411 37.4576Z" fill="#FDD105"/>
</svg>
